{"glyphs":{"0":{"ha":869,"x_min":0,"x_max":0,"o":"m 435 992 b 799 497 675 992 799 889 b 435 -19 799 100 676 -19 b 71 497 194 -19 71 100 b 435 992 71 889 194 992 m 435 146 b 617 497 578 146 617 206 b 435 829 617 790 578 829 b 254 497 293 829 254 790 b 435 146 254 206 293 146 "},"1":{"ha":869,"x_min":0,"x_max":0,"o":"m 390 0 l 390 772 l 174 679 l 122 829 l 569 1008 l 569 0 "},"2":{"ha":869,"x_min":0,"x_max":0,"o":"m 103 947 b 411 992 183 972 300 992 b 769 707 651 992 769 931 b 314 158 769 510 707 431 l 768 158 l 768 0 l 65 0 l 65 147 b 575 692 546 514 575 549 b 396 826 575 797 526 826 b 142 789 310 826 199 810 "},"3":{"ha":869,"x_min":0,"x_max":0,"o":"m 268 586 l 401 586 b 564 710 519 586 564 615 b 356 828 564 797 526 828 b 113 797 281 828 171 815 l 76 956 b 390 992 160 974 279 992 b 757 744 668 992 757 919 b 550 513 757 617 722 528 b 776 261 733 504 776 407 b 388 -19 776 51 663 -19 b 69 15 286 -19 157 -4 l 104 174 b 351 146 168 156 276 146 b 578 286 538 146 578 182 b 406 431 578 396 531 431 l 268 431 "},"4":{"ha":864,"x_min":0,"x_max":0,"o":"m 24 249 l 24 306 b 438 968 125 488 304 786 l 682 968 l 682 400 l 811 400 l 811 249 l 682 249 l 682 0 l 507 0 l 507 249 m 507 810 b 246 400 414 688 299 496 l 507 400 "},"5":{"ha":869,"x_min":0,"x_max":0,"o":"m 733 968 l 733 810 l 307 810 l 307 594 b 422 600 343 597 383 600 b 778 299 694 600 778 515 b 397 -19 778 53 674 -19 b 89 15 304 -19 169 -4 l 125 174 b 363 146 185 156 288 146 b 579 289 542 146 579 176 b 371 444 579 410 549 444 b 133 425 294 444 199 438 l 133 968 "},"6":{"ha":869,"x_min":0,"x_max":0,"o":"m 740 793 b 513 825 689 813 600 825 b 271 585 364 825 276 789 b 454 600 326 594 400 600 b 813 299 726 600 813 515 b 449 -19 813 53 714 -19 b 75 492 174 -19 75 96 b 513 992 75 888 199 992 b 781 954 599 992 706 976 m 449 146 b 621 289 590 146 621 183 b 447 444 621 399 592 444 b 268 431 376 444 314 438 b 449 146 272 189 328 146 "},"7":{"ha":869,"x_min":0,"x_max":0,"o":"m 836 913 b 417 0 708 708 507 271 l 210 0 b 593 810 311 278 474 640 l 93 810 l 93 968 l 836 968 "},"8":{"ha":869,"x_min":0,"x_max":0,"o":"m 435 131 b 608 279 568 131 608 168 b 435 436 608 392 564 436 b 263 279 306 436 263 392 b 435 131 263 168 301 131 m 435 579 b 592 715 546 579 592 617 b 435 839 592 811 550 839 b 276 715 318 839 276 811 b 435 579 276 617 324 579 m 435 -19 b 71 261 171 -19 71 54 b 297 513 71 407 113 504 b 92 744 124 528 92 617 b 435 992 92 914 165 992 b 778 744 704 992 778 914 b 572 513 778 617 746 528 b 799 261 757 504 799 407 b 435 -19 799 54 700 -19 "},"9":{"ha":869,"x_min":0,"x_max":0,"o":"m 238 0 b 550 379 367 122 486 253 b 429 372 517 375 454 372 b 71 664 157 372 71 447 b 435 992 71 910 168 992 b 804 657 726 992 804 918 b 465 0 804 381 647 176 l 238 0 m 449 528 b 599 538 499 528 553 531 b 611 638 607 569 611 603 b 435 828 611 806 568 828 b 263 672 292 828 263 781 b 449 528 263 553 293 528 "}," ":{"ha":369,"x_min":0,"x_max":0,"o":""},"þ":{"ha":817,"x_min":0,"x_max":0,"o":"m 96 985 l 268 985 l 268 714 b 406 728 314 722 364 728 b 744 354 639 728 744 643 b 438 -19 744 67 626 -19 b 268 21 357 -19 307 1 l 268 -267 l 96 -267 m 268 194 b 407 126 268 153 331 126 b 568 350 528 126 568 175 b 406 579 568 544 528 579 b 268 558 358 579 304 572 "},"Ž":{"ha":863,"x_min":0,"x_max":0,"o":"m 24 44 b 554 810 190 271 418 603 l 54 810 l 54 968 l 839 968 l 839 926 b 308 158 700 703 457 344 l 829 158 l 829 0 l 24 0 m 457 1108 l 554 1217 l 710 1217 l 540 1038 l 371 1038 l 196 1217 l 356 1217 "},"ž":{"ha":690,"x_min":0,"x_max":0,"o":"m 658 707 l 658 672 b 294 150 558 511 388 268 l 649 150 l 649 0 l 25 0 l 25 35 b 394 557 160 206 325 443 l 49 557 l 49 707 m 256 968 l 354 863 l 450 968 l 607 968 l 438 789 l 268 789 l 93 968 "},"½":{"ha":1194,"x_min":0,"x_max":0,"o":"m 703 583 b 899 610 751 599 829 610 b 1153 425 1069 610 1153 561 b 1026 236 1153 342 1121 269 b 856 124 921 199 864 182 l 1154 124 l 1154 0 l 683 0 b 882 306 697 186 757 253 b 1003 414 957 335 1003 363 b 888 478 1003 461 974 478 b 726 454 836 478 761 467 m 913 968 l 315 0 l 146 0 l 743 968 m 194 386 l 194 811 l 64 754 l 25 876 l 340 1007 l 340 386 "},"!":{"ha":461,"x_min":0,"x_max":0,"o":"m 336 968 l 293 310 l 167 310 l 124 968 m 231 199 b 342 101 314 199 342 186 b 231 -7 342 10 314 -7 b 122 101 150 -7 122 10 b 231 199 122 186 150 199 "},"\"":{"ha":514,"x_min":0,"x_max":0,"o":"m 218 968 l 192 635 l 78 635 l 63 968 m 451 968 l 425 635 l 313 635 l 300 968 "},"#":{"ha":989,"x_min":0,"x_max":0,"o":"m 65 743 l 244 743 l 258 968 l 419 968 l 404 743 l 596 743 l 611 968 l 771 968 l 757 743 l 947 743 l 938 604 l 747 604 l 733 383 l 926 383 l 917 246 l 725 246 l 708 0 l 549 0 l 564 246 l 372 246 l 357 0 l 196 0 l 213 246 l 35 246 l 44 383 l 221 383 l 235 604 l 56 604 m 381 383 l 572 383 l 588 604 l 396 604 "},"%":{"ha":1332,"x_min":0,"x_max":0,"o":"m 1042 968 l 446 0 l 285 0 l 879 968 m 301 992 b 554 682 481 992 554 928 b 301 361 554 435 481 361 b 49 682 122 361 49 435 b 301 992 49 928 122 992 m 301 485 b 401 681 379 485 401 519 b 301 869 401 843 379 869 b 200 681 225 869 200 843 b 301 485 200 519 225 485 m 1031 610 b 1283 301 1210 610 1283 546 b 1031 -19 1283 53 1210 -19 b 778 301 851 -19 778 53 b 1031 610 778 546 851 610 m 1031 103 b 1131 300 1108 103 1131 138 b 1031 488 1131 463 1108 488 b 929 300 954 488 929 463 b 1031 103 929 138 954 103 "},"(":{"ha":421,"x_min":0,"x_max":0,"o":"m 94 346 b 400 1064 94 786 229 988 l 479 935 b 276 346 367 881 276 738 b 479 -243 276 -44 367 -189 l 400 -372 b 94 346 229 -296 94 -94 "},"*":{"ha":686,"x_min":0,"x_max":0,"o":"m 42 804 l 221 804 l 131 961 l 254 1031 l 343 875 l 432 1031 l 556 961 l 464 804 l 644 804 l 644 665 l 464 665 l 554 508 l 432 440 l 343 593 l 254 440 l 131 510 l 221 665 l 42 665 "},",":{"ha":396,"x_min":0,"x_max":0,"o":"m 168 -221 l 14 -221 l 122 143 l 328 143 "},"-":{"ha":422,"x_min":0,"x_max":0,"o":"m 40 472 l 382 472 l 382 308 l 40 308 "},".":{"ha":396,"x_min":0,"x_max":0,"o":"m 196 199 b 307 101 281 199 307 186 b 196 -7 307 10 281 -7 b 89 101 115 -7 89 10 b 196 199 89 186 115 199 "},":":{"ha":396,"x_min":0,"x_max":0,"o":"m 196 199 b 307 101 281 199 307 186 b 196 -7 307 10 281 -7 b 89 101 115 -7 89 10 b 196 199 89 186 115 199 m 196 715 b 307 617 281 715 307 703 b 196 510 307 525 281 510 b 89 617 115 510 89 525 b 196 715 89 703 115 715 "},";":{"ha":396,"x_min":0,"x_max":0,"o":"m 168 -221 l 14 -221 l 122 143 l 328 143 m 196 715 b 307 617 281 715 307 703 b 196 510 307 525 281 510 b 89 617 115 510 89 525 b 196 715 89 703 115 715 "},"<":{"ha":808,"x_min":0,"x_max":0,"o":"m 343 503 l 715 188 l 625 63 l 117 458 l 117 543 l 622 938 l 715 815 "},"=":{"ha":808,"x_min":0,"x_max":0,"o":"m 67 397 l 742 397 l 742 233 l 67 233 m 67 768 l 742 768 l 742 604 l 67 604 "},"A":{"ha":947,"x_min":0,"x_max":0,"o":"m 771 0 b 678 242 743 69 710 153 l 254 242 b 179 0 226 156 201 74 l -12 0 b 338 968 78 289 219 679 l 625 968 b 974 0 724 657 865 258 l 771 0 m 453 813 b 303 399 404 688 353 544 l 625 399 b 490 813 575 542 528 688 "},"B":{"ha":989,"x_min":0,"x_max":0,"o":"m 611 154 b 704 290 678 154 704 203 b 606 433 704 382 672 433 l 306 433 l 306 154 m 306 582 l 603 582 b 686 699 664 582 686 626 b 603 813 686 776 665 813 l 306 813 m 679 513 b 901 265 864 504 901 410 b 651 0 901 75 807 0 l 122 0 l 122 968 l 643 968 b 881 736 836 968 881 878 b 679 513 881 608 853 528 "},"D":{"ha":1022,"x_min":0,"x_max":0,"o":"m 492 968 b 949 488 799 968 949 864 b 492 0 949 113 799 0 l 122 0 l 122 968 m 753 486 b 474 810 753 771 688 810 l 306 810 l 306 158 l 474 158 b 753 486 688 158 753 213 "},"E":{"ha":861,"x_min":0,"x_max":0,"o":"m 825 968 l 825 810 l 306 810 l 306 586 l 676 586 l 676 429 l 306 429 l 306 158 l 825 158 l 825 0 l 122 0 l 122 968 "},"F":{"ha":811,"x_min":0,"x_max":0,"o":"m 811 968 l 811 810 l 306 810 l 306 536 l 676 536 l 676 379 l 306 379 l 306 0 l 122 0 l 122 968 "},"G":{"ha":972,"x_min":0,"x_max":0,"o":"m 685 411 l 474 411 l 474 565 l 872 565 l 872 22 b 528 -19 793 -3 640 -19 b 74 493 221 -19 74 99 b 554 992 74 889 239 992 b 846 956 642 992 771 976 l 808 796 b 568 825 757 814 633 825 b 269 492 349 825 269 789 b 560 147 269 194 349 147 b 685 161 606 147 656 154 "},"H":{"ha":1022,"x_min":0,"x_max":0,"o":"m 306 0 l 122 0 l 122 968 l 306 968 l 306 599 l 719 599 l 719 968 l 900 968 l 900 0 l 719 0 l 719 429 l 306 429 "},"I":{"ha":428,"x_min":0,"x_max":0,"o":"m 306 968 l 306 0 l 122 0 l 122 968 "},"J":{"ha":640,"x_min":0,"x_max":0,"o":"m 522 267 b 228 -19 522 36 375 -19 b 8 18 149 -19 69 -4 l 44 182 b 210 153 90 164 151 153 b 336 290 279 153 336 181 l 336 968 l 521 968 "},"K":{"ha":919,"x_min":0,"x_max":0,"o":"m 306 0 l 122 0 l 122 968 l 306 968 m 713 0 b 307 511 518 321 363 489 b 685 968 367 554 515 718 l 907 968 b 542 524 729 718 590 564 b 938 0 589 492 744 321 "},"L":{"ha":765,"x_min":0,"x_max":0,"o":"m 306 968 l 306 160 l 763 160 l 763 0 l 122 0 l 122 968 "},"M":{"ha":1272,"x_min":0,"x_max":0,"o":"m 644 349 b 913 968 721 551 822 782 l 1150 968 l 1150 0 l 971 0 l 971 721 b 701 89 883 528 779 279 l 558 89 b 299 721 483 279 383 535 l 299 0 l 122 0 l 122 968 l 372 968 b 644 349 464 779 564 550 "},"N":{"ha":1075,"x_min":0,"x_max":0,"o":"m 951 0 l 728 0 b 301 729 597 242 453 489 l 301 0 l 122 0 l 122 968 l 363 968 b 769 269 503 747 643 506 l 769 968 l 951 968 "},"O":{"ha":1069,"x_min":0,"x_max":0,"o":"m 535 992 b 994 493 842 992 994 886 b 535 -19 994 93 842 -19 b 74 493 226 -19 74 93 b 535 992 74 886 228 992 m 535 146 b 800 490 747 146 800 199 b 535 826 800 783 747 826 b 269 490 322 826 269 783 b 535 146 269 199 322 146 "},"P":{"ha":935,"x_min":0,"x_max":0,"o":"m 575 472 b 694 638 651 472 694 528 b 579 813 694 756 654 813 l 306 813 l 306 472 m 122 0 l 122 968 l 626 968 b 896 636 831 968 896 825 b 631 319 896 469 817 319 l 306 319 l 306 0 "},"Q":{"ha":1088,"x_min":0,"x_max":0,"o":"m 543 992 b 1004 493 850 992 1004 886 b 733 21 1004 186 913 56 b 1021 -267 794 4 889 -85 l 807 -267 b 540 -19 700 -103 603 -26 b 83 493 235 -19 83 96 b 543 992 83 886 236 992 m 543 146 b 810 490 757 146 810 199 b 543 826 810 783 757 826 b 279 490 331 826 279 783 b 543 146 279 199 331 146 "},"R":{"ha":981,"x_min":0,"x_max":0,"o":"m 306 521 l 579 521 b 692 663 650 521 692 568 b 583 813 692 764 651 813 l 306 813 m 642 421 b 965 0 708 397 796 283 l 739 0 b 435 369 588 265 497 369 l 306 369 l 306 0 l 122 0 l 122 968 l 626 968 b 896 686 831 968 896 842 b 642 421 896 547 835 428 "},"S":{"ha":864,"x_min":0,"x_max":0,"o":"m 736 790 b 481 825 682 810 578 825 b 263 699 326 825 263 793 b 475 575 263 625 299 592 b 800 285 700 551 800 468 b 382 -19 800 57 661 -19 b 81 24 275 -19 158 -3 l 121 182 b 379 147 182 163 285 147 b 603 275 533 147 603 175 b 382 410 603 347 568 393 b 68 676 168 431 68 497 b 481 992 68 904 210 992 b 776 949 586 992 700 974 "},"T":{"ha":846,"x_min":0,"x_max":0,"o":"m 331 0 l 331 810 l 4 810 l 4 968 l 842 968 l 842 810 l 515 810 l 515 0 "},"U":{"ha":1031,"x_min":0,"x_max":0,"o":"m 922 293 b 515 -19 922 39 768 -19 b 108 293 263 -19 108 39 l 108 968 l 293 968 l 293 321 b 515 149 293 192 350 149 b 739 321 672 149 739 185 l 739 968 l 921 968 "},"V":{"ha":900,"x_min":0,"x_max":0,"o":"m 176 968 b 453 186 264 757 382 428 b 719 968 549 422 650 732 l 913 968 b 558 0 824 679 681 289 l 324 0 b -26 968 229 307 88 710 "},"W":{"ha":1354,"x_min":0,"x_max":0,"o":"m 685 664 b 507 0 643 461 572 213 l 275 0 b -3 968 199 307 89 710 l 197 968 b 406 228 268 757 346 481 b 600 968 464 421 558 754 l 769 968 b 960 228 828 760 919 429 b 1161 968 1039 475 1107 729 l 1350 968 b 1069 0 1279 679 1167 289 l 836 0 b 685 664 794 222 735 471 "},"X":{"ha":936,"x_min":0,"x_max":0,"o":"m 235 968 b 478 649 306 878 389 768 b 700 968 558 761 636 872 l 925 968 b 590 493 826 824 710 658 b 940 0 719 314 850 132 l 713 0 b 476 335 643 100 563 215 b 219 0 386 215 300 101 l -6 0 b 364 489 90 119 229 304 b 0 968 232 667 99 843 l 235 968 "},"Y":{"ha":886,"x_min":0,"x_max":0,"o":"m 186 968 b 456 599 268 865 364 733 b 711 968 553 729 644 861 l 933 968 b 543 418 822 801 682 603 l 543 0 l 360 0 l 360 417 b -53 968 221 614 64 826 l 186 968 "},"Z":{"ha":863,"x_min":0,"x_max":0,"o":"m 24 44 b 554 810 190 271 418 603 l 54 810 l 54 968 l 839 968 l 839 926 b 308 158 700 703 457 344 l 829 158 l 829 0 l 24 0 "},"[":{"ha":474,"x_min":0,"x_max":0,"o":"m 500 1049 l 500 899 l 304 899 l 304 -212 l 500 -212 l 500 -361 l 125 -361 l 125 1049 "},"^":{"ha":738,"x_min":0,"x_max":0,"o":"m 365 781 l 200 411 l 18 411 l 285 968 l 450 968 l 719 411 l 533 411 "},"_":{"ha":653,"x_min":0,"x_max":0,"o":"m 40 -67 l 613 -67 l 613 -231 l 40 -231 "},"a":{"ha":778,"x_min":0,"x_max":0,"o":"m 686 36 b 367 -19 597 1 465 -19 b 68 217 143 -19 68 32 b 346 449 68 417 181 449 b 521 429 406 449 461 442 b 344 583 521 553 492 583 b 131 549 267 583 189 569 l 99 690 b 381 728 172 710 279 728 b 686 453 590 728 686 664 m 521 136 l 521 313 b 381 325 482 321 432 325 b 249 224 283 325 249 314 b 379 113 249 128 275 113 b 521 136 429 113 481 122 "},"f":{"ha":522,"x_min":0,"x_max":0,"o":"m 297 707 l 526 707 l 526 557 l 297 557 l 297 0 l 125 0 l 125 557 l 7 557 l 7 707 l 125 707 l 125 754 b 382 1006 125 960 243 1006 b 576 975 447 1006 522 993 l 538 839 b 410 858 504 850 451 858 b 297 744 342 858 297 835 "},"i":{"ha":364,"x_min":0,"x_max":0,"o":"m 268 0 l 96 0 l 96 707 l 268 707 m 183 1001 b 282 917 258 1001 282 990 b 183 821 282 835 258 821 b 83 917 107 821 83 835 b 183 1001 83 990 107 1001 "},"j":{"ha":364,"x_min":0,"x_max":0,"o":"m -22 -139 b 96 -19 56 -139 96 -114 l 96 707 l 268 707 l 268 -15 b -22 -282 268 -225 171 -282 m 183 1001 b 282 917 258 1001 282 990 b 183 821 282 835 258 821 b 83 917 107 821 83 835 b 183 1001 83 990 107 1001 "},"k":{"ha":765,"x_min":0,"x_max":0,"o":"m 268 0 l 96 0 l 96 1003 l 268 1003 m 564 0 b 268 374 404 232 307 357 b 542 707 307 406 403 519 l 746 707 b 475 386 610 524 513 415 b 767 0 511 364 617 235 "},"l":{"ha":372,"x_min":0,"x_max":0,"o":"m 268 199 b 322 32 268 131 283 83 l 171 -33 b 96 192 122 22 96 89 l 96 1003 l 268 1003 "},"s":{"ha":682,"x_min":0,"x_max":0,"o":"m 565 554 b 360 588 510 572 431 588 b 232 506 275 588 232 579 b 378 429 232 457 263 440 b 624 217 549 411 624 358 b 321 -19 624 33 501 -19 b 68 18 246 -19 135 -6 l 104 154 b 314 121 156 136 243 121 b 453 207 408 121 453 133 b 301 292 453 257 425 281 b 63 493 146 304 63 347 b 365 728 63 676 186 728 b 603 689 439 728 532 713 "},"v":{"ha":710,"x_min":0,"x_max":0,"o":"m 354 174 b 529 707 421 350 483 531 l 704 707 b 450 0 636 478 544 229 l 238 0 b 0 707 168 246 88 494 l 179 707 b 354 174 242 549 304 356 "},"x":{"ha":724,"x_min":0,"x_max":0,"o":"m 522 0 b 374 224 483 65 431 143 b 200 0 311 139 251 63 l 8 0 b 283 353 83 88 186 221 b 10 707 188 486 86 618 l 215 707 b 378 490 263 649 321 571 b 524 707 438 572 486 649 l 715 707 b 472 358 651 611 563 483 b 717 0 561 233 650 103 "},"z":{"ha":690,"x_min":0,"x_max":0,"o":"m 658 707 l 658 672 b 294 150 558 511 388 268 l 649 150 l 649 0 l 25 0 l 25 35 b 394 557 160 206 325 443 l 49 557 l 49 707 "},"{":{"ha":469,"x_min":0,"x_max":0,"o":"m 43 274 l 43 417 b 196 696 125 417 196 474 b 424 1065 196 932 308 1026 l 506 936 b 363 640 415 904 363 849 b 240 346 363 421 286 360 b 363 49 286 332 363 268 b 506 -247 363 -160 413 -214 l 424 -375 b 196 -4 308 -336 196 -240 b 43 275 196 218 125 275 "},"|":{"ha":515,"x_min":0,"x_max":0,"o":"m 349 1049 l 349 -356 l 167 -356 l 167 1049 "},"Ç":{"ha":822,"x_min":0,"x_max":0,"o":"m 74 493 b 528 992 74 889 221 992 b 806 956 617 992 731 976 l 765 794 b 560 825 715 813 625 825 b 269 492 349 825 269 789 b 560 149 269 194 349 149 b 765 179 625 149 715 161 l 806 15 b 528 -19 731 -6 617 -19 b 74 493 221 -19 74 99 m 536 0 l 536 -58 b 689 -167 644 -58 689 -85 b 499 -282 689 -254 638 -282 b 363 -260 433 -282 397 -275 l 393 -185 b 492 -201 415 -196 453 -201 b 549 -165 535 -201 549 -193 b 418 -129 549 -131 518 -124 l 468 0 "},"É":{"ha":861,"x_min":0,"x_max":0,"o":"m 825 968 l 825 810 l 306 810 l 306 586 l 676 586 l 676 429 l 306 429 l 306 158 l 825 158 l 825 0 l 122 0 l 122 968 m 350 1038 l 529 1217 l 719 1217 l 500 1038 "},"Ñ":{"ha":1075,"x_min":0,"x_max":0,"o":"m 951 0 l 728 0 b 301 729 597 242 453 489 l 301 0 l 122 0 l 122 968 l 363 968 b 769 269 503 747 643 506 l 769 968 l 951 968 m 800 1151 b 633 1022 774 1079 715 1022 b 435 1097 551 1022 500 1097 b 364 1028 407 1097 385 1081 l 286 1104 b 435 1214 324 1169 367 1214 b 640 1142 529 1214 576 1142 b 715 1221 672 1142 693 1160 "},"Ö":{"ha":1069,"x_min":0,"x_max":0,"o":"m 535 992 b 994 493 842 992 994 886 b 535 -19 994 93 842 -19 b 74 493 226 -19 74 93 b 535 992 74 886 228 992 m 535 146 b 800 490 747 146 800 199 b 535 826 800 783 747 826 b 269 490 322 826 269 783 b 535 146 269 199 322 146 m 385 1200 b 467 1122 447 1200 467 1189 b 385 1038 467 1050 447 1038 b 301 1122 322 1038 301 1050 b 385 1200 301 1189 322 1200 m 681 1200 b 763 1122 743 1200 763 1189 b 681 1038 763 1050 743 1038 b 597 1122 617 1038 597 1050 b 681 1200 597 1189 617 1200 "},"Ü":{"ha":1031,"x_min":0,"x_max":0,"o":"m 922 293 b 515 -19 922 39 768 -19 b 108 293 263 -19 108 39 l 108 968 l 293 968 l 293 321 b 515 149 293 192 350 149 b 739 321 672 149 739 185 l 739 968 l 921 968 m 364 1200 b 446 1122 426 1200 446 1189 b 364 1038 446 1050 426 1038 b 281 1122 301 1038 281 1050 b 364 1200 281 1189 301 1200 m 660 1200 b 742 1122 722 1200 742 1189 b 660 1038 742 1050 722 1038 b 576 1122 596 1038 576 1050 b 660 1200 576 1189 596 1200 "},"á":{"ha":778,"x_min":0,"x_max":0,"o":"m 686 36 b 367 -19 597 1 465 -19 b 68 217 143 -19 68 32 b 346 449 68 417 181 449 b 521 429 406 449 461 442 b 344 583 521 553 492 583 b 131 549 267 583 189 569 l 99 690 b 381 728 172 710 279 728 b 686 453 590 728 686 664 m 521 136 l 521 313 b 381 325 482 321 432 325 b 249 224 283 325 249 314 b 379 113 249 128 275 113 b 521 136 429 113 481 122 m 263 789 l 431 968 l 615 968 l 414 789 "},"à":{"ha":778,"x_min":0,"x_max":0,"o":"m 686 36 b 367 -19 597 1 465 -19 b 68 217 143 -19 68 32 b 346 449 68 417 181 449 b 521 429 406 449 461 442 b 344 583 521 553 492 583 b 131 549 267 583 189 569 l 99 690 b 381 728 172 710 279 728 b 686 453 590 728 686 664 m 521 136 l 521 313 b 381 325 482 321 432 325 b 249 224 283 325 249 314 b 379 113 249 128 275 113 b 521 136 429 113 481 122 m 360 789 l 160 968 l 343 968 l 513 789 "},"â":{"ha":778,"x_min":0,"x_max":0,"o":"m 686 36 b 367 -19 597 1 465 -19 b 68 217 143 -19 68 32 b 346 449 68 417 181 449 b 521 429 406 449 461 442 b 344 583 521 553 492 583 b 131 549 267 583 189 569 l 99 690 b 381 728 172 710 279 728 b 686 453 590 728 686 664 m 521 136 l 521 313 b 381 325 482 321 432 325 b 249 224 283 325 249 314 b 379 113 249 128 275 113 b 521 136 429 113 481 122 m 486 789 l 388 894 l 292 789 l 135 789 l 304 968 l 474 968 l 649 789 "},"ä":{"ha":778,"x_min":0,"x_max":0,"o":"m 686 36 b 367 -19 597 1 465 -19 b 68 217 143 -19 68 32 b 346 449 68 417 181 449 b 521 429 406 449 461 442 b 344 583 521 553 492 583 b 131 549 267 583 189 569 l 99 690 b 381 728 172 710 279 728 b 686 453 590 728 686 664 m 521 136 l 521 313 b 381 325 482 321 432 325 b 249 224 283 325 249 314 b 379 113 249 128 275 113 b 521 136 429 113 481 122 m 231 946 b 314 869 293 946 314 936 b 231 783 314 796 293 783 b 149 869 168 783 149 796 b 231 946 149 936 168 946 m 528 946 b 610 869 589 946 610 936 b 528 783 610 796 589 783 b 444 869 464 783 444 796 b 528 946 444 936 464 946 "},"ã":{"ha":778,"x_min":0,"x_max":0,"o":"m 686 36 b 367 -19 597 1 465 -19 b 68 217 143 -19 68 32 b 346 449 68 417 181 449 b 521 429 406 449 461 442 b 344 583 521 553 492 583 b 131 549 267 583 189 569 l 99 690 b 381 728 172 710 279 728 b 686 453 590 728 686 664 m 521 136 l 521 313 b 381 325 482 321 432 325 b 249 224 283 325 249 314 b 379 113 249 128 275 113 b 521 136 429 113 481 122 m 633 906 b 471 776 607 831 554 776 b 275 850 388 776 343 850 b 203 779 247 850 225 833 l 125 856 b 276 968 164 924 207 968 b 474 894 371 968 408 894 b 547 975 507 894 525 913 "},"å":{"ha":778,"x_min":0,"x_max":0,"o":"m 686 36 b 367 -19 597 1 465 -19 b 68 217 143 -19 68 32 b 346 449 68 417 181 449 b 521 429 406 449 461 442 b 344 583 521 553 492 583 b 131 549 267 583 189 569 l 99 690 b 381 728 172 710 279 728 b 686 453 590 728 686 664 m 521 136 l 521 313 b 381 325 482 321 432 325 b 249 224 283 325 249 314 b 379 113 249 128 275 113 b 521 136 429 113 481 122 m 390 1029 b 556 893 501 1029 556 993 b 390 757 556 792 501 757 b 224 893 279 757 224 792 b 390 1029 224 993 272 1029 m 390 950 b 321 890 333 950 321 932 b 390 831 321 850 333 831 b 460 890 447 831 460 851 b 390 950 460 932 447 950 "},"ç":{"ha":653,"x_min":0,"x_max":0,"o":"m 636 17 b 421 -19 581 -6 488 -19 b 71 357 206 -19 71 67 b 421 728 71 646 207 728 b 636 694 489 728 583 714 l 597 547 b 433 578 553 564 490 578 b 249 354 308 578 249 550 b 433 131 249 167 308 131 b 597 164 493 131 553 146 m 429 0 l 429 -58 b 582 -167 538 -58 582 -85 b 392 -282 582 -254 531 -282 b 256 -260 326 -282 290 -275 l 286 -185 b 385 -201 308 -196 346 -201 b 442 -165 428 -201 442 -193 b 311 -129 442 -131 411 -124 l 361 0 "},"é":{"ha":767,"x_min":0,"x_max":0,"o":"m 661 19 b 414 -19 590 -4 486 -19 b 71 357 210 -19 71 67 b 400 728 71 640 194 728 b 708 308 624 728 721 651 l 251 308 b 435 126 253 157 311 126 b 633 156 485 126 578 139 m 410 592 b 253 440 301 592 264 557 l 550 440 b 410 592 544 565 508 592 m 279 789 l 447 968 l 632 968 l 431 789 "},"è":{"ha":767,"x_min":0,"x_max":0,"o":"m 661 19 b 414 -19 590 -4 486 -19 b 71 357 210 -19 71 67 b 400 728 71 640 194 728 b 708 308 624 728 721 651 l 251 308 b 435 126 253 157 311 126 b 633 156 485 126 578 139 m 410 592 b 253 440 301 592 264 557 l 550 440 b 410 592 544 565 508 592 m 389 789 l 189 968 l 372 968 l 542 789 "},"ê":{"ha":767,"x_min":0,"x_max":0,"o":"m 661 19 b 414 -19 590 -4 486 -19 b 71 357 210 -19 71 67 b 400 728 71 640 194 728 b 708 308 624 728 721 651 l 251 308 b 435 126 253 157 311 126 b 633 156 485 126 578 139 m 410 592 b 253 440 301 592 264 557 l 550 440 b 410 592 544 565 508 592 m 506 789 l 407 894 l 311 789 l 154 789 l 324 968 l 493 968 l 668 789 "},"ë":{"ha":767,"x_min":0,"x_max":0,"o":"m 661 19 b 414 -19 590 -4 486 -19 b 71 357 210 -19 71 67 b 400 728 71 640 194 728 b 708 308 624 728 721 651 l 251 308 b 435 126 253 157 311 126 b 633 156 485 126 578 139 m 410 592 b 253 440 301 592 264 557 l 550 440 b 410 592 544 565 508 592 m 258 946 b 342 869 321 946 342 936 b 258 783 342 796 321 783 b 176 869 196 783 176 796 b 258 946 176 936 196 946 m 556 946 b 638 869 617 946 638 936 b 556 783 638 796 617 783 b 472 869 492 783 472 796 b 556 946 472 936 492 946 "},"í":{"ha":364,"x_min":0,"x_max":0,"o":"m 268 0 l 96 0 l 96 707 l 268 707 m 61 789 l 229 968 l 414 968 l 213 789 "},"ì":{"ha":364,"x_min":0,"x_max":0,"o":"m 268 0 l 96 0 l 96 707 l 268 707 m 144 789 l -56 968 l 128 968 l 297 789 "},"î":{"ha":364,"x_min":0,"x_max":0,"o":"m 268 0 l 96 0 l 96 707 l 268 707 m 278 789 l 179 894 l 83 789 l -74 789 l 96 968 l 265 968 l 440 789 "},"ï":{"ha":364,"x_min":0,"x_max":0,"o":"m 268 0 l 96 0 l 96 707 l 268 707 m 35 946 b 118 869 97 946 118 936 b 35 783 118 796 97 783 b -47 869 -28 783 -47 796 b 35 946 -47 936 -28 946 m 332 946 b 414 869 393 946 414 936 b 332 783 414 796 393 783 b 249 869 268 783 249 796 b 332 946 249 936 268 946 "},"ñ":{"ha":810,"x_min":0,"x_max":0,"o":"m 268 0 l 96 0 l 96 667 b 431 728 182 700 318 728 b 718 394 629 728 718 649 l 718 0 l 546 0 l 546 376 b 394 572 546 533 517 572 b 268 556 350 572 310 567 m 657 906 b 494 776 631 831 578 776 b 299 850 411 776 367 850 b 226 779 271 850 249 833 l 149 856 b 300 968 188 924 231 968 b 497 894 394 968 432 894 b 571 975 531 894 549 913 "},"ó":{"ha":817,"x_min":0,"x_max":0,"o":"m 407 -19 b 71 357 182 -19 71 67 b 407 728 71 646 183 728 b 746 357 633 728 746 646 b 407 -19 746 67 635 -19 m 407 589 b 249 354 286 589 249 557 b 407 119 249 158 286 119 b 568 354 531 119 568 158 b 407 589 568 557 531 589 m 275 789 l 443 968 l 628 968 l 426 789 "},"ò":{"ha":817,"x_min":0,"x_max":0,"o":"m 407 -19 b 71 357 182 -19 71 67 b 407 728 71 646 183 728 b 746 357 633 728 746 646 b 407 -19 746 67 635 -19 m 407 589 b 249 354 286 589 249 557 b 407 119 249 158 286 119 b 568 354 531 119 568 158 b 407 589 568 557 531 589 m 399 789 l 199 968 l 382 968 l 551 789 "},"ô":{"ha":817,"x_min":0,"x_max":0,"o":"m 407 -19 b 71 357 182 -19 71 67 b 407 728 71 646 183 728 b 746 357 633 728 746 646 b 407 -19 746 67 635 -19 m 407 589 b 249 354 286 589 249 557 b 407 119 249 158 286 119 b 568 354 531 119 568 158 b 407 589 568 557 531 589 m 500 789 l 401 894 l 306 789 l 149 789 l 318 968 l 488 968 l 663 789 "},"ö":{"ha":817,"x_min":0,"x_max":0,"o":"m 407 -19 b 71 357 182 -19 71 67 b 407 728 71 646 183 728 b 746 357 633 728 746 646 b 407 -19 746 67 635 -19 m 407 589 b 249 354 286 589 249 557 b 407 119 249 158 286 119 b 568 354 531 119 568 158 b 407 589 568 557 531 589 m 258 946 b 342 869 321 946 342 936 b 258 783 342 796 321 783 b 176 869 196 783 176 796 b 258 946 176 936 196 946 m 556 946 b 638 869 617 946 638 936 b 556 783 638 796 617 783 b 472 869 492 783 472 796 b 556 946 472 936 492 946 "},"õ":{"ha":817,"x_min":0,"x_max":0,"o":"m 407 -19 b 71 357 182 -19 71 67 b 407 728 71 646 183 728 b 746 357 633 728 746 646 b 407 -19 746 67 635 -19 m 407 589 b 249 354 286 589 249 557 b 407 119 249 158 286 119 b 568 354 531 119 568 158 b 407 589 568 557 531 589 m 660 906 b 497 776 633 831 581 776 b 301 850 414 776 369 850 b 229 779 274 850 251 833 l 151 856 b 303 968 190 924 233 968 b 500 894 397 968 435 894 b 574 975 533 894 551 913 "},"ú":{"ha":810,"x_min":0,"x_max":0,"o":"m 542 707 l 714 707 l 714 40 b 379 -21 626 7 492 -21 b 92 313 181 -21 92 58 l 92 707 l 264 707 l 264 331 b 414 135 264 174 293 135 b 542 153 460 135 500 140 m 278 789 l 446 968 l 631 968 l 429 789 "},"ù":{"ha":810,"x_min":0,"x_max":0,"o":"m 542 707 l 714 707 l 714 40 b 379 -21 626 7 492 -21 b 92 313 181 -21 92 58 l 92 707 l 264 707 l 264 331 b 414 135 264 174 293 135 b 542 153 460 135 500 140 m 389 789 l 189 968 l 372 968 l 542 789 "},"û":{"ha":810,"x_min":0,"x_max":0,"o":"m 542 707 l 714 707 l 714 40 b 379 -21 626 7 492 -21 b 92 313 181 -21 92 58 l 92 707 l 264 707 l 264 331 b 414 135 264 174 293 135 b 542 153 460 135 500 140 m 507 789 l 408 894 l 313 789 l 156 789 l 325 968 l 494 968 l 669 789 "},"ü":{"ha":810,"x_min":0,"x_max":0,"o":"m 542 707 l 714 707 l 714 40 b 379 -21 626 7 492 -21 b 92 313 181 -21 92 58 l 92 707 l 264 707 l 264 331 b 414 135 264 174 293 135 b 542 153 460 135 500 140 m 260 946 b 343 869 322 946 343 936 b 260 783 343 796 322 783 b 178 869 197 783 178 796 b 260 946 178 936 197 946 m 557 946 b 639 869 618 946 639 936 b 557 783 639 796 618 783 b 474 869 493 783 474 796 b 557 946 474 936 493 946 "},"¢":{"ha":636,"x_min":0,"x_max":0,"o":"m 475 1043 l 475 899 b 624 869 524 894 585 883 l 585 733 b 475 756 554 747 513 754 l 475 300 b 585 325 513 303 554 311 l 624 192 b 475 158 583 174 524 163 l 475 -10 l 339 -10 l 339 158 b 71 532 174 181 71 278 b 339 896 71 783 175 876 l 339 1043 m 236 528 b 339 319 236 394 269 339 l 339 738 b 236 528 269 719 236 668 "},"£":{"ha":847,"x_min":0,"x_max":0,"o":"m 50 553 l 132 553 l 132 663 b 519 990 132 881 249 990 b 815 947 625 990 739 974 l 775 790 b 519 824 721 808 617 824 b 315 674 365 824 315 778 l 315 553 l 589 553 l 589 407 l 315 407 l 315 158 l 786 158 l 786 0 l 132 0 l 132 407 l 50 407 "},"§":{"ha":864,"x_min":0,"x_max":0,"o":"m 728 800 b 483 833 676 818 576 833 b 272 711 336 833 272 799 b 478 599 272 643 308 614 b 810 333 693 576 810 503 b 746 168 810 272 783 214 b 796 18 779 132 796 82 b 388 -282 796 -193 644 -282 b 106 -240 288 -282 178 -265 l 143 -90 b 388 -124 194 -110 294 -124 b 599 -3 536 -124 599 -89 b 394 111 599 65 564 96 b 63 375 179 132 63 207 b 122 544 63 439 85 497 b 76 690 92 581 76 628 b 485 992 76 901 226 992 b 765 950 585 992 693 975 m 271 464 b 246 385 256 444 246 419 b 479 267 246 314 288 283 b 600 244 528 264 568 256 b 625 324 615 264 625 289 b 392 442 625 396 583 426 b 271 464 343 446 303 451 "},"¶":{"ha":935,"x_min":0,"x_max":0,"o":"m 650 0 l 650 319 l 531 319 l 531 0 l 368 0 l 368 319 l 304 319 b 39 636 117 319 39 469 b 307 968 39 825 103 968 l 811 968 l 811 0 "},"®":{"ha":793,"x_min":0,"x_max":0,"o":"m 571 711 b 476 600 571 626 536 600 b 561 464 508 585 542 551 l 443 464 b 381 569 433 514 401 569 l 354 569 l 354 464 l 246 464 l 246 833 l 472 833 b 571 711 542 833 571 778 m 458 706 b 429 744 458 728 451 744 l 354 744 l 354 664 l 429 664 b 458 706 451 664 458 681 m 728 647 b 396 301 728 382 622 301 b 65 647 169 301 65 382 b 396 990 65 917 172 990 b 728 647 621 990 728 917 m 614 647 b 396 889 614 856 558 889 b 181 647 238 889 181 856 b 396 406 181 451 238 406 b 614 647 558 406 614 451 "},"©":{"ha":1163,"x_min":0,"x_max":0,"o":"m 581 992 b 1079 493 910 992 1079 886 b 581 -19 1079 93 910 -19 b 83 493 251 -19 83 93 b 581 992 83 886 253 992 m 581 108 b 926 492 838 108 926 168 b 581 864 926 814 838 864 b 236 492 325 864 236 814 b 581 108 236 168 325 108 m 793 218 b 613 188 744 200 674 188 b 322 490 415 188 322 247 b 613 789 322 733 415 789 b 793 763 675 789 747 778 l 761 638 b 621 660 725 651 667 660 b 479 489 517 660 479 638 b 621 317 479 347 517 317 b 761 342 669 317 725 326 "},"™":{"ha":1144,"x_min":0,"x_max":0,"o":"m 168 469 l 168 860 l 10 860 l 10 968 l 449 968 l 449 860 l 292 860 l 292 469 m 790 631 l 913 968 l 1068 968 l 1068 469 l 951 469 l 951 817 l 831 489 l 735 489 l 618 817 l 618 469 l 501 469 l 501 968 l 664 968 "},"´":{"ha":668,"x_min":0,"x_max":0,"o":"m 129 789 l 297 968 l 482 968 l 281 789 "},"¨":{"ha":642,"x_min":0,"x_max":0,"o":"m 165 946 b 249 869 228 946 249 936 b 165 783 249 796 228 783 b 83 869 103 783 83 796 b 165 946 83 936 103 946 m 463 946 b 544 869 524 946 544 936 b 463 783 544 796 524 783 b 379 869 399 783 379 796 b 463 946 379 936 399 946 "},"≠":{"ha":808,"x_min":0,"x_max":0,"o":"m 700 900 l 628 768 l 742 768 l 742 604 l 543 604 l 433 397 l 742 397 l 742 233 l 350 233 l 278 100 l 107 100 l 178 233 l 67 233 l 67 397 l 263 397 l 372 604 l 67 604 l 67 768 l 456 768 l 528 900 "},"Æ":{"ha":1346,"x_min":0,"x_max":0,"o":"m 1308 968 l 1308 810 l 789 810 l 789 586 l 1097 586 l 1097 431 l 789 431 l 789 158 l 1308 158 l 1308 0 l 607 0 l 607 242 l 175 242 b 19 0 118 156 65 74 l -200 0 b 479 968 -11 289 261 679 m 568 813 b 278 399 478 688 376 544 l 607 399 l 607 813 "},"Ø":{"ha":1069,"x_min":0,"x_max":0,"o":"m 1049 968 l 926 828 b 994 493 972 751 994 643 b 535 -19 994 93 842 -19 b 247 43 414 -19 318 -1 l 210 0 l 24 0 l 146 140 b 74 493 97 219 74 333 b 535 992 74 886 228 992 b 826 926 657 992 754 974 l 861 968 m 535 826 b 269 536 336 826 269 783 b 289 303 269 467 275 363 l 707 790 b 535 826 668 818 613 826 m 535 146 b 801 444 735 146 801 196 b 782 663 801 511 796 604 l 368 182 b 535 146 406 154 460 146 "},"¥":{"ha":886,"x_min":0,"x_max":0,"o":"m 113 514 l 290 514 b -53 968 171 681 47 846 l 186 968 b 456 599 268 865 364 733 b 711 968 553 729 644 861 l 933 968 b 614 514 840 828 729 669 l 781 514 l 781 386 l 543 386 l 543 278 l 781 278 l 781 150 l 543 150 l 543 0 l 360 0 l 360 150 l 113 150 l 113 278 l 360 278 l 360 386 l 113 386 "},"∑":{"ha":864,"x_min":0,"x_max":0,"o":"m 547 479 b 315 157 465 357 385 244 l 831 157 l 831 0 l 6 0 b 333 481 97 124 222 313 b 26 968 221 651 101 843 l 826 968 l 826 810 l 331 810 b 547 479 386 724 464 604 "},"æ":{"ha":1206,"x_min":0,"x_max":0,"o":"m 1100 19 b 853 -19 1029 -4 925 -19 b 647 31 765 -19 697 -4 b 367 -19 578 -3 454 -19 b 68 217 143 -19 68 32 b 346 449 68 417 182 449 b 521 429 406 449 461 442 b 344 581 521 553 494 581 b 131 549 267 581 189 569 l 99 690 b 381 728 172 710 279 728 b 615 643 500 728 574 706 b 839 728 660 704 732 728 b 1147 308 1063 728 1160 651 l 690 308 b 874 126 692 157 750 126 b 1072 156 924 126 1017 139 m 546 146 b 518 313 522 203 518 254 b 382 325 481 321 433 325 b 250 224 285 325 250 314 b 381 113 250 135 268 113 b 546 146 431 113 510 126 m 849 592 b 692 440 744 592 703 561 l 989 440 b 849 592 983 565 947 592 "},"ø":{"ha":817,"x_min":0,"x_max":0,"o":"m 796 707 l 700 597 b 746 357 731 540 746 464 b 407 -19 746 67 635 -19 b 203 24 322 -19 254 -6 l 182 0 l 22 0 l 118 110 b 71 357 86 167 71 247 b 407 728 71 646 183 728 b 614 685 493 728 563 715 l 635 707 m 407 588 b 249 388 292 588 251 560 b 258 268 249 340 251 301 l 511 565 b 407 588 486 582 453 588 m 407 121 b 565 335 535 121 565 178 b 558 436 565 372 564 404 l 307 142 b 407 121 329 125 363 121 "},"¬":{"ha":721,"x_min":0,"x_max":0,"o":"m 493 0 l 493 432 l 40 432 l 40 594 l 675 594 l 675 0 "},"…":{"ha":1585,"x_min":0,"x_max":0,"o":"m 303 199 b 414 101 388 199 414 186 b 303 -7 414 10 388 -7 b 196 101 222 -7 196 10 b 303 199 196 186 222 199 m 790 199 b 900 101 874 199 900 186 b 790 -7 900 10 874 -7 b 682 101 710 -7 682 10 b 790 199 682 186 710 199 m 1278 199 b 1389 101 1363 199 1389 186 b 1278 -7 1389 10 1363 -7 b 1171 101 1199 -7 1171 10 b 1278 199 1171 186 1199 199 "},"Õ":{"ha":1069,"x_min":0,"x_max":0,"o":"m 535 992 b 994 493 842 992 994 886 b 535 -19 994 93 842 -19 b 74 493 226 -19 74 93 b 535 992 74 886 228 992 m 535 146 b 800 490 747 146 800 199 b 535 826 800 783 747 826 b 269 490 322 826 269 783 b 535 146 269 199 322 146 m 789 1151 b 622 1022 763 1079 704 1022 b 424 1097 540 1022 489 1097 b 353 1028 396 1097 374 1081 l 275 1104 b 424 1214 313 1169 356 1214 b 629 1142 518 1214 565 1142 b 704 1221 661 1142 682 1160 "},"Œ":{"ha":1525,"x_min":0,"x_max":0,"o":"m 1489 968 l 1489 810 l 929 810 b 992 586 964 758 985 685 l 1278 586 l 1278 431 l 992 431 b 922 158 989 304 965 217 l 1489 158 l 1489 0 l 719 0 b 535 -19 667 -14 604 -19 b 74 493 226 -19 74 93 b 535 992 74 886 228 992 b 739 968 613 992 681 985 m 535 146 b 800 490 747 146 800 199 b 535 826 800 783 747 826 b 269 490 322 826 269 783 b 535 146 269 199 322 146 "},"œ":{"ha":1260,"x_min":0,"x_max":0,"o":"m 1154 19 b 906 -19 1082 -4 979 -19 b 658 76 793 -19 711 6 b 407 -19 610 6 529 -19 b 71 357 182 -19 71 67 b 407 728 71 646 183 728 b 656 638 525 728 606 704 b 892 728 704 700 781 728 b 1200 308 1115 728 1214 651 l 743 308 b 926 126 746 157 804 126 b 1125 156 978 126 1071 139 m 407 589 b 249 354 286 589 249 557 b 407 119 249 158 286 119 b 568 354 531 119 568 158 b 407 589 568 557 531 589 m 903 592 b 744 440 799 592 757 561 l 1042 440 b 903 592 1038 565 1001 592 "},"–":{"ha":803,"x_min":0,"x_max":0,"o":"m 68 472 l 735 472 l 735 308 l 68 308 "},"—":{"ha":1201,"x_min":0,"x_max":0,"o":"m 68 472 l 1133 472 l 1133 308 l 68 308 "},"ÿ":{"ha":710,"x_min":0,"x_max":0,"o":"m 250 -35 b 0 707 181 217 88 496 l 179 707 b 354 171 242 551 306 353 b 529 707 421 347 485 532 l 704 707 b 436 -29 633 465 539 213 b 326 -267 403 -108 363 -197 l 135 -267 b 250 -35 172 -200 215 -111 m 211 946 b 294 869 274 946 294 936 b 211 783 294 796 274 783 b 129 869 149 783 129 796 b 211 946 129 936 149 946 m 508 946 b 590 869 569 946 590 936 b 508 783 590 796 569 783 b 425 869 444 783 425 796 b 508 946 425 936 444 946 "},"Ÿ":{"ha":886,"x_min":0,"x_max":0,"o":"m 186 968 b 456 599 268 865 364 733 b 711 968 553 729 644 861 l 933 968 b 543 418 822 801 682 603 l 543 0 l 360 0 l 360 417 b -53 968 221 614 64 826 l 186 968 m 307 1200 b 389 1122 369 1200 389 1189 b 307 1038 389 1050 369 1038 b 224 1122 244 1038 224 1050 b 307 1200 224 1189 244 1200 m 603 1200 b 685 1122 665 1200 685 1189 b 603 1038 685 1050 665 1038 b 519 1122 539 1038 519 1050 b 603 1200 519 1189 539 1200 "},"⁄":{"ha":824,"x_min":0,"x_max":0,"o":"m 801 968 l 192 0 l 31 0 l 639 968 "},"ﬁ":{"ha":825,"x_min":0,"x_max":0,"o":"m 729 0 l 557 0 l 557 557 l 297 557 l 297 0 l 125 0 l 125 557 l 7 557 l 7 707 l 125 707 l 125 749 b 457 1006 125 957 263 1006 b 719 963 551 1006 646 989 l 679 828 b 479 858 629 844 556 858 b 297 739 368 858 297 839 l 297 707 l 729 707 "},"·":{"ha":413,"x_min":0,"x_max":0,"o":"m 204 526 b 324 421 296 526 324 511 b 204 304 324 322 296 304 b 89 421 118 304 89 322 b 204 526 89 511 118 526 "},"Ê":{"ha":861,"x_min":0,"x_max":0,"o":"m 825 968 l 825 810 l 306 810 l 306 586 l 676 586 l 676 429 l 306 429 l 306 158 l 825 158 l 825 0 l 122 0 l 122 968 m 482 1146 l 385 1038 l 229 1038 l 399 1217 l 568 1217 l 743 1038 l 582 1038 "},"Ë":{"ha":861,"x_min":0,"x_max":0,"o":"m 825 968 l 825 810 l 306 810 l 306 586 l 676 586 l 676 429 l 306 429 l 306 158 l 825 158 l 825 0 l 122 0 l 122 968 m 335 1200 b 417 1122 397 1200 417 1189 b 335 1038 417 1050 397 1038 b 251 1122 272 1038 251 1050 b 335 1200 251 1189 272 1200 m 631 1200 b 713 1122 693 1200 713 1189 b 631 1038 713 1050 693 1038 b 547 1122 567 1038 547 1050 b 631 1200 547 1189 567 1200 "},"È":{"ha":861,"x_min":0,"x_max":0,"o":"m 825 968 l 825 810 l 306 810 l 306 586 l 676 586 l 676 429 l 306 429 l 306 158 l 825 158 l 825 0 l 122 0 l 122 968 m 499 1038 l 279 1217 l 469 1217 l 657 1038 "},"Í":{"ha":428,"x_min":0,"x_max":0,"o":"m 306 968 l 306 0 l 122 0 l 122 968 m 97 1038 l 276 1217 l 467 1217 l 247 1038 "},"Î":{"ha":428,"x_min":0,"x_max":0,"o":"m 306 968 l 306 0 l 122 0 l 122 968 m 211 1146 l 114 1038 l -42 1038 l 128 1217 l 297 1217 l 472 1038 l 311 1038 "},"Ï":{"ha":428,"x_min":0,"x_max":0,"o":"m 306 968 l 306 0 l 122 0 l 122 968 m 68 1200 b 150 1122 131 1200 150 1189 b 68 1038 150 1050 131 1038 b -15 1122 6 1038 -15 1050 b 68 1200 -15 1189 6 1200 m 364 1200 b 446 1122 426 1200 446 1189 b 364 1038 446 1050 426 1038 b 281 1122 300 1038 281 1050 b 364 1200 281 1189 300 1200 "},"Ì":{"ha":428,"x_min":0,"x_max":0,"o":"m 306 968 l 306 0 l 122 0 l 122 968 m 178 1038 l -42 1217 l 149 1217 l 336 1038 "},"Ó":{"ha":1069,"x_min":0,"x_max":0,"o":"m 535 992 b 994 493 842 992 994 886 b 535 -19 994 93 842 -19 b 74 493 226 -19 74 93 b 535 992 74 886 228 992 m 535 146 b 800 490 747 146 800 199 b 535 826 800 783 747 826 b 269 490 322 826 269 783 b 535 146 269 199 322 146 m 350 1038 l 529 1217 l 719 1217 l 500 1038 "},"Ô":{"ha":1069,"x_min":0,"x_max":0,"o":"m 535 992 b 994 493 842 992 994 886 b 535 -19 994 93 842 -19 b 74 493 226 -19 74 93 b 535 992 74 886 228 992 m 535 146 b 800 490 747 146 800 199 b 535 826 800 783 747 826 b 269 490 322 826 269 783 b 535 146 269 199 322 146 m 529 1146 l 432 1038 l 276 1038 l 446 1217 l 615 1217 l 790 1038 l 629 1038 "},"Ò":{"ha":1069,"x_min":0,"x_max":0,"o":"m 535 992 b 994 493 842 992 994 886 b 535 -19 994 93 842 -19 b 74 493 226 -19 74 93 b 535 992 74 886 228 992 m 535 146 b 800 490 747 146 800 199 b 535 826 800 783 747 826 b 269 490 322 826 269 783 b 535 146 269 199 322 146 m 514 1038 l 294 1217 l 485 1217 l 672 1038 "},"Ú":{"ha":1031,"x_min":0,"x_max":0,"o":"m 922 293 b 515 -19 922 39 768 -19 b 108 293 263 -19 108 39 l 108 968 l 293 968 l 293 321 b 515 149 293 192 350 149 b 739 321 672 149 739 185 l 739 968 l 921 968 m 367 1038 l 546 1217 l 736 1217 l 517 1038 "},"Û":{"ha":1031,"x_min":0,"x_max":0,"o":"m 922 293 b 515 -19 922 39 768 -19 b 108 293 263 -19 108 39 l 108 968 l 293 968 l 293 321 b 515 149 293 192 350 149 b 739 321 672 149 739 185 l 739 968 l 921 968 m 508 1146 l 411 1038 l 256 1038 l 425 1217 l 594 1217 l 769 1038 l 608 1038 "},"Ù":{"ha":1031,"x_min":0,"x_max":0,"o":"m 922 293 b 515 -19 922 39 768 -19 b 108 293 263 -19 108 39 l 108 968 l 293 968 l 293 321 b 515 149 293 192 350 149 b 739 321 672 149 739 185 l 739 968 l 921 968 m 517 1038 l 297 1217 l 488 1217 l 675 1038 "},"ı":{"ha":364,"x_min":0,"x_max":0,"o":"m 268 0 l 96 0 l 96 707 l 268 707 "},"ˆ":{"ha":917,"x_min":0,"x_max":0,"o":"m 569 789 l 471 894 l 375 789 l 218 789 l 388 968 l 557 968 l 732 789 "},"˜":{"ha":993,"x_min":0,"x_max":0,"o":"m 706 906 b 543 776 679 831 626 776 b 347 850 460 776 415 850 b 275 779 319 850 297 833 l 197 856 b 349 968 236 924 279 968 b 546 894 443 968 481 894 b 619 975 579 894 597 913 "},"¯":{"ha":722,"x_min":0,"x_max":0,"o":"m 171 925 l 557 925 l 557 800 l 171 800 "},"˘":{"ha":728,"x_min":0,"x_max":0,"o":"m 249 968 b 340 888 249 903 279 888 b 433 968 400 888 433 903 l 544 968 b 336 778 544 836 471 778 b 131 968 206 778 131 836 "},"˙":{"ha":642,"x_min":0,"x_max":0,"o":"m 258 946 b 342 869 321 946 342 936 b 258 783 342 796 321 783 b 176 869 196 783 176 796 b 258 946 176 936 196 946 "},"˚":{"ha":992,"x_min":0,"x_max":0,"o":"m 500 1029 b 665 893 611 1029 665 993 b 500 757 665 792 611 757 b 333 893 389 757 333 792 b 500 1029 333 993 382 1029 m 500 950 b 431 890 443 950 431 932 b 500 831 431 850 443 831 b 569 890 557 831 569 851 b 500 950 569 932 557 950 "},"˝":{"ha":764,"x_min":0,"x_max":0,"o":"m 226 789 l 353 968 l 504 968 l 344 789 m 454 789 l 581 968 l 732 968 l 574 789 "},"˛":{"ha":890,"x_min":0,"x_max":0,"o":"m 669 17 b 553 -128 572 -42 553 -75 b 636 -183 553 -167 568 -183 b 751 -146 681 -183 725 -168 l 800 -233 b 618 -282 756 -267 679 -282 b 435 -158 476 -282 435 -240 b 615 17 435 -85 492 -17 "},"ˇ":{"ha":908,"x_min":0,"x_max":0,"o":"m 381 968 l 479 863 l 575 968 l 732 968 l 563 789 l 393 789 l 218 968 "},"Ā":{"ha":947,"x_min":0,"x_max":0,"o":"m 771 0 b 678 242 743 69 710 153 l 254 242 b 179 0 226 156 201 74 l -12 0 b 338 968 78 289 219 679 l 625 968 b 974 0 724 657 865 258 l 771 0 m 453 813 b 303 399 404 688 353 544 l 625 399 b 490 813 575 542 528 688 m 281 1174 l 667 1174 l 667 1046 l 281 1046 "},"Ą":{"ha":947,"x_min":0,"x_max":0,"o":"m 771 0 b 678 242 743 69 710 153 l 254 242 b 179 0 226 156 201 74 l -12 0 b 338 968 78 289 219 679 l 625 968 b 974 0 724 657 865 258 l 771 0 m 453 813 b 303 399 404 688 353 544 l 625 399 b 490 813 575 542 528 688 m 929 17 b 813 -128 832 -42 813 -75 b 896 -183 813 -167 828 -183 b 1011 -146 940 -183 985 -168 l 1060 -233 b 878 -282 1015 -267 939 -282 b 694 -158 736 -282 694 -240 b 875 17 694 -85 751 -17 "},"Ć":{"ha":822,"x_min":0,"x_max":0,"o":"m 74 493 b 528 992 74 889 221 992 b 806 956 617 992 731 976 l 765 794 b 560 825 715 813 625 825 b 269 492 349 825 269 789 b 560 149 269 194 349 149 b 765 179 625 149 715 161 l 806 15 b 528 -19 731 -6 617 -19 b 74 493 221 -19 74 99 m 340 1038 l 519 1217 l 710 1217 l 490 1038 "},"Č":{"ha":822,"x_min":0,"x_max":0,"o":"m 74 493 b 528 992 74 889 221 992 b 806 956 617 992 731 976 l 765 794 b 560 825 715 813 625 825 b 269 492 349 825 269 789 b 560 149 269 194 349 149 b 765 179 625 149 715 161 l 806 15 b 528 -19 731 -6 617 -19 b 74 493 221 -19 74 99 m 507 1108 l 604 1217 l 760 1217 l 590 1038 l 421 1038 l 246 1217 l 406 1217 "},"Ĉ":{"ha":822,"x_min":0,"x_max":0,"o":"m 74 493 b 528 992 74 889 221 992 b 806 956 617 992 731 976 l 765 794 b 560 825 715 813 625 825 b 269 492 349 825 269 789 b 560 149 269 194 349 149 b 765 179 625 149 715 161 l 806 15 b 528 -19 731 -6 617 -19 b 74 493 221 -19 74 99 m 517 1146 l 419 1038 l 264 1038 l 433 1217 l 603 1217 l 778 1038 l 617 1038 "},"Ċ":{"ha":822,"x_min":0,"x_max":0,"o":"m 74 493 b 528 992 74 889 221 992 b 806 956 617 992 731 976 l 765 794 b 560 825 715 813 625 825 b 269 492 349 825 269 789 b 560 149 269 194 349 149 b 765 179 625 149 715 161 l 806 15 b 528 -19 731 -6 617 -19 b 74 493 221 -19 74 99 m 521 1204 b 604 1126 583 1204 604 1193 b 521 1042 604 1054 583 1042 b 439 1126 458 1042 439 1054 b 521 1204 439 1193 458 1204 "},"Ď":{"ha":1022,"x_min":0,"x_max":0,"o":"m 492 968 b 949 488 799 968 949 864 b 492 0 949 113 799 0 l 122 0 l 122 968 m 753 486 b 474 810 753 771 688 810 l 306 810 l 306 158 l 474 158 b 753 486 688 158 753 213 m 478 1108 l 575 1217 l 731 1217 l 561 1038 l 392 1038 l 217 1217 l 376 1217 "},"Ĕ":{"ha":861,"x_min":0,"x_max":0,"o":"m 825 968 l 825 810 l 306 810 l 306 586 l 676 586 l 676 429 l 306 429 l 306 158 l 825 158 l 825 0 l 122 0 l 122 968 m 399 1210 b 490 1129 399 1144 429 1129 b 583 1210 550 1129 583 1144 l 694 1210 b 486 1019 694 1078 621 1019 b 281 1210 356 1019 281 1078 "},"Ě":{"ha":861,"x_min":0,"x_max":0,"o":"m 825 968 l 825 810 l 306 810 l 306 586 l 676 586 l 676 429 l 306 429 l 306 158 l 825 158 l 825 0 l 122 0 l 122 968 m 490 1108 l 588 1217 l 743 1217 l 574 1038 l 404 1038 l 229 1217 l 389 1217 "},"Ė":{"ha":861,"x_min":0,"x_max":0,"o":"m 825 968 l 825 810 l 306 810 l 306 586 l 676 586 l 676 429 l 306 429 l 306 158 l 825 158 l 825 0 l 122 0 l 122 968 m 503 1204 b 586 1126 565 1204 586 1193 b 503 1042 586 1054 565 1042 b 421 1126 440 1042 421 1054 b 503 1204 421 1193 440 1204 "},"Ē":{"ha":861,"x_min":0,"x_max":0,"o":"m 825 968 l 825 810 l 306 810 l 306 586 l 676 586 l 676 429 l 306 429 l 306 158 l 825 158 l 825 0 l 122 0 l 122 968 m 282 1174 l 668 1174 l 668 1046 l 282 1046 "},"Ę":{"ha":861,"x_min":0,"x_max":0,"o":"m 825 968 l 825 810 l 306 810 l 306 586 l 676 586 l 676 429 l 306 429 l 306 158 l 825 158 l 825 0 l 122 0 l 122 968 m 786 17 b 669 -128 689 -42 669 -75 b 753 -183 669 -167 685 -183 b 868 -146 797 -183 842 -168 l 917 -233 b 735 -282 872 -267 796 -282 b 551 -158 593 -282 551 -240 b 732 17 551 -85 608 -17 "},"Ğ":{"ha":972,"x_min":0,"x_max":0,"o":"m 685 411 l 474 411 l 474 565 l 872 565 l 872 22 b 528 -19 793 -3 640 -19 b 74 493 221 -19 74 99 b 554 992 74 889 239 992 b 846 956 642 992 771 976 l 808 796 b 568 825 757 814 633 825 b 269 492 349 825 269 789 b 560 147 269 194 349 147 b 685 161 606 147 656 154 m 439 1210 b 531 1129 439 1144 469 1129 b 624 1210 590 1129 624 1144 l 735 1210 b 526 1019 735 1078 661 1019 b 321 1210 396 1019 321 1078 "},"Ĝ":{"ha":972,"x_min":0,"x_max":0,"o":"m 685 411 l 474 411 l 474 565 l 872 565 l 872 22 b 528 -19 793 -3 640 -19 b 74 493 221 -19 74 99 b 554 992 74 889 239 992 b 846 956 642 992 771 976 l 808 796 b 568 825 757 814 633 825 b 269 492 349 825 269 789 b 560 147 269 194 349 147 b 685 161 606 147 656 154 m 529 1146 l 432 1038 l 276 1038 l 446 1217 l 615 1217 l 790 1038 l 629 1038 "},"Ģ":{"ha":972,"x_min":0,"x_max":0,"o":"m 685 411 l 474 411 l 474 565 l 872 565 l 872 22 b 528 -19 793 -3 640 -19 b 74 493 221 -19 74 99 b 554 992 74 889 239 992 b 846 956 642 992 771 976 l 808 796 b 568 825 757 814 633 825 b 269 492 349 825 269 789 b 560 147 269 194 349 147 b 685 161 606 147 656 154 m 507 -303 l 372 -303 l 471 -71 l 657 -71 "},"Ġ":{"ha":972,"x_min":0,"x_max":0,"o":"m 685 411 l 474 411 l 474 565 l 872 565 l 872 22 b 528 -19 793 -3 640 -19 b 74 493 221 -19 74 99 b 554 992 74 889 239 992 b 846 956 642 992 771 976 l 808 796 b 568 825 757 814 633 825 b 269 492 349 825 269 789 b 560 147 269 194 349 147 b 685 161 606 147 656 154 m 543 1204 b 626 1126 606 1204 626 1193 b 543 1042 626 1054 606 1042 b 461 1126 481 1042 461 1054 b 543 1204 461 1193 481 1204 "},"Ħ":{"ha":1022,"x_min":0,"x_max":0,"o":"m 40 868 l 122 868 l 122 968 l 306 968 l 306 868 l 719 868 l 719 968 l 900 968 l 900 868 l 983 868 l 983 722 l 900 722 l 900 0 l 719 0 l 719 429 l 306 429 l 306 0 l 122 0 l 122 722 l 40 722 m 719 599 l 719 722 l 306 722 l 306 599 "},"Ĥ":{"ha":1022,"x_min":0,"x_max":0,"o":"m 306 0 l 122 0 l 122 968 l 306 968 l 306 599 l 719 599 l 719 968 l 900 968 l 900 0 l 719 0 l 719 429 l 306 429 m 503 1146 l 406 1038 l 250 1038 l 419 1217 l 589 1217 l 764 1038 l 603 1038 "},"Ĳ":{"ha":1067,"x_min":0,"x_max":0,"o":"m 306 968 l 306 0 l 122 0 l 122 968 m 947 267 b 654 -19 947 36 800 -19 b 435 18 575 -19 494 -4 l 471 182 b 636 153 515 164 578 153 b 763 290 706 153 763 181 l 763 968 l 947 968 "},"Ī":{"ha":428,"x_min":0,"x_max":0,"o":"m 306 968 l 306 0 l 122 0 l 122 968 m 22 1174 l 408 1174 l 408 1046 l 22 1046 "},"Į":{"ha":428,"x_min":0,"x_max":0,"o":"m 306 968 l 306 0 l 122 0 l 122 968 m 267 17 b 150 -128 169 -42 150 -75 b 233 -183 150 -167 165 -183 b 349 -146 278 -183 322 -168 l 397 -233 b 215 -282 353 -267 276 -282 b 32 -158 74 -282 32 -240 b 213 17 32 -85 89 -17 "},"Ĩ":{"ha":428,"x_min":0,"x_max":0,"o":"m 306 968 l 306 0 l 122 0 l 122 968 m 471 1151 b 304 1022 444 1079 386 1022 b 106 1097 222 1022 171 1097 b 35 1028 78 1097 56 1081 l -43 1104 b 106 1214 -6 1169 38 1214 b 311 1142 200 1214 247 1142 b 386 1221 343 1142 364 1160 "},"Ĵ":{"ha":640,"x_min":0,"x_max":0,"o":"m 522 267 b 228 -19 522 36 375 -19 b 8 18 149 -19 69 -4 l 44 182 b 210 153 90 164 151 153 b 336 290 279 153 336 181 l 336 968 l 521 968 m 422 1146 l 325 1038 l 169 1038 l 339 1217 l 508 1217 l 683 1038 l 522 1038 "},"Ķ":{"ha":919,"x_min":0,"x_max":0,"o":"m 306 0 l 122 0 l 122 968 l 306 968 m 713 0 b 307 511 518 321 363 489 b 685 968 367 554 515 718 l 907 968 b 542 524 729 718 590 564 b 938 0 589 492 744 321 m 431 -303 l 296 -303 l 394 -71 l 581 -71 "},"Ĺ":{"ha":765,"x_min":0,"x_max":0,"o":"m 306 968 l 306 160 l 763 160 l 763 0 l 122 0 l 122 968 m 138 1038 l 317 1217 l 507 1217 l 288 1038 "},"Ľ":{"ha":765,"x_min":0,"x_max":0,"o":"m 306 968 l 306 160 l 763 160 l 763 0 l 122 0 l 122 968 m 593 1003 l 514 736 l 413 736 l 440 1003 "},"Ļ":{"ha":765,"x_min":0,"x_max":0,"o":"m 306 968 l 306 160 l 763 160 l 763 0 l 122 0 l 122 968 m 399 -303 l 264 -303 l 363 -71 l 549 -71 "},"Ń":{"ha":1075,"x_min":0,"x_max":0,"o":"m 951 0 l 728 0 b 301 729 597 242 453 489 l 301 0 l 122 0 l 122 968 l 363 968 b 769 269 503 747 643 506 l 769 968 l 951 968 m 414 1038 l 593 1217 l 783 1217 l 564 1038 "},"Ň":{"ha":1075,"x_min":0,"x_max":0,"o":"m 951 0 l 728 0 b 301 729 597 242 453 489 l 301 0 l 122 0 l 122 968 l 363 968 b 769 269 503 747 643 506 l 769 968 l 951 968 m 557 1108 l 654 1217 l 810 1217 l 640 1038 l 471 1038 l 296 1217 l 456 1217 "},"Ņ":{"ha":1075,"x_min":0,"x_max":0,"o":"m 951 0 l 728 0 b 301 729 597 242 453 489 l 301 0 l 122 0 l 122 968 l 363 968 b 769 269 503 747 643 506 l 769 968 l 951 968 m 489 -303 l 354 -303 l 453 -71 l 639 -71 "},"Ŏ":{"ha":1069,"x_min":0,"x_max":0,"o":"m 535 992 b 994 493 842 992 994 886 b 535 -19 994 93 842 -19 b 74 493 226 -19 74 93 b 535 992 74 886 228 992 m 535 146 b 800 490 747 146 800 199 b 535 826 800 783 747 826 b 269 490 322 826 269 783 b 535 146 269 199 322 146 m 446 1210 b 538 1129 446 1144 476 1129 b 631 1210 597 1129 631 1144 l 742 1210 b 533 1019 742 1078 668 1019 b 328 1210 403 1019 328 1078 "},"Ő":{"ha":1069,"x_min":0,"x_max":0,"o":"m 535 992 b 994 493 842 992 994 886 b 535 -19 994 93 842 -19 b 74 493 226 -19 74 93 b 535 992 74 886 228 992 m 535 146 b 800 490 747 146 800 199 b 535 826 800 783 747 826 b 269 490 322 826 269 783 b 535 146 269 199 322 146 m 313 1038 l 439 1217 l 590 1217 l 431 1038 m 540 1038 l 667 1217 l 818 1217 l 660 1038 "},"Ō":{"ha":1069,"x_min":0,"x_max":0,"o":"m 535 992 b 994 493 842 992 994 886 b 535 -19 994 93 842 -19 b 74 493 226 -19 74 93 b 535 992 74 886 228 992 m 535 146 b 800 490 747 146 800 199 b 535 826 800 783 747 826 b 269 490 322 826 269 783 b 535 146 269 199 322 146 m 342 1174 l 728 1174 l 728 1046 l 342 1046 "},"Ŕ":{"ha":981,"x_min":0,"x_max":0,"o":"m 306 521 l 579 521 b 692 663 650 521 692 568 b 583 813 692 764 651 813 l 306 813 m 642 421 b 965 0 708 397 796 283 l 739 0 b 435 369 588 265 497 369 l 306 369 l 306 0 l 122 0 l 122 968 l 626 968 b 896 686 831 968 896 842 b 642 421 896 547 835 428 m 326 1038 l 506 1217 l 696 1217 l 476 1038 "},"Ř":{"ha":981,"x_min":0,"x_max":0,"o":"m 306 521 l 579 521 b 692 663 650 521 692 568 b 583 813 692 764 651 813 l 306 813 m 642 421 b 965 0 708 397 796 283 l 739 0 b 435 369 588 265 497 369 l 306 369 l 306 0 l 122 0 l 122 968 l 626 968 b 896 686 831 968 896 842 b 642 421 896 547 835 428 m 483 1108 l 581 1217 l 736 1217 l 567 1038 l 397 1038 l 222 1217 l 382 1217 "},"Ŗ":{"ha":981,"x_min":0,"x_max":0,"o":"m 306 521 l 579 521 b 692 663 650 521 692 568 b 583 813 692 764 651 813 l 306 813 m 642 421 b 965 0 708 397 796 283 l 739 0 b 435 369 588 265 497 369 l 306 369 l 306 0 l 122 0 l 122 968 l 626 968 b 896 686 831 968 896 842 b 642 421 896 547 835 428 m 457 -303 l 322 -303 l 421 -71 l 607 -71 "},"Ś":{"ha":864,"x_min":0,"x_max":0,"o":"m 736 790 b 481 825 682 810 578 825 b 263 699 326 825 263 793 b 475 575 263 625 299 592 b 800 285 700 551 800 468 b 382 -19 800 57 661 -19 b 81 24 275 -19 158 -3 l 121 182 b 379 147 182 163 285 147 b 603 275 533 147 603 175 b 382 410 603 347 568 393 b 68 676 168 431 68 497 b 481 992 68 904 210 992 b 776 949 586 992 700 974 m 296 1038 l 475 1217 l 665 1217 l 446 1038 "},"Ş":{"ha":864,"x_min":0,"x_max":0,"o":"m 736 790 b 481 825 682 810 578 825 b 263 699 326 825 263 793 b 475 575 263 625 299 592 b 800 285 700 551 800 468 b 382 -19 800 57 661 -19 b 81 24 275 -19 158 -3 l 121 182 b 379 147 182 163 285 147 b 603 275 533 147 603 175 b 382 410 603 347 568 393 b 68 676 168 431 68 497 b 481 992 68 904 210 992 b 776 949 586 992 700 974 m 457 0 l 457 -58 b 610 -167 565 -58 610 -85 b 419 -282 610 -254 558 -282 b 283 -260 354 -282 318 -275 l 314 -185 b 413 -201 336 -196 374 -201 b 469 -165 456 -201 469 -193 b 339 -129 469 -131 439 -124 l 389 0 "},"Ŝ":{"ha":864,"x_min":0,"x_max":0,"o":"m 736 790 b 481 825 682 810 578 825 b 263 699 326 825 263 793 b 475 575 263 625 299 592 b 800 285 700 551 800 468 b 382 -19 800 57 661 -19 b 81 24 275 -19 158 -3 l 121 182 b 379 147 182 163 285 147 b 603 275 533 147 603 175 b 382 410 603 347 568 393 b 68 676 168 431 68 497 b 481 992 68 904 210 992 b 776 949 586 992 700 974 m 453 1146 l 356 1038 l 200 1038 l 369 1217 l 539 1217 l 714 1038 l 553 1038 "},"Ș":{"ha":864,"x_min":0,"x_max":0,"o":"m 736 790 b 481 825 682 810 578 825 b 263 699 326 825 263 793 b 475 575 263 625 299 592 b 800 285 700 551 800 468 b 382 -19 800 57 661 -19 b 81 24 275 -19 158 -3 l 121 182 b 379 147 182 163 285 147 b 603 275 533 147 603 175 b 382 410 603 347 568 393 b 68 676 168 431 68 497 b 481 992 68 904 210 992 b 776 949 586 992 700 974 m 403 -303 l 268 -303 l 367 -71 l 553 -71 "},"Ŧ":{"ha":846,"x_min":0,"x_max":0,"o":"m 224 454 l 331 454 l 331 807 l 4 807 l 4 968 l 842 968 l 842 807 l 515 807 l 515 454 l 611 454 l 611 326 l 515 326 l 515 0 l 331 0 l 331 326 l 224 326 "},"Ť":{"ha":846,"x_min":0,"x_max":0,"o":"m 331 0 l 331 810 l 4 810 l 4 968 l 842 968 l 842 810 l 515 810 l 515 0 m 432 1108 l 529 1217 l 685 1217 l 515 1038 l 346 1038 l 171 1217 l 331 1217 "},"Ţ":{"ha":846,"x_min":0,"x_max":0,"o":"m 331 0 l 331 810 l 4 810 l 4 968 l 842 968 l 842 810 l 515 810 l 515 0 m 401 -303 l 267 -303 l 365 -71 l 551 -71 "},"Ŭ":{"ha":1031,"x_min":0,"x_max":0,"o":"m 922 293 b 515 -19 922 39 768 -19 b 108 293 263 -19 108 39 l 108 968 l 293 968 l 293 321 b 515 149 293 192 350 149 b 739 321 672 149 739 185 l 739 968 l 921 968 m 426 1210 b 518 1129 426 1144 457 1129 b 611 1210 578 1129 611 1144 l 722 1210 b 514 1019 722 1078 649 1019 b 308 1210 383 1019 308 1078 "},"Ű":{"ha":1031,"x_min":0,"x_max":0,"o":"m 922 293 b 515 -19 922 39 768 -19 b 108 293 263 -19 108 39 l 108 968 l 293 968 l 293 321 b 515 149 293 192 350 149 b 739 321 672 149 739 185 l 739 968 l 921 968 m 292 1038 l 418 1217 l 569 1217 l 410 1038 m 519 1038 l 646 1217 l 797 1217 l 639 1038 "},"Ū":{"ha":1031,"x_min":0,"x_max":0,"o":"m 922 293 b 515 -19 922 39 768 -19 b 108 293 263 -19 108 39 l 108 968 l 293 968 l 293 321 b 515 149 293 192 350 149 b 739 321 672 149 739 185 l 739 968 l 921 968 m 318 1174 l 704 1174 l 704 1046 l 318 1046 "},"Ų":{"ha":1031,"x_min":0,"x_max":0,"o":"m 922 293 b 515 -19 922 39 768 -19 b 108 293 263 -19 108 39 l 108 968 l 293 968 l 293 321 b 515 149 293 192 350 149 b 739 321 672 149 739 185 l 739 968 l 921 968 m 644 17 b 528 -128 547 -42 528 -75 b 611 -183 528 -167 543 -183 b 726 -146 656 -183 700 -168 l 775 -233 b 593 -282 731 -267 654 -282 b 410 -158 451 -282 410 -240 b 590 17 410 -85 467 -17 "},"Ů":{"ha":1031,"x_min":0,"x_max":0,"o":"m 922 293 b 515 -19 922 39 768 -19 b 108 293 263 -19 108 39 l 108 968 l 293 968 l 293 321 b 515 149 293 192 350 149 b 739 321 672 149 739 185 l 739 968 l 921 968 m 513 1236 b 678 1100 624 1236 678 1200 b 513 964 678 1000 624 964 b 346 1100 401 964 346 1000 b 513 1236 346 1200 394 1236 m 513 1158 b 443 1099 456 1158 443 1139 b 513 1039 443 1058 456 1039 b 582 1099 569 1039 582 1058 b 513 1158 582 1140 569 1158 "},"Ũ":{"ha":1031,"x_min":0,"x_max":0,"o":"m 922 293 b 515 -19 922 39 768 -19 b 108 293 263 -19 108 39 l 108 968 l 293 968 l 293 321 b 515 149 293 192 350 149 b 739 321 672 149 739 185 l 739 968 l 921 968 m 774 1151 b 607 1022 747 1079 689 1022 b 408 1097 525 1022 474 1097 b 338 1028 381 1097 358 1081 l 260 1104 b 408 1214 297 1169 340 1214 b 614 1142 503 1214 550 1142 b 689 1221 646 1142 667 1160 "},"Ŵ":{"ha":1354,"x_min":0,"x_max":0,"o":"m 685 664 b 507 0 643 461 572 213 l 275 0 b -3 968 199 307 89 710 l 197 968 b 406 228 268 757 346 481 b 600 968 464 421 558 754 l 769 968 b 960 228 828 760 919 429 b 1161 968 1039 475 1107 729 l 1350 968 b 1069 0 1279 679 1167 289 l 836 0 b 685 664 794 222 735 471 m 681 1146 l 583 1038 l 428 1038 l 597 1217 l 767 1217 l 942 1038 l 781 1038 "},"Ŷ":{"ha":886,"x_min":0,"x_max":0,"o":"m 186 968 b 456 599 268 865 364 733 b 711 968 553 729 644 861 l 933 968 b 543 418 822 801 682 603 l 543 0 l 360 0 l 360 417 b -53 968 221 614 64 826 l 186 968 m 450 1146 l 353 1038 l 197 1038 l 367 1217 l 536 1217 l 711 1038 l 550 1038 "},"Ź":{"ha":863,"x_min":0,"x_max":0,"o":"m 24 44 b 554 810 190 271 418 603 l 54 810 l 54 968 l 839 968 l 839 926 b 308 158 700 703 457 344 l 829 158 l 829 0 l 24 0 m 301 1038 l 481 1217 l 671 1217 l 451 1038 "},"Ż":{"ha":863,"x_min":0,"x_max":0,"o":"m 24 44 b 554 810 190 271 418 603 l 54 810 l 54 968 l 839 968 l 839 926 b 308 158 700 703 457 344 l 829 158 l 829 0 l 24 0 m 440 1204 b 524 1126 503 1204 524 1193 b 440 1042 524 1054 503 1042 b 358 1126 378 1042 358 1054 b 440 1204 358 1193 378 1204 "},"ă":{"ha":778,"x_min":0,"x_max":0,"o":"m 686 36 b 367 -19 597 1 465 -19 b 68 217 143 -19 68 32 b 346 449 68 417 181 449 b 521 429 406 449 461 442 b 344 583 521 553 492 583 b 131 549 267 583 189 569 l 99 690 b 381 728 172 710 279 728 b 686 453 590 728 686 664 m 521 136 l 521 313 b 381 325 482 321 432 325 b 249 224 283 325 249 314 b 379 113 249 128 275 113 b 521 136 429 113 481 122 m 296 968 b 388 888 296 903 326 888 b 481 968 447 888 481 903 l 592 968 b 383 778 592 836 518 778 b 178 968 253 778 178 836 "},"":{"ha":567,"x_min":0,"x_max":0,"o":"m 138 1038 l 317 1217 l 507 1217 l 288 1038 "},"ā":{"ha":778,"x_min":0,"x_max":0,"o":"m 686 36 b 367 -19 597 1 465 -19 b 68 217 143 -19 68 32 b 346 449 68 417 181 449 b 521 429 406 449 461 442 b 344 583 521 553 492 583 b 131 549 267 583 189 569 l 99 690 b 381 728 172 710 279 728 b 686 453 590 728 686 664 m 521 136 l 521 313 b 381 325 482 321 432 325 b 249 224 283 325 249 314 b 379 113 249 128 275 113 b 521 136 429 113 481 122 m 192 925 l 578 925 l 578 800 l 192 800 "},"ą":{"ha":778,"x_min":0,"x_max":0,"o":"m 686 36 b 367 -19 597 1 465 -19 b 68 217 143 -19 68 32 b 346 449 68 417 181 449 b 521 429 406 449 461 442 b 344 583 521 553 492 583 b 131 549 267 583 189 569 l 99 690 b 381 728 172 710 279 728 b 686 453 590 728 686 664 m 521 136 l 521 313 b 381 325 482 321 432 325 b 249 224 283 325 249 314 b 379 113 249 128 275 113 b 521 136 429 113 481 122 m 629 17 b 513 -128 532 -42 513 -75 b 596 -183 513 -167 528 -183 b 711 -146 640 -183 685 -168 l 760 -233 b 578 -282 715 -267 639 -282 b 394 -158 436 -282 394 -240 b 575 17 394 -85 451 -17 "},"ć":{"ha":653,"x_min":0,"x_max":0,"o":"m 636 17 b 421 -19 581 -6 488 -19 b 71 357 206 -19 71 67 b 421 728 71 646 207 728 b 636 694 489 728 583 714 l 597 547 b 433 578 553 564 490 578 b 249 354 308 578 249 550 b 433 131 249 167 308 131 b 597 164 493 131 553 146 m 261 789 l 429 968 l 614 968 l 413 789 "},"":{"ha":908,"x_min":0,"x_max":0,"o":"m 490 1108 l 588 1217 l 743 1217 l 574 1038 l 404 1038 l 229 1217 l 389 1217 "},"č":{"ha":653,"x_min":0,"x_max":0,"o":"m 636 17 b 421 -19 581 -6 488 -19 b 71 357 206 -19 71 67 b 421 728 71 646 207 728 b 636 694 489 728 583 714 l 597 547 b 433 578 553 564 490 578 b 249 354 308 578 249 550 b 433 131 249 167 308 131 b 597 164 493 131 553 146 m 310 968 l 408 863 l 504 968 l 661 968 l 492 789 l 322 789 l 147 968 "},"ĉ":{"ha":653,"x_min":0,"x_max":0,"o":"m 636 17 b 421 -19 581 -6 488 -19 b 71 357 206 -19 71 67 b 421 728 71 646 207 728 b 636 694 489 728 583 714 l 597 547 b 433 578 553 564 490 578 b 249 354 308 578 249 550 b 433 131 249 167 308 131 b 597 164 493 131 553 146 m 500 789 l 401 894 l 306 789 l 149 789 l 318 968 l 488 968 l 663 789 "},"ċ":{"ha":653,"x_min":0,"x_max":0,"o":"m 636 17 b 421 -19 581 -6 488 -19 b 71 357 206 -19 71 67 b 421 728 71 646 207 728 b 636 694 489 728 583 714 l 597 547 b 433 578 553 564 490 578 b 249 354 308 578 249 550 b 433 131 249 167 308 131 b 597 164 493 131 553 146 m 408 946 b 492 869 471 946 492 936 b 408 783 492 796 471 783 b 326 869 346 783 326 796 b 408 946 326 936 346 946 "},"¸":{"ha":890,"x_min":0,"x_max":0,"o":"m 526 0 l 526 -58 b 679 -167 635 -58 679 -85 b 489 -282 679 -254 628 -282 b 353 -260 424 -282 388 -275 l 383 -185 b 482 -201 406 -196 443 -201 b 539 -165 525 -201 539 -193 b 408 -129 539 -131 508 -124 l 458 0 "},"":{"ha":371,"x_min":0,"x_max":0,"o":"m 219 -303 l 85 -303 l 183 -71 l 369 -71 "},"ď":{"ha":817,"x_min":0,"x_max":0,"o":"m 547 514 b 408 582 547 556 486 582 b 249 357 288 582 249 533 b 411 128 249 164 289 128 b 547 149 458 128 511 136 m 719 32 b 411 -19 643 1 513 -19 b 71 354 178 -19 71 64 b 378 728 71 640 189 728 b 547 688 458 728 510 708 l 547 1003 l 719 1003 m 950 1003 l 871 736 l 769 736 l 797 1003 "},"":{"ha":599,"x_min":0,"x_max":0,"o":"m 203 1200 b 285 1122 265 1200 285 1189 b 203 1038 285 1050 265 1038 b 119 1122 140 1038 119 1050 b 203 1200 119 1189 140 1200 m 499 1200 b 581 1122 561 1200 581 1189 b 499 1038 581 1050 561 1038 b 415 1122 435 1038 415 1050 b 499 1200 415 1189 435 1200 "},"ĕ":{"ha":767,"x_min":0,"x_max":0,"o":"m 661 19 b 414 -19 590 -4 486 -19 b 71 357 210 -19 71 67 b 400 728 71 640 194 728 b 708 308 624 728 721 651 l 251 308 b 435 126 253 157 311 126 b 633 156 485 126 578 139 m 410 592 b 253 440 301 592 264 557 l 550 440 b 410 592 544 565 508 592 m 314 968 b 406 888 314 903 344 888 b 499 968 465 888 499 903 l 610 968 b 401 778 610 836 536 778 b 196 968 271 778 196 836 "},"ě":{"ha":767,"x_min":0,"x_max":0,"o":"m 661 19 b 414 -19 590 -4 486 -19 b 71 357 210 -19 71 67 b 400 728 71 640 194 728 b 708 308 624 728 721 651 l 251 308 b 435 126 253 157 311 126 b 633 156 485 126 578 139 m 410 592 b 253 440 301 592 264 557 l 550 440 b 410 592 544 565 508 592 m 308 968 l 407 863 l 503 968 l 660 968 l 490 789 l 321 789 l 146 968 "},"ė":{"ha":767,"x_min":0,"x_max":0,"o":"m 661 19 b 414 -19 590 -4 486 -19 b 71 357 210 -19 71 67 b 400 728 71 640 194 728 b 708 308 624 728 721 651 l 251 308 b 435 126 253 157 311 126 b 633 156 485 126 578 139 m 410 592 b 253 440 301 592 264 557 l 550 440 b 410 592 544 565 508 592 m 404 946 b 488 869 467 946 488 936 b 404 783 488 796 467 783 b 322 869 342 783 322 796 b 404 946 322 936 342 946 "},"ē":{"ha":767,"x_min":0,"x_max":0,"o":"m 661 19 b 414 -19 590 -4 486 -19 b 71 357 210 -19 71 67 b 400 728 71 640 194 728 b 708 308 624 728 721 651 l 251 308 b 435 126 253 157 311 126 b 633 156 485 126 578 139 m 410 592 b 253 440 301 592 264 557 l 550 440 b 410 592 544 565 508 592 m 217 925 l 603 925 l 603 800 l 217 800 "},"ę":{"ha":767,"x_min":0,"x_max":0,"o":"m 661 19 b 414 -19 590 -4 486 -19 b 71 357 210 -19 71 67 b 400 728 71 640 194 728 b 708 308 624 728 721 651 l 251 308 b 435 126 253 157 311 126 b 633 156 485 126 578 139 m 410 592 b 253 440 301 592 264 557 l 550 440 b 410 592 544 565 508 592 m 624 17 b 507 -128 526 -42 507 -75 b 590 -183 507 -167 522 -183 b 706 -146 635 -183 679 -168 l 754 -233 b 572 -282 710 -267 633 -282 b 389 -158 431 -282 389 -240 b 569 17 389 -85 446 -17 "},"₣":{"ha":792,"x_min":0,"x_max":0,"o":"m 67 285 l 122 285 l 122 968 l 811 968 l 811 810 l 306 810 l 306 536 l 614 536 l 614 381 l 306 381 l 306 285 l 431 285 l 431 163 l 306 163 l 306 0 l 122 0 l 122 163 l 67 163 "},"ğ":{"ha":817,"x_min":0,"x_max":0,"o":"m 547 563 b 411 586 507 578 454 586 b 249 353 289 586 249 554 b 407 132 249 176 286 132 b 547 199 483 132 547 156 m 547 29 b 368 -17 508 6 449 -17 b 71 351 174 -17 71 64 b 411 728 71 640 178 728 b 719 675 513 728 643 707 l 719 54 b 342 -283 719 -222 565 -283 b 93 -242 261 -283 154 -265 l 128 -103 b 340 -137 193 -124 274 -137 b 547 29 471 -137 547 -101 m 328 968 b 419 888 328 903 358 888 b 513 968 479 888 513 903 l 624 968 b 415 778 624 836 550 778 b 210 968 285 778 210 836 "},"ĝ":{"ha":817,"x_min":0,"x_max":0,"o":"m 547 563 b 411 586 507 578 454 586 b 249 353 289 586 249 554 b 407 132 249 176 286 132 b 547 199 483 132 547 156 m 547 29 b 368 -17 508 6 449 -17 b 71 351 174 -17 71 64 b 411 728 71 640 178 728 b 719 675 513 728 643 707 l 719 54 b 342 -283 719 -222 565 -283 b 93 -242 261 -283 154 -265 l 128 -103 b 340 -137 193 -124 274 -137 b 547 29 471 -137 547 -101 m 514 789 l 415 894 l 319 789 l 163 789 l 332 968 l 501 968 l 676 789 "},"ģ":{"ha":817,"x_min":0,"x_max":0,"o":"m 547 563 b 411 586 507 578 454 586 b 249 353 289 586 249 554 b 407 132 249 176 286 132 b 547 199 483 132 547 156 m 547 29 b 368 -17 508 6 449 -17 b 71 351 174 -17 71 64 b 411 728 71 640 178 728 b 719 675 513 728 643 707 l 719 54 b 342 -283 719 -222 565 -283 b 93 -242 261 -283 154 -265 l 128 -103 b 340 -137 193 -124 274 -137 b 547 29 471 -137 547 -101 m 443 811 l 308 811 l 407 1043 l 593 1043 "},"ġ":{"ha":817,"x_min":0,"x_max":0,"o":"m 547 563 b 411 586 507 578 454 586 b 249 353 289 586 249 554 b 407 132 249 176 286 132 b 547 199 483 132 547 156 m 547 29 b 368 -17 508 6 449 -17 b 71 351 174 -17 71 64 b 411 728 71 640 178 728 b 719 675 513 728 643 707 l 719 54 b 342 -283 719 -222 565 -283 b 93 -242 261 -283 154 -265 l 128 -103 b 340 -137 193 -124 274 -137 b 547 29 471 -137 547 -101 m 408 946 b 492 869 471 946 492 936 b 408 783 492 796 471 783 b 326 869 346 783 326 796 b 408 946 326 936 346 946 "},"":{"ha":567,"x_min":0,"x_max":0,"o":"m 410 1038 l 190 1217 l 381 1217 l 568 1038 "},"ħ":{"ha":810,"x_min":0,"x_max":0,"o":"m 25 928 l 96 928 l 96 1003 l 268 1003 l 268 928 l 411 928 l 411 807 l 268 807 l 268 679 b 463 728 314 703 390 728 b 718 407 628 728 718 671 l 718 0 l 546 0 l 546 393 b 404 572 546 543 497 572 b 268 510 333 572 268 551 l 268 0 l 96 0 l 96 807 l 25 807 "},"ĥ":{"ha":810,"x_min":0,"x_max":0,"o":"m 463 728 b 718 407 628 728 718 671 l 718 0 l 546 0 l 546 393 b 404 572 546 510 515 572 b 268 510 333 572 268 551 l 268 0 l 96 0 l 96 1003 l 268 1003 l 268 679 b 463 728 314 703 390 728 m 281 1146 l 183 1038 l 28 1038 l 197 1217 l 367 1217 l 542 1038 l 381 1038 "},"":{"ha":858,"x_min":0,"x_max":0,"o":"m 226 1038 l 353 1217 l 504 1217 l 344 1038 m 454 1038 l 581 1217 l 732 1217 l 574 1038 "},"ĳ":{"ha":728,"x_min":0,"x_max":0,"o":"m 268 0 l 96 0 l 96 707 l 268 707 m 183 1001 b 282 917 258 1001 282 990 b 183 821 282 835 258 821 b 83 917 107 821 83 835 b 183 1001 83 990 107 1001 m 544 1001 b 644 917 619 1001 644 990 b 544 821 644 835 619 821 b 444 917 469 821 444 835 b 544 1001 444 990 469 1001 m 339 -139 b 458 -19 418 -139 458 -114 l 458 707 l 631 707 l 631 -15 b 339 -282 631 -225 533 -282 "},"ī":{"ha":364,"x_min":0,"x_max":0,"o":"m 268 0 l 96 0 l 96 707 l 268 707 m -10 925 l 376 925 l 376 800 l -10 800 "},"į":{"ha":364,"x_min":0,"x_max":0,"o":"m 268 0 l 96 0 l 96 707 l 268 707 m 183 1001 b 282 917 258 1001 282 990 b 183 821 282 835 258 821 b 83 917 107 821 83 835 b 183 1001 83 990 107 1001 m 247 17 b 131 -128 150 -42 131 -75 b 214 -183 131 -167 146 -183 b 329 -146 258 -183 303 -168 l 378 -233 b 196 -282 333 -267 257 -282 b 13 -158 54 -282 13 -240 b 193 17 13 -85 69 -17 "},"ĩ":{"ha":364,"x_min":0,"x_max":0,"o":"m 268 0 l 96 0 l 96 707 l 268 707 m 436 906 b 274 776 410 831 357 776 b 78 850 190 776 146 850 b 6 779 50 850 28 833 l -72 856 b 79 968 -33 924 10 968 b 276 894 174 968 211 894 b 350 975 310 894 328 913 "},"ĵ":{"ha":364,"x_min":0,"x_max":0,"o":"m 276 789 l 178 894 l 82 789 l -75 789 l 94 968 l 264 968 l 439 789 m 268 -14 b -22 -282 268 -224 171 -282 l -22 -139 b 96 -18 56 -139 96 -112 l 96 707 l 268 707 "},"ķ":{"ha":765,"x_min":0,"x_max":0,"o":"m 268 0 l 96 0 l 96 1003 l 268 1003 m 564 0 b 268 374 404 232 307 357 b 542 707 307 406 403 519 l 746 707 b 475 386 610 524 513 415 b 767 0 511 364 617 235 m 356 -303 l 221 -303 l 319 -71 l 506 -71 "},"ĺ":{"ha":372,"x_min":0,"x_max":0,"o":"m 268 199 b 322 32 268 131 283 83 l 171 -33 b 96 192 122 22 96 89 l 96 1003 l 268 1003 m 81 1038 l 260 1217 l 450 1217 l 231 1038 "},"ľ":{"ha":372,"x_min":0,"x_max":0,"o":"m 268 199 b 322 32 268 131 283 83 l 171 -33 b 96 192 122 22 96 89 l 96 1003 l 268 1003 m 508 1003 l 429 736 l 328 736 l 356 1003 "},"ļ":{"ha":372,"x_min":0,"x_max":0,"o":"m 268 199 b 322 32 268 131 283 83 l 171 -33 b 96 192 122 22 96 89 l 96 1003 l 268 1003 m 186 -303 l 51 -303 l 150 -71 l 336 -71 "},"":{"ha":453,"x_min":0,"x_max":0,"o":"m 171 1174 l 557 1174 l 557 1046 l 171 1046 "},"ń":{"ha":810,"x_min":0,"x_max":0,"o":"m 268 0 l 96 0 l 96 667 b 431 728 182 700 318 728 b 718 394 629 728 718 649 l 718 0 l 546 0 l 546 376 b 394 572 546 533 517 572 b 268 556 350 572 310 567 m 253 789 l 421 968 l 606 968 l 404 789 "},"ň":{"ha":810,"x_min":0,"x_max":0,"o":"m 268 0 l 96 0 l 96 667 b 431 728 182 700 318 728 b 718 394 629 728 718 649 l 718 0 l 546 0 l 546 376 b 394 572 546 533 517 572 b 268 556 350 572 310 567 m 307 968 l 406 863 l 501 968 l 658 968 l 489 789 l 319 789 l 144 968 "},"ņ":{"ha":810,"x_min":0,"x_max":0,"o":"m 268 0 l 96 0 l 96 667 b 431 728 182 700 318 728 b 718 394 629 728 718 649 l 718 0 l 546 0 l 546 376 b 394 572 546 533 517 572 b 268 556 350 572 310 567 m 356 -303 l 221 -303 l 319 -71 l 506 -71 "},"ŏ":{"ha":817,"x_min":0,"x_max":0,"o":"m 407 -19 b 71 357 182 -19 71 67 b 407 728 71 646 183 728 b 746 357 633 728 746 646 b 407 -19 746 67 635 -19 m 407 589 b 249 354 286 589 249 557 b 407 119 249 158 286 119 b 568 354 531 119 568 158 b 407 589 568 557 531 589 m 318 968 b 410 888 318 903 349 888 b 503 968 469 888 503 903 l 614 968 b 406 778 614 836 540 778 b 200 968 275 778 200 836 "},"ő":{"ha":817,"x_min":0,"x_max":0,"o":"m 407 -19 b 71 357 182 -19 71 67 b 407 728 71 646 183 728 b 746 357 633 728 746 646 b 407 -19 746 67 635 -19 m 407 589 b 249 354 286 589 249 557 b 407 119 249 158 286 119 b 568 354 531 119 568 158 b 407 589 568 557 531 589 m 189 789 l 315 968 l 467 968 l 307 789 m 417 789 l 543 968 l 694 968 l 536 789 "},"ō":{"ha":817,"x_min":0,"x_max":0,"o":"m 407 -19 b 71 357 182 -19 71 67 b 407 728 71 646 183 728 b 746 357 633 728 746 646 b 407 -19 746 67 635 -19 m 407 589 b 249 354 286 589 249 557 b 407 119 249 158 286 119 b 568 354 531 119 568 158 b 407 589 568 557 531 589 m 214 925 l 600 925 l 600 800 l 214 800 "},"ŕ":{"ha":526,"x_min":0,"x_max":0,"o":"m 96 707 l 268 707 l 268 654 b 449 728 293 693 347 728 b 521 724 472 728 496 726 l 521 560 b 431 569 496 565 461 569 b 268 490 344 569 268 542 l 268 0 l 96 0 m 203 789 l 371 968 l 556 968 l 354 789 "},"ř":{"ha":526,"x_min":0,"x_max":0,"o":"m 96 707 l 268 707 l 268 654 b 449 728 293 693 347 728 b 521 724 472 728 496 726 l 521 560 b 431 569 496 565 461 569 b 268 490 344 569 268 542 l 268 0 l 96 0 m 225 968 l 324 863 l 419 968 l 576 968 l 407 789 l 238 789 l 63 968 "},"ŗ":{"ha":526,"x_min":0,"x_max":0,"o":"m 96 707 l 268 707 l 268 654 b 449 728 293 693 347 728 b 521 724 472 728 496 726 l 521 560 b 431 569 496 565 461 569 b 268 490 344 569 268 542 l 268 0 l 96 0 m 161 -303 l 26 -303 l 125 -71 l 311 -71 "},"ś":{"ha":682,"x_min":0,"x_max":0,"o":"m 565 554 b 360 588 510 572 431 588 b 232 506 275 588 232 579 b 378 429 232 457 263 440 b 624 217 549 411 624 358 b 321 -19 624 33 501 -19 b 68 18 246 -19 135 -6 l 104 154 b 314 121 156 136 243 121 b 453 207 408 121 453 133 b 301 292 453 257 425 281 b 63 493 146 304 63 347 b 365 728 63 676 186 728 b 603 689 439 728 532 713 m 206 789 l 374 968 l 558 968 l 357 789 "},"ş":{"ha":682,"x_min":0,"x_max":0,"o":"m 565 554 b 360 588 510 572 431 588 b 232 506 275 588 232 579 b 378 429 232 457 263 440 b 624 217 549 411 624 358 b 321 -19 624 33 501 -19 b 68 18 246 -19 135 -6 l 104 154 b 314 121 156 136 243 121 b 453 207 408 121 453 133 b 301 292 453 257 425 281 b 63 493 146 304 63 347 b 365 728 63 676 186 728 b 603 689 439 728 532 713 m 363 0 l 363 -58 b 515 -167 471 -58 515 -85 b 325 -282 515 -254 464 -282 b 189 -260 260 -282 224 -275 l 219 -185 b 318 -201 242 -196 279 -201 b 375 -165 361 -201 375 -193 b 244 -129 375 -131 344 -124 l 294 0 "},"ŝ":{"ha":682,"x_min":0,"x_max":0,"o":"m 565 554 b 360 588 510 572 431 588 b 232 506 275 588 232 579 b 378 429 232 457 263 440 b 624 217 549 411 624 358 b 321 -19 624 33 501 -19 b 68 18 246 -19 135 -6 l 104 154 b 314 121 156 136 243 121 b 453 207 408 121 453 133 b 301 292 453 257 425 281 b 63 493 146 304 63 347 b 365 728 63 676 186 728 b 603 689 439 728 532 713 m 453 789 l 354 894 l 258 789 l 101 789 l 271 968 l 440 968 l 615 789 "},"ș":{"ha":682,"x_min":0,"x_max":0,"o":"m 565 554 b 360 588 510 572 431 588 b 232 506 275 588 232 579 b 378 429 232 457 263 440 b 624 217 549 411 624 358 b 321 -19 624 33 501 -19 b 68 18 246 -19 135 -6 l 104 154 b 314 121 156 136 243 121 b 453 207 408 121 453 133 b 301 292 453 257 425 281 b 63 493 146 304 63 347 b 365 728 63 676 186 728 b 603 689 439 728 532 713 m 308 -303 l 174 -303 l 272 -71 l 458 -71 "},"ŧ":{"ha":576,"x_min":0,"x_max":0,"o":"m 53 415 l 132 415 l 132 558 l 14 558 l 14 707 l 132 707 l 132 826 l 304 897 l 304 707 l 539 707 l 539 558 l 304 558 l 304 415 l 439 415 l 439 301 l 304 301 l 304 253 b 414 129 304 165 331 129 b 532 149 460 129 497 138 l 563 13 b 369 -19 513 -6 438 -19 b 132 238 213 -19 132 28 l 132 301 l 53 301 "},"ť":{"ha":576,"x_min":0,"x_max":0,"o":"m 304 557 l 304 253 b 411 129 304 165 328 129 b 532 149 457 129 497 138 l 563 13 b 368 -19 513 -6 436 -19 b 132 238 210 -19 132 28 l 132 557 l 14 557 l 14 707 l 132 707 l 132 826 l 304 897 l 304 707 l 539 707 l 539 557 m 585 1069 l 506 803 l 404 803 l 432 1069 "},"ţ":{"ha":576,"x_min":0,"x_max":0,"o":"m 304 557 l 304 253 b 411 129 304 165 328 129 b 532 149 457 129 497 138 l 563 13 b 368 -19 513 -6 436 -19 b 132 238 210 -19 132 28 l 132 557 l 14 557 l 14 707 l 132 707 l 132 826 l 304 897 l 304 707 l 539 707 l 539 557 m 268 -303 l 133 -303 l 232 -71 l 418 -71 "},"ŭ":{"ha":810,"x_min":0,"x_max":0,"o":"m 542 707 l 714 707 l 714 40 b 379 -21 626 7 492 -21 b 92 313 181 -21 92 58 l 92 707 l 264 707 l 264 331 b 414 135 264 174 293 135 b 542 153 460 135 500 140 m 313 968 b 404 888 313 903 343 888 b 497 968 464 888 497 903 l 608 968 b 400 778 608 836 535 778 b 194 968 269 778 194 836 "},"ű":{"ha":810,"x_min":0,"x_max":0,"o":"m 542 707 l 714 707 l 714 40 b 379 -21 626 7 492 -21 b 92 313 181 -21 92 58 l 92 707 l 264 707 l 264 331 b 414 135 264 174 293 135 b 542 153 460 135 500 140 m 178 789 l 304 968 l 456 968 l 296 789 m 406 789 l 532 968 l 683 968 l 525 789 "},"ū":{"ha":810,"x_min":0,"x_max":0,"o":"m 542 707 l 714 707 l 714 40 b 379 -21 626 7 492 -21 b 92 313 181 -21 92 58 l 92 707 l 264 707 l 264 331 b 414 135 264 174 293 135 b 542 153 460 135 500 140 m 207 925 l 593 925 l 593 800 l 207 800 "},"ų":{"ha":810,"x_min":0,"x_max":0,"o":"m 542 707 l 714 707 l 714 40 b 379 -21 626 7 492 -21 b 92 313 181 -21 92 58 l 92 707 l 264 707 l 264 331 b 414 135 264 174 293 135 b 542 153 460 135 500 140 m 626 17 b 510 -128 529 -42 510 -75 b 593 -183 510 -167 525 -183 b 708 -146 638 -183 682 -168 l 757 -233 b 575 -282 713 -267 636 -282 b 392 -158 433 -282 392 -240 b 572 17 392 -85 449 -17 "},"ů":{"ha":810,"x_min":0,"x_max":0,"o":"m 542 707 l 714 707 l 714 40 b 379 -21 626 7 492 -21 b 92 313 181 -21 92 58 l 92 707 l 264 707 l 264 331 b 414 135 264 174 293 135 b 542 153 460 135 500 140 m 407 1029 b 572 893 518 1029 572 993 b 407 757 572 792 518 757 b 240 893 296 757 240 792 b 407 1029 240 993 289 1029 m 407 950 b 338 890 350 950 338 932 b 407 831 338 850 350 831 b 476 890 464 831 476 851 b 407 950 476 932 464 950 "},"ũ":{"ha":810,"x_min":0,"x_max":0,"o":"m 542 707 l 714 707 l 714 40 b 379 -21 626 7 492 -21 b 92 313 181 -21 92 58 l 92 707 l 264 707 l 264 331 b 414 135 264 174 293 135 b 542 153 460 135 500 140 m 660 906 b 497 776 633 831 581 776 b 301 850 414 776 369 850 b 229 779 274 850 251 833 l 151 856 b 303 968 190 924 233 968 b 500 894 397 968 435 894 b 574 975 533 894 551 913 "},"ŵ":{"ha":1153,"x_min":0,"x_max":0,"o":"m 576 474 b 440 0 543 326 485 128 l 228 0 b 0 707 160 246 82 490 l 182 707 b 343 176 240 551 299 358 b 496 707 392 318 467 581 l 664 707 b 807 176 710 569 774 328 b 971 707 871 353 929 531 l 1146 707 b 904 0 1082 478 996 224 l 690 0 b 576 474 663 143 610 363 m 674 789 l 575 894 l 479 789 l 322 789 l 492 968 l 661 968 l 836 789 "},"ŷ":{"ha":710,"x_min":0,"x_max":0,"o":"m 250 -35 b 0 707 181 217 88 496 l 179 707 b 354 171 242 551 306 353 b 529 707 421 347 485 532 l 704 707 b 436 -29 633 465 539 213 b 326 -267 403 -108 363 -197 l 135 -267 b 250 -35 172 -200 215 -111 m 451 789 l 353 894 l 257 789 l 100 789 l 269 968 l 439 968 l 614 789 "},"ź":{"ha":690,"x_min":0,"x_max":0,"o":"m 658 707 l 658 672 b 294 150 558 511 388 268 l 649 150 l 649 0 l 25 0 l 25 35 b 394 557 160 206 325 443 l 49 557 l 49 707 m 244 789 l 413 968 l 597 968 l 396 789 "},"ż":{"ha":690,"x_min":0,"x_max":0,"o":"m 658 707 l 658 672 b 294 150 558 511 388 268 l 649 150 l 649 0 l 25 0 l 25 35 b 394 557 160 206 325 443 l 49 557 l 49 707 m 351 946 b 435 869 414 946 435 936 b 351 783 435 796 414 783 b 269 869 289 783 269 796 b 351 946 269 936 289 946 "},"r":{"ha":526,"x_min":0,"x_max":0,"o":"m 96 707 l 268 707 l 268 654 b 449 728 293 693 347 728 b 521 724 472 728 496 726 l 521 560 b 431 569 496 565 461 569 b 268 490 344 569 268 542 l 268 0 l 96 0 "},"m":{"ha":1224,"x_min":0,"x_max":0,"o":"m 268 0 l 96 0 l 96 667 b 422 728 182 700 310 728 b 603 681 501 728 561 713 b 854 728 679 708 774 728 b 1132 394 1053 728 1132 649 l 1132 0 l 960 0 l 960 376 b 818 572 960 533 932 572 b 681 553 783 572 726 567 b 700 394 693 511 700 458 l 700 0 l 528 0 l 528 376 b 386 572 528 533 500 572 b 268 556 349 572 303 565 "},"o":{"ha":817,"x_min":0,"x_max":0,"o":"m 407 -19 b 71 357 182 -19 71 67 b 407 728 71 646 183 728 b 746 357 633 728 746 646 b 407 -19 746 67 635 -19 m 407 589 b 249 354 286 589 249 557 b 407 119 249 158 286 119 b 568 354 531 119 568 158 b 407 589 568 557 531 589 "},"t":{"ha":576,"x_min":0,"x_max":0,"o":"m 304 557 l 304 253 b 411 129 304 165 328 129 b 532 149 457 129 497 138 l 563 13 b 368 -19 513 -6 436 -19 b 132 238 210 -19 132 28 l 132 557 l 14 557 l 14 707 l 132 707 l 132 826 l 304 897 l 304 707 l 539 707 l 539 557 "},"w":{"ha":1153,"x_min":0,"x_max":0,"o":"m 576 474 b 440 0 543 326 485 128 l 228 0 b 0 707 160 246 82 490 l 182 707 b 343 176 240 551 299 358 b 496 707 392 318 467 581 l 664 707 b 807 176 710 569 774 328 b 971 707 871 353 929 531 l 1146 707 b 904 0 1082 478 996 224 l 690 0 b 576 474 663 143 610 363 "},"y":{"ha":710,"x_min":0,"x_max":0,"o":"m 250 -35 b 0 707 181 217 88 496 l 179 707 b 354 171 242 551 306 353 b 529 707 421 347 485 532 l 704 707 b 436 -29 633 465 539 213 b 326 -267 403 -108 363 -197 l 135 -267 b 250 -35 172 -200 215 -111 "},"Ŀ":{"ha":765,"x_min":0,"x_max":0,"o":"m 306 968 l 306 160 l 763 160 l 763 0 l 122 0 l 122 968 m 492 643 b 575 565 554 643 575 632 b 492 481 575 493 554 481 b 410 565 429 481 410 493 b 492 643 410 632 429 643 "},"ŀ":{"ha":372,"x_min":0,"x_max":0,"o":"m 268 199 b 322 32 268 131 283 83 l 171 -33 b 96 192 122 22 96 89 l 96 1003 l 268 1003 m 392 639 b 475 563 454 639 475 629 b 392 476 475 489 454 476 b 310 563 329 476 310 489 b 392 639 310 629 329 639 "},"ĭ":{"ha":364,"x_min":0,"x_max":0,"o":"m 268 0 l 96 0 l 96 707 l 268 707 m 94 968 b 186 888 94 903 125 888 b 279 968 246 888 279 903 l 390 968 b 182 778 390 836 317 778 b -24 968 51 778 -24 836 "},"İ":{"ha":428,"x_min":0,"x_max":0,"o":"m 306 968 l 306 0 l 122 0 l 122 968 m 213 1204 b 296 1126 275 1204 296 1193 b 213 1042 296 1054 275 1042 b 131 1126 150 1042 131 1054 b 213 1204 131 1193 150 1204 "},"Ĭ":{"ha":428,"x_min":0,"x_max":0,"o":"m 306 968 l 306 0 l 122 0 l 122 968 m 128 1210 b 219 1129 128 1144 158 1129 b 313 1210 279 1129 313 1144 l 424 1210 b 215 1019 424 1078 350 1019 b 10 1210 85 1019 10 1078 "},"Ã":{"ha":947,"x_min":0,"x_max":0,"o":"m 771 0 b 678 242 743 69 710 153 l 254 242 b 179 0 226 156 201 74 l -12 0 b 338 968 78 289 219 679 l 625 968 b 974 0 724 657 865 258 l 771 0 m 453 813 b 303 399 404 688 353 544 l 625 399 b 490 813 575 542 528 688 m 726 1151 b 560 1022 700 1079 642 1022 b 361 1097 478 1022 426 1097 b 290 1028 333 1097 311 1081 l 213 1104 b 361 1214 250 1169 293 1214 b 567 1142 456 1214 503 1142 b 642 1221 599 1142 619 1160 "},"Å":{"ha":947,"x_min":0,"x_max":0,"o":"m 771 0 b 678 242 743 69 710 153 l 254 242 b 179 0 226 156 201 74 l -12 0 b 338 968 78 289 219 679 l 625 968 b 974 0 724 657 865 258 l 771 0 m 453 813 b 303 399 404 688 353 544 l 625 399 b 490 813 575 542 528 688 m 479 1236 b 644 1100 590 1236 644 1200 b 479 964 644 1000 590 964 b 313 1100 368 964 313 1000 b 479 1236 313 1200 361 1236 m 479 1158 b 410 1099 422 1158 410 1139 b 479 1039 410 1058 422 1039 b 549 1099 536 1039 549 1058 b 479 1158 549 1140 536 1158 "},"À":{"ha":947,"x_min":0,"x_max":0,"o":"m 771 0 b 678 242 743 69 710 153 l 254 242 b 179 0 226 156 201 74 l -12 0 b 338 968 78 289 219 679 l 625 968 b 974 0 724 657 865 258 l 771 0 m 453 813 b 303 399 404 688 353 544 l 625 399 b 490 813 575 542 528 688 m 447 1038 l 228 1217 l 418 1217 l 606 1038 "},"Ä":{"ha":947,"x_min":0,"x_max":0,"o":"m 771 0 b 678 242 743 69 710 153 l 254 242 b 179 0 226 156 201 74 l -12 0 b 338 968 78 289 219 679 l 625 968 b 974 0 724 657 865 258 l 771 0 m 453 813 b 303 399 404 688 353 544 l 625 399 b 490 813 575 542 528 688 m 324 1200 b 406 1122 386 1200 406 1189 b 324 1038 406 1050 386 1038 b 240 1122 261 1038 240 1050 b 324 1200 240 1189 261 1200 m 619 1200 b 701 1122 682 1200 701 1189 b 619 1038 701 1050 682 1038 b 536 1122 556 1038 536 1050 b 619 1200 536 1189 556 1200 "},"Â":{"ha":947,"x_min":0,"x_max":0,"o":"m 771 0 b 678 242 743 69 710 153 l 254 242 b 179 0 226 156 201 74 l -12 0 b 338 968 78 289 219 679 l 625 968 b 974 0 724 657 865 258 l 771 0 m 453 813 b 303 399 404 688 353 544 l 625 399 b 490 813 575 542 528 688 m 472 1146 l 375 1038 l 219 1038 l 389 1217 l 558 1217 l 733 1038 l 572 1038 "},"Ă":{"ha":947,"x_min":0,"x_max":0,"o":"m 771 0 b 678 242 743 69 710 153 l 254 242 b 179 0 226 156 201 74 l -12 0 b 338 968 78 289 219 679 l 625 968 b 974 0 724 657 865 258 l 771 0 m 453 813 b 303 399 404 688 353 544 l 625 399 b 490 813 575 542 528 688 m 382 1210 b 474 1129 382 1144 413 1129 b 567 1210 533 1129 567 1144 l 678 1210 b 469 1019 678 1078 604 1019 b 264 1210 339 1019 264 1078 "},"Á":{"ha":947,"x_min":0,"x_max":0,"o":"m 771 0 b 678 242 743 69 710 153 l 254 242 b 179 0 226 156 201 74 l -12 0 b 338 968 78 289 219 679 l 625 968 b 974 0 724 657 865 258 l 771 0 m 453 813 b 303 399 404 688 353 544 l 625 399 b 490 813 575 542 528 688 m 344 1038 l 524 1217 l 714 1217 l 494 1038 "},"ß":{"ha":908,"x_min":0,"x_max":0,"o":"m 450 992 b 815 744 703 992 815 919 b 611 513 815 617 783 528 b 838 261 794 504 838 407 b 449 -19 838 51 724 -19 b 353 -15 421 -19 383 -18 l 372 135 b 456 129 394 132 429 129 b 646 279 608 129 646 171 b 469 436 646 397 597 436 l 417 436 l 417 579 l 465 579 b 631 715 593 579 631 625 b 450 838 631 807 585 838 b 269 708 328 838 269 789 l 269 0 l 96 0 l 96 732 b 450 992 96 922 238 992 "},"ﬂ":{"ha":832,"x_min":0,"x_max":0,"o":"m 729 199 b 783 32 729 135 740 82 b 631 -32 732 11 682 -11 b 557 192 582 22 557 89 l 557 843 b 438 858 518 853 476 858 b 297 739 353 858 297 838 l 297 707 l 485 707 l 485 557 l 297 557 l 297 0 l 125 0 l 125 557 l 7 557 l 7 707 l 125 707 l 125 749 b 440 1006 125 958 257 1006 b 729 963 540 1006 632 992 "},"Đ":{"ha":1022,"x_min":0,"x_max":0,"o":"m 50 560 l 122 560 l 122 968 l 492 968 b 949 488 799 968 949 864 b 492 0 949 113 799 0 l 122 0 l 122 432 l 50 432 m 753 486 b 474 808 753 771 688 808 l 306 808 l 306 560 l 526 560 l 526 432 l 306 432 l 306 158 l 474 158 b 753 486 688 158 753 213 "},"":{"ha":454,"x_min":0,"x_max":0,"o":"m 544 1003 l 465 736 l 364 736 l 392 1003 "},"đ":{"ha":817,"x_min":0,"x_max":0,"o":"m 424 925 l 547 925 l 547 1003 l 719 1003 l 719 925 l 788 925 l 788 801 l 719 801 l 719 32 b 411 -19 643 1 513 -19 b 71 354 178 -19 71 64 b 378 728 71 640 189 728 b 547 688 458 728 510 708 l 547 801 l 424 801 m 547 514 b 408 582 547 556 486 582 b 249 357 288 582 249 533 b 411 128 249 164 289 128 b 547 149 458 128 511 136 "},"¤":{"ha":936,"x_min":0,"x_max":0,"o":"m 475 115 b 331 139 417 115 369 122 l 219 0 l 75 104 l 186 247 b 139 493 154 304 139 383 b 182 726 139 596 154 672 l 75 868 l 233 968 l 331 839 b 475 863 369 856 418 863 b 617 842 531 863 578 857 l 701 968 l 860 869 l 765 735 b 814 493 797 679 814 600 b 765 247 814 383 797 304 l 868 104 l 713 0 l 615 136 b 475 115 576 122 531 115 m 475 715 b 310 489 354 715 310 693 b 475 263 310 294 354 263 b 643 489 599 263 643 294 b 475 715 643 693 599 715 "},"h":{"ha":810,"x_min":0,"x_max":0,"o":"m 463 728 b 718 407 628 728 718 671 l 718 0 l 546 0 l 546 393 b 404 572 546 510 515 572 b 268 510 333 572 268 551 l 268 0 l 96 0 l 96 1003 l 268 1003 l 268 679 b 463 728 314 703 390 728 "},"p":{"ha":817,"x_min":0,"x_max":0,"o":"m 268 194 b 407 126 268 153 331 126 b 568 350 528 126 568 175 b 406 579 568 544 528 579 b 268 558 358 579 304 572 m 96 675 b 406 728 172 707 303 728 b 744 354 639 728 744 643 b 438 -19 744 67 626 -19 b 268 21 357 -19 307 1 l 268 -267 l 96 -267 "},"u":{"ha":810,"x_min":0,"x_max":0,"o":"m 542 707 l 714 707 l 714 40 b 379 -21 626 7 492 -21 b 92 313 181 -21 92 58 l 92 707 l 264 707 l 264 331 b 414 135 264 174 293 135 b 542 153 460 135 500 140 "},"q":{"ha":817,"x_min":0,"x_max":0,"o":"m 547 563 b 411 586 507 578 454 586 b 249 353 289 586 249 554 b 407 132 249 176 286 132 b 547 199 483 132 547 156 m 719 -267 l 547 -267 l 547 28 b 364 -19 508 4 444 -19 b 71 351 168 -19 71 64 b 411 728 71 640 178 728 b 719 675 513 728 643 707 "},"b":{"ha":817,"x_min":0,"x_max":0,"o":"m 268 144 b 406 122 308 129 361 122 b 568 356 528 122 568 154 b 408 576 568 531 529 576 b 268 510 332 576 268 551 m 96 1003 l 268 1003 l 268 681 b 451 728 307 704 372 728 b 744 358 647 728 744 644 b 406 -19 744 68 639 -19 b 96 32 303 -19 172 1 "},"d":{"ha":817,"x_min":0,"x_max":0,"o":"m 547 514 b 408 582 547 556 486 582 b 249 357 288 582 249 533 b 411 128 249 164 289 128 b 547 149 458 128 511 136 m 719 32 b 411 -19 643 1 513 -19 b 71 354 178 -19 71 64 b 378 728 71 640 189 728 b 547 688 458 728 510 708 l 547 1003 l 719 1003 "},"n":{"ha":810,"x_min":0,"x_max":0,"o":"m 268 0 l 96 0 l 96 667 b 431 728 182 700 318 728 b 718 394 629 728 718 649 l 718 0 l 546 0 l 546 376 b 394 572 546 533 517 572 b 268 556 350 572 310 567 "},"g":{"ha":817,"x_min":0,"x_max":0,"o":"m 547 563 b 411 586 507 578 454 586 b 249 353 289 586 249 554 b 407 132 249 176 286 132 b 547 199 483 132 547 156 m 547 29 b 368 -17 508 6 449 -17 b 71 351 174 -17 71 64 b 411 728 71 640 178 728 b 719 675 513 728 643 707 l 719 54 b 342 -283 719 -222 565 -283 b 93 -242 261 -283 154 -265 l 128 -103 b 340 -137 193 -124 274 -137 b 547 29 471 -137 547 -101 "},"c":{"ha":653,"x_min":0,"x_max":0,"o":"m 636 17 b 421 -19 581 -6 488 -19 b 71 357 206 -19 71 67 b 421 728 71 646 207 728 b 636 694 489 728 583 714 l 597 547 b 433 578 553 564 490 578 b 249 354 308 578 249 550 b 433 131 249 167 308 131 b 597 164 493 131 553 146 "},"e":{"ha":767,"x_min":0,"x_max":0,"o":"m 661 19 b 414 -19 590 -4 486 -19 b 71 357 210 -19 71 67 b 400 728 71 640 194 728 b 708 308 624 728 721 651 l 251 308 b 435 126 253 157 311 126 b 633 156 485 126 578 139 m 410 592 b 253 440 301 592 264 557 l 550 440 b 410 592 544 565 508 592 "},"C":{"ha":822,"x_min":0,"x_max":0,"o":"m 74 493 b 528 992 74 889 221 992 b 806 956 617 992 731 976 l 765 794 b 560 825 715 813 625 825 b 269 492 349 825 269 789 b 560 149 269 194 349 149 b 765 179 625 149 715 161 l 806 15 b 528 -19 731 -6 617 -19 b 74 493 221 -19 74 99 "},"ł":{"ha":400,"x_min":0,"x_max":0,"o":"m 282 686 l 378 790 l 378 618 l 282 514 l 282 199 b 285 165 282 188 283 176 b 336 32 288 111 301 75 b 185 -32 286 11 236 -11 b 113 156 140 15 117 68 b 110 236 111 182 110 208 l 110 329 b 21 233 81 297 50 265 l 21 404 b 110 500 50 436 81 468 l 110 1003 l 282 1003 "},"Ł":{"ha":765,"x_min":0,"x_max":0,"o":"m 522 601 l 306 414 l 306 160 l 763 160 l 763 0 l 122 0 l 122 263 l 29 182 l 29 353 l 122 433 l 122 968 l 306 968 l 306 585 l 522 774 "},"$":{"ha":864,"x_min":0,"x_max":0,"o":"m 492 1146 l 492 954 b 754 917 583 953 686 939 l 714 764 b 492 796 669 782 574 794 l 492 558 b 775 292 681 532 775 451 b 492 11 775 110 681 31 l 492 -190 l 369 -190 l 369 7 b 99 43 274 8 168 21 l 139 197 b 369 164 190 179 289 167 l 369 414 b 86 658 188 435 86 501 b 369 947 86 839 183 925 l 369 1146 m 257 678 b 369 575 257 615 281 589 l 369 790 b 257 678 294 778 257 744 m 604 282 b 492 396 604 344 582 379 l 492 169 b 604 282 564 182 604 213 "},"€":{"ha":822,"x_min":0,"x_max":0,"o":"m 74 493 b 528 992 74 889 221 992 b 806 956 617 992 731 976 l 765 794 b 560 825 715 813 625 825 b 290 672 406 825 324 803 l 622 672 l 622 554 l 271 554 b 269 492 269 539 269 507 b 271 429 269 475 269 443 l 622 429 l 622 311 l 290 311 b 560 149 322 175 404 149 b 765 179 625 149 715 161 l 806 15 b 528 -19 731 -6 617 -19 b 74 493 221 -19 74 99 "},"?":{"ha":685,"x_min":0,"x_max":0,"o":"m 326 199 b 438 101 411 199 438 186 b 326 -6 438 10 411 -6 b 219 101 246 -6 219 10 b 326 199 219 186 246 199 m 236 299 b 442 704 374 446 442 554 b 274 825 442 781 404 825 b 75 796 193 825 121 814 l 38 957 b 289 992 100 976 214 992 b 649 711 549 992 649 897 b 417 299 649 554 560 433 "},"Ý":{"ha":886,"x_min":0,"x_max":0,"o":"m 186 968 b 456 599 268 865 364 733 b 711 968 553 729 644 861 l 933 968 b 543 418 822 801 682 603 l 543 0 l 360 0 l 360 417 b -53 968 221 614 64 826 l 186 968 m 314 1038 l 493 1217 l 683 1217 l 464 1038 "},"•":{"ha":817,"x_min":0,"x_max":0,"o":"m 407 78 b 71 454 182 78 71 164 b 407 825 71 743 183 825 b 746 454 633 825 746 743 b 407 78 746 164 635 78 "},"ﬀ":{"ha":954,"x_min":0,"x_max":0,"o":"m 729 707 l 958 707 l 958 557 l 729 557 l 729 0 l 557 0 l 557 557 l 297 557 l 297 0 l 125 0 l 125 557 l 7 557 l 7 707 l 125 707 l 125 749 b 406 1006 125 956 257 1006 b 644 965 486 1006 574 993 b 813 1006 690 997 750 1006 b 1008 975 878 1006 954 993 l 969 839 b 842 858 936 850 883 858 b 729 744 774 858 729 832 m 297 707 l 557 707 l 557 754 b 568 839 557 788 560 817 b 438 858 525 851 481 858 b 297 739 347 858 297 836 "},"ﬃ":{"ha":1257,"x_min":0,"x_max":0,"o":"m 1161 0 l 989 0 l 989 557 l 729 557 l 729 0 l 557 0 l 557 557 l 297 557 l 297 0 l 125 0 l 125 557 l 7 557 l 7 707 l 125 707 l 125 749 b 408 1006 125 958 257 1006 b 656 958 489 1006 579 986 b 889 1006 715 994 796 1006 b 1151 963 983 1006 1078 989 l 1111 828 b 911 858 1061 844 988 858 b 729 739 800 858 729 839 l 729 707 l 1161 707 m 297 707 l 557 707 l 557 749 b 571 838 557 783 561 813 b 438 858 528 851 479 858 b 297 739 347 858 297 836 "},"'":{"ha":281,"x_min":0,"x_max":0,"o":"m 218 968 l 192 635 l 78 635 l 63 968 "},")":{"ha":421,"x_min":0,"x_max":0,"o":"m 326 346 b 21 -372 326 -94 192 -296 l -60 -243 b 143 346 53 -189 143 -46 b -60 935 143 736 53 881 l 21 1064 b 326 346 192 988 326 786 "},"]":{"ha":474,"x_min":0,"x_max":0,"o":"m 349 1049 l 349 -361 l -26 -361 l -26 -212 l 169 -212 l 169 899 l -26 899 l -26 1049 "},"\\":{"ha":649,"x_min":0,"x_max":0,"o":"m 146 968 l 640 0 l 454 0 l -40 968 "},"}":{"ha":469,"x_min":0,"x_max":0,"o":"m 426 275 b 274 -4 344 275 274 218 b 46 -374 274 -240 161 -335 b -36 -244 18 -331 -8 -287 b 107 51 54 -212 107 -157 b 229 346 107 269 183 332 b 107 643 183 360 107 424 b -36 938 107 850 57 906 b 46 1065 -8 981 18 1022 b 274 696 161 1026 274 932 b 426 417 274 474 344 417 l 426 381 "},"∂":{"ha":869,"x_min":0,"x_max":0,"o":"m 429 594 b 550 588 463 594 507 592 b 238 968 486 714 367 844 l 465 968 b 804 311 647 792 804 588 b 435 -24 804 50 726 -24 b 71 303 168 -24 71 58 b 429 594 71 519 157 594 m 611 331 b 599 431 611 365 607 399 b 449 440 553 438 499 440 b 263 294 293 440 263 414 b 435 140 263 186 292 140 b 611 331 568 140 611 161 "},"†":{"ha":619,"x_min":0,"x_max":0,"o":"m 42 804 l 238 804 l 238 1003 l 381 1003 l 381 804 l 578 804 l 578 665 l 381 665 l 381 349 l 238 349 l 238 665 l 42 665 "},"‡":{"ha":619,"x_min":0,"x_max":0,"o":"m 42 804 l 238 804 l 238 1003 l 381 1003 l 381 804 l 578 804 l 578 665 l 381 665 l 381 532 l 578 532 l 578 392 l 381 392 l 381 193 l 238 193 l 238 392 l 42 392 l 42 532 l 238 532 l 238 665 l 42 665 "},"‚":{"ha":340,"x_min":0,"x_max":0,"o":"m 164 -221 l 25 -221 l 133 143 l 315 143 "},"„":{"ha":625,"x_min":0,"x_max":0,"o":"m 440 -228 l 301 -228 l 410 136 l 592 136 m 171 -228 l 32 -228 l 140 136 l 322 136 "},"”":{"ha":625,"x_min":0,"x_max":0,"o":"m 440 696 l 301 696 l 410 1060 l 592 1060 m 171 696 l 32 696 l 140 1060 l 322 1060 "},"“":{"ha":625,"x_min":0,"x_max":0,"o":"m 185 1065 l 324 1065 l 215 701 l 33 701 m 454 1065 l 593 1065 l 485 701 l 303 701 "},"‘":{"ha":354,"x_min":0,"x_max":0,"o":"m 185 1065 l 324 1065 l 215 701 l 33 701 "},"’":{"ha":354,"x_min":0,"x_max":0,"o":"m 171 694 l 32 694 l 140 1058 l 322 1058 "},"‹":{"ha":549,"x_min":0,"x_max":0,"o":"m 267 436 l 511 147 l 414 43 l 38 433 l 413 821 l 511 719 "},">":{"ha":808,"x_min":0,"x_max":0,"o":"m 490 499 l 118 815 l 208 939 l 715 543 l 715 458 l 210 64 l 118 186 "},"−":{"ha":808,"x_min":0,"x_max":0,"o":"m 67 585 l 742 585 l 742 421 l 67 421 "},"+":{"ha":808,"x_min":0,"x_max":0,"o":"m 67 585 l 321 585 l 321 840 l 486 840 l 486 585 l 742 585 l 742 421 l 486 421 l 486 165 l 321 165 l 321 421 l 67 421 "},"›":{"ha":549,"x_min":0,"x_max":0,"o":"m 283 429 l 38 719 l 135 822 l 513 433 l 138 44 l 38 146 "},"«":{"ha":928,"x_min":0,"x_max":0,"o":"m 267 436 l 511 147 l 414 43 l 38 433 l 413 821 l 511 719 m 646 436 l 890 147 l 793 43 l 417 433 l 792 821 l 890 719 "},"»":{"ha":928,"x_min":0,"x_max":0,"o":"m 663 429 l 417 719 l 514 822 l 892 433 l 517 44 l 417 146 m 283 429 l 38 719 l 135 822 l 513 433 l 138 44 l 38 146 "},"¦":{"ha":515,"x_min":0,"x_max":0,"o":"m 349 1049 l 349 539 l 167 539 l 167 1049 m 349 154 l 349 -356 l 167 -356 l 167 154 "},"×":{"ha":808,"x_min":0,"x_max":0,"o":"m 107 324 l 286 504 l 106 683 l 222 800 l 403 619 l 583 801 l 700 683 l 519 503 l 700 322 l 583 207 l 403 388 l 224 207 "},"Ð":{"ha":1022,"x_min":0,"x_max":0,"o":"m 50 560 l 122 560 l 122 968 l 492 968 b 949 488 799 968 949 864 b 492 0 949 113 799 0 l 122 0 l 122 432 l 50 432 m 753 486 b 474 808 753 771 688 808 l 306 808 l 306 560 l 526 560 l 526 432 l 306 432 l 306 158 l 474 158 b 753 486 688 158 753 213 "},"±":{"ha":808,"x_min":0,"x_max":0,"o":"m 67 692 l 321 692 l 321 947 l 486 947 l 486 692 l 742 692 l 742 528 l 486 528 l 486 272 l 321 272 l 321 528 l 67 528 m 67 190 l 742 190 l 742 26 l 67 26 "},"≤":{"ha":808,"x_min":0,"x_max":0,"o":"m 67 190 l 742 190 l 742 26 l 67 26 m 331 606 l 693 335 l 606 221 l 106 568 l 106 640 l 604 986 l 693 874 "},"≥":{"ha":808,"x_min":0,"x_max":0,"o":"m 743 26 l 68 26 l 68 190 l 743 190 m 117 874 l 206 986 l 704 640 l 704 568 l 203 221 l 117 335 l 478 606 "},"÷":{"ha":808,"x_min":0,"x_max":0,"o":"m 67 585 l 742 585 l 742 421 l 67 421 m 401 311 b 513 213 486 311 513 297 b 401 106 513 121 486 106 b 294 213 321 106 294 121 b 401 311 294 297 321 311 m 401 896 b 513 799 486 896 513 883 b 401 692 513 707 486 692 b 294 799 321 692 294 707 b 401 896 294 883 321 896 "},"µ":{"ha":810,"x_min":0,"x_max":0,"o":"m 83 -267 l 92 296 l 92 707 l 264 707 l 264 331 b 414 135 264 207 283 135 b 542 153 460 135 499 140 l 542 707 l 714 707 l 714 40 b 379 -19 626 7 492 -19 b 247 3 325 -19 282 -14 l 251 -267 "},"←":{"ha":1051,"x_min":0,"x_max":0,"o":"m 21 510 l 540 983 l 663 860 l 361 590 l 1031 590 l 1031 428 l 361 428 l 663 160 l 542 36 "},"↑":{"ha":1054,"x_min":0,"x_max":0,"o":"m 528 1014 l 1000 493 l 878 371 l 608 674 l 608 4 l 446 4 l 446 674 l 178 371 l 53 493 "},"→":{"ha":1051,"x_min":0,"x_max":0,"o":"m 1031 510 l 510 35 l 388 160 l 690 428 l 21 428 l 21 590 l 690 590 l 388 860 l 510 982 "},"↓":{"ha":1054,"x_min":0,"x_max":0,"o":"m 526 4 l 53 524 l 176 646 l 446 344 l 446 1014 l 608 1014 l 608 344 l 876 646 l 1000 525 "},"ð":{"ha":869,"x_min":0,"x_max":0,"o":"m 286 757 l 383 818 b 238 968 338 869 288 918 l 465 968 b 531 906 486 949 508 928 l 615 958 l 682 868 l 606 819 b 804 311 722 676 804 513 b 435 -24 804 50 726 -24 b 71 303 168 -24 71 58 b 429 594 71 519 157 594 b 550 588 454 594 517 592 b 454 729 525 636 493 683 l 354 667 m 449 440 b 263 294 293 440 263 414 b 435 140 263 186 292 140 b 611 331 568 140 611 161 b 599 431 611 365 607 399 b 449 440 553 438 499 440 "},"`":{"ha":668,"x_min":0,"x_max":0,"o":"m 329 789 l 129 968 l 313 968 l 482 789 "},"¼":{"ha":1194,"x_min":0,"x_max":0,"o":"m 918 968 l 321 0 l 151 0 l 749 968 m 594 136 l 594 196 b 864 600 671 328 781 489 l 1054 600 l 1054 263 l 1133 263 l 1133 136 l 1054 136 l 1054 0 l 911 0 l 911 136 m 911 486 b 758 263 851 411 797 332 l 911 263 m 200 386 l 200 811 l 69 754 l 31 876 l 346 1007 l 346 386 "},"¹":{"ha":524,"x_min":0,"x_max":0,"o":"m 221 386 l 221 811 l 89 754 l 51 876 l 365 1007 l 365 386 "},"¾":{"ha":1194,"x_min":0,"x_max":0,"o":"m 1007 968 l 408 0 l 239 0 l 838 968 m 614 136 l 614 196 b 885 600 692 328 800 489 l 1074 600 l 1074 263 l 1154 263 l 1154 136 l 1074 136 l 1074 0 l 931 0 l 931 136 m 931 486 b 778 263 872 411 818 332 l 931 263 m 157 746 l 226 746 b 322 811 303 746 322 761 b 208 869 322 857 303 869 b 60 850 149 869 97 863 l 38 968 b 232 990 90 981 163 990 b 481 838 404 990 481 947 b 347 693 481 753 454 701 b 494 538 460 688 494 632 b 232 364 494 408 403 364 b 33 388 169 364 89 374 l 56 506 b 210 486 94 494 160 486 b 335 558 310 486 335 503 b 229 631 335 618 310 631 l 157 631 "},"³":{"ha":588,"x_min":0,"x_max":0,"o":"m 182 746 l 251 746 b 347 811 328 746 347 761 b 233 869 347 857 328 869 b 85 850 174 869 122 863 l 63 968 b 257 990 115 981 188 990 b 506 838 429 990 506 947 b 372 693 506 753 479 701 b 519 538 485 688 519 632 b 257 364 519 408 428 364 b 58 388 194 364 114 374 l 81 506 b 235 486 119 494 185 486 b 360 558 335 486 360 503 b 254 631 360 618 335 631 l 182 631 "},"²":{"ha":596,"x_min":0,"x_max":0,"o":"m 69 964 b 265 990 118 979 196 990 b 519 806 436 990 519 942 b 393 617 519 722 488 650 b 222 504 288 579 231 563 l 521 504 l 521 381 l 50 381 b 249 686 64 567 124 633 b 369 794 324 715 369 743 b 254 858 369 842 340 858 b 93 835 203 858 128 847 "},"∞":{"ha":1074,"x_min":0,"x_max":0,"o":"m 468 488 b 326 625 468 585 429 625 b 196 488 226 625 196 589 b 326 349 196 385 226 349 b 468 488 429 349 468 390 m 538 367 b 296 186 522 214 428 186 b 38 488 119 186 38 251 b 296 788 38 722 119 788 b 538 608 428 788 522 760 b 778 788 551 761 646 788 b 1036 488 954 788 1036 724 b 778 186 1036 251 954 186 b 538 367 646 186 551 215 m 606 488 b 747 350 606 390 644 350 b 878 488 847 350 878 386 b 747 625 878 589 847 625 b 606 488 644 625 606 585 "},"∏":{"ha":1022,"x_min":0,"x_max":0,"o":"m 306 0 l 122 0 l 122 968 l 900 968 l 900 0 l 719 0 l 719 803 l 306 803 "},"π":{"ha":882,"x_min":0,"x_max":0,"o":"m 35 707 l 847 707 l 847 543 l 733 543 l 733 0 l 561 0 l 561 543 l 317 543 l 317 169 b 206 -56 317 43 271 -22 l 96 61 b 144 167 124 76 144 107 l 144 543 l 35 543 "},"∫":{"ha":471,"x_min":0,"x_max":0,"o":"m 525 839 b 390 858 492 850 432 858 b 276 744 324 858 276 842 l 276 -19 b 1 -282 276 -231 138 -282 b -204 -249 -67 -282 -144 -271 l -169 -115 b -15 -143 -126 -132 -69 -143 b 104 -19 54 -143 104 -107 l 104 754 b 361 1006 104 942 218 1006 b 564 975 428 1006 510 993 "},"ª":{"ha":604,"x_min":0,"x_max":0,"o":"m 521 503 b 292 464 458 479 363 464 b 83 631 135 464 83 499 b 278 794 83 772 163 794 b 400 781 321 794 358 790 b 276 888 400 868 376 888 b 126 865 222 888 168 879 l 106 965 b 303 992 156 978 231 992 b 521 801 449 992 521 949 m 400 574 l 400 697 b 303 707 374 704 339 707 b 211 636 244 707 211 699 b 301 557 211 576 229 557 b 400 574 336 557 372 564 "},"º":{"ha":639,"x_min":0,"x_max":0,"o":"m 318 450 b 76 722 161 450 76 518 b 318 992 76 928 163 992 b 563 722 478 992 563 928 b 318 450 563 518 478 450 m 318 882 b 211 721 236 882 211 858 b 318 560 211 589 236 560 b 428 721 401 560 428 589 b 318 882 428 858 401 882 "},"Ω":{"ha":1108,"x_min":0,"x_max":0,"o":"m 21 164 l 240 164 b 107 549 160 219 107 369 b 554 992 107 889 261 992 b 1000 549 847 992 1000 889 b 867 164 1000 369 947 219 l 1088 164 l 1088 0 l 642 0 l 642 156 b 807 546 778 194 807 332 b 554 826 807 776 753 826 b 300 546 356 826 300 776 b 464 157 300 333 329 196 l 464 0 l 21 0 "},"¿":{"ha":685,"x_min":0,"x_max":0,"o":"m 360 524 b 249 621 275 524 249 536 b 360 728 249 713 275 728 b 467 621 440 728 467 713 b 360 524 467 536 440 524 m 450 424 b 244 18 313 276 244 168 b 413 -103 244 -58 282 -103 b 611 -74 493 -103 565 -92 l 649 -235 b 397 -269 586 -254 472 -269 b 38 11 138 -269 38 -175 b 269 424 38 168 126 289 "},"¡":{"ha":461,"x_min":0,"x_max":0,"o":"m 125 -247 l 169 411 l 294 411 l 339 -247 m 231 522 b 121 619 147 522 121 535 b 231 728 121 711 147 728 b 339 619 311 728 339 711 b 231 522 339 535 311 522 "},"√":{"ha":803,"x_min":0,"x_max":0,"o":"m 229 707 b 404 174 293 549 356 356 b 665 968 471 350 619 790 l 840 968 b 501 0 772 739 596 229 l 289 0 b 114 538 236 182 176 372 l 0 538 l 0 707 "},"ƒ":{"ha":522,"x_min":0,"x_max":0,"o":"m 349 707 l 585 707 l 565 558 l 329 558 l 285 -19 b -14 -282 264 -231 121 -282 b -217 -249 -89 -282 -160 -269 l -167 -115 b -24 -143 -126 -132 -69 -143 b 113 -19 50 -143 106 -117 l 157 558 l 32 558 l 51 707 l 176 707 l 179 754 b 458 1006 192 963 324 1006 b 657 975 528 1006 607 993 l 601 839 b 469 858 569 850 510 858 b 349 744 401 858 354 835 "},"≈":{"ha":808,"x_min":0,"x_max":0,"o":"m 758 357 b 546 199 725 268 650 199 b 242 317 440 199 326 317 b 153 233 208 317 181 297 l 53 329 b 243 465 100 410 156 465 b 553 350 363 465 472 350 b 647 444 594 350 621 371 m 758 653 b 546 494 725 564 650 494 b 242 613 440 494 326 613 b 153 529 208 613 181 593 l 53 625 b 243 761 100 706 156 761 b 553 646 363 761 472 646 b 647 740 594 646 621 667 "},"~":{"ha":808,"x_min":0,"x_max":0,"o":"m 758 531 b 546 371 725 442 650 371 b 242 490 440 371 326 490 b 153 407 208 490 181 471 l 53 503 b 243 638 100 583 156 638 b 553 522 363 638 472 522 b 647 618 594 522 621 544 "},"Δ":{"ha":900,"x_min":0,"x_max":0,"o":"m -25 0 b 329 968 64 289 207 679 l 564 968 b 914 0 658 660 800 258 m 435 782 b 214 158 356 590 281 372 l 649 158 b 435 782 572 357 492 588 "},"◊":{"ha":833,"x_min":0,"x_max":0,"o":"m 808 368 b 571 -233 721 165 640 -33 l 283 -233 b 26 368 196 -42 108 157 b 283 971 108 581 196 781 l 571 971 b 808 368 640 771 721 572 m 615 369 b 436 840 565 500 474 724 l 399 840 b 207 369 350 724 257 503 b 399 -101 257 236 350 14 l 436 -101 b 615 369 474 14 565 239 "},"ﬄ":{"ha":1265,"x_min":0,"x_max":0,"o":"m 1161 199 b 1215 32 1161 135 1172 82 b 1063 -32 1164 11 1114 -11 b 989 192 1014 22 989 89 l 989 843 b 869 858 950 853 908 858 b 729 739 786 858 729 836 l 729 707 l 917 707 l 917 557 l 729 557 l 729 0 l 557 0 l 557 557 l 297 557 l 297 0 l 125 0 l 125 557 l 7 557 l 7 707 l 125 707 l 125 749 b 408 1006 125 958 257 1006 b 653 960 489 1006 579 989 b 872 1006 708 994 785 1006 b 1161 963 972 1006 1064 992 m 557 749 b 571 838 557 785 561 814 b 438 858 528 850 482 858 b 297 725 335 858 297 826 l 297 707 l 557 707 l 557 749 "},"Š":{"ha":864,"x_min":0,"x_max":0,"o":"m 736 790 b 481 825 682 810 578 825 b 263 699 326 825 263 793 b 475 575 263 625 299 592 b 800 285 700 551 800 468 b 382 -19 800 57 661 -19 b 81 24 275 -19 158 -3 l 121 182 b 379 147 182 163 285 147 b 603 275 533 147 603 175 b 382 410 603 347 568 393 b 68 676 168 431 68 497 b 481 992 68 904 210 992 b 776 949 586 992 700 974 m 449 1108 l 546 1217 l 701 1217 l 532 1038 l 363 1038 l 188 1217 l 347 1217 "},"š":{"ha":682,"x_min":0,"x_max":0,"o":"m 565 554 b 360 588 510 572 431 588 b 232 506 275 588 232 579 b 378 429 232 457 263 440 b 624 217 549 411 624 358 b 321 -19 624 33 501 -19 b 68 18 246 -19 135 -6 l 104 154 b 314 121 156 136 243 121 b 453 207 408 121 453 133 b 301 292 453 257 425 281 b 63 493 146 304 63 347 b 365 728 63 676 186 728 b 603 689 439 728 532 713 m 254 968 l 353 863 l 449 968 l 606 968 l 436 789 l 267 789 l 92 968 "}," ":{"ha":369,"x_min":0,"x_max":0,"o":""},"℮":{"ha":988,"x_min":0,"x_max":0,"o":"m 271 421 b 544 147 278 193 351 147 b 782 179 610 147 731 161 l 821 15 b 543 -19 746 -6 632 -19 b 74 493 236 -19 74 100 b 507 992 74 886 235 992 b 929 465 790 992 929 849 b 929 421 929 451 929 436 m 507 826 b 272 585 356 826 283 792 l 735 585 b 507 826 726 788 657 826 "},"‰":{"ha":1881,"x_min":0,"x_max":0,"o":"m 1042 968 l 446 0 l 285 0 l 879 968 m 301 992 b 554 682 481 992 554 928 b 301 361 554 435 481 361 b 49 682 122 361 49 435 b 301 992 49 928 122 992 m 301 485 b 401 681 379 485 401 519 b 301 869 401 843 379 869 b 200 681 225 869 200 843 b 301 485 200 519 225 485 m 1031 610 b 1283 301 1210 610 1283 546 b 1031 -19 1283 53 1210 -19 b 778 301 851 -19 778 53 b 1031 610 778 546 851 610 m 1031 103 b 1131 300 1108 103 1131 138 b 1031 488 1131 463 1108 488 b 929 300 954 488 929 463 b 1031 103 929 138 954 103 m 1579 610 b 1832 301 1758 610 1832 546 b 1579 -19 1832 53 1758 -19 b 1326 301 1400 -19 1326 53 b 1579 610 1326 546 1400 610 m 1579 103 b 1679 300 1657 103 1679 138 b 1579 488 1679 463 1657 488 b 1478 300 1503 488 1478 463 b 1579 103 1478 138 1503 103 "},"@":{"ha":1304,"x_min":0,"x_max":0,"o":"m 596 733 b 236 372 319 733 236 682 b 651 -4 236 63 322 -4 b 1074 418 981 -4 1074 82 b 1043 678 1074 536 1063 626 l 1200 678 b 1228 413 1218 617 1228 531 b 653 -149 1228 -19 1054 -149 b 75 369 247 -149 75 -39 b 590 876 75 775 265 876 b 944 490 844 876 944 821 b 636 132 944 181 874 132 b 353 367 422 132 353 181 b 611 597 353 563 426 597 b 785 583 672 597 746 592 b 596 733 783 700 742 733 m 654 475 b 521 372 553 475 521 463 b 656 264 521 285 549 264 b 785 400 751 264 785 290 l 785 465 b 654 475 749 472 690 475 "},"°":{"ha":603,"x_min":0,"x_max":0,"o":"m 301 992 b 554 682 481 992 554 928 b 301 361 554 435 481 361 b 49 682 122 361 49 435 b 301 992 49 928 122 992 m 301 485 b 401 681 379 485 401 519 b 301 869 401 843 379 869 b 200 681 225 869 200 843 b 301 485 200 519 225 485 "},"/":{"ha":649,"x_min":0,"x_max":0,"o":"m 701 968 l 207 0 l 21 0 l 515 968 "},"&":{"ha":1106,"x_min":0,"x_max":0,"o":"m 1057 550 b 925 214 1057 429 1007 311 b 1075 0 972 153 1019 82 l 867 0 b 799 104 844 36 821 72 b 435 -19 686 21 589 -19 b 69 253 171 -19 69 46 b 329 503 69 399 144 494 b 133 733 156 517 133 606 b 469 992 133 901 208 992 b 806 749 722 992 806 918 b 583 518 806 621 757 532 b 815 343 644 513 715 467 b 872 550 851 403 872 474 l 1057 550 m 435 131 b 704 228 551 131 619 156 b 443 436 606 361 525 436 b 264 279 319 436 264 392 b 435 131 264 168 301 131 m 461 579 b 621 714 564 579 621 615 b 469 839 621 810 578 839 b 318 715 360 839 318 811 b 461 579 318 617 357 579 "},"А":{"ha":947,"x_min":0,"x_max":0,"o":"m 771 0 b 678 242 743 69 710 153 l 254 242 b 179 0 226 156 201 74 l -12 0 b 338 968 78 289 219 679 l 625 968 b 974 0 724 657 865 258 l 771 0 m 453 813 b 303 399 404 688 353 544 l 625 399 b 490 813 575 542 528 688 "},"В":{"ha":989,"x_min":0,"x_max":0,"o":"m 611 154 b 704 290 678 154 704 203 b 606 433 704 382 672 433 l 306 433 l 306 154 m 306 582 l 603 582 b 686 699 664 582 686 626 b 603 813 686 776 665 813 l 306 813 m 679 513 b 901 265 864 504 901 410 b 651 0 901 75 807 0 l 122 0 l 122 968 l 643 968 b 881 736 836 968 881 878 b 679 513 881 608 853 528 "},"Е":{"ha":861,"x_min":0,"x_max":0,"o":"m 825 968 l 825 810 l 306 810 l 306 586 l 676 586 l 676 429 l 306 429 l 306 158 l 825 158 l 825 0 l 122 0 l 122 968 "},"К":{"ha":922,"x_min":0,"x_max":0,"o":"m 713 0 b 306 460 574 369 476 444 l 306 0 l 122 0 l 122 968 l 306 968 l 306 501 b 685 968 388 581 543 760 l 907 968 b 553 533 729 718 601 574 b 931 0 668 494 765 432 "},"М":{"ha":1272,"x_min":0,"x_max":0,"o":"m 644 349 b 913 968 721 551 822 782 l 1150 968 l 1150 0 l 971 0 l 971 721 b 701 89 883 528 779 279 l 558 89 b 299 721 483 279 383 535 l 299 0 l 122 0 l 122 968 l 372 968 b 644 349 464 779 564 550 "},"Н":{"ha":1022,"x_min":0,"x_max":0,"o":"m 306 0 l 122 0 l 122 968 l 306 968 l 306 599 l 719 599 l 719 968 l 900 968 l 900 0 l 719 0 l 719 429 l 306 429 "},"О":{"ha":1069,"x_min":0,"x_max":0,"o":"m 535 992 b 994 493 842 992 994 886 b 535 -19 994 93 842 -19 b 74 493 226 -19 74 93 b 535 992 74 886 228 992 m 535 146 b 800 490 747 146 800 199 b 535 826 800 783 747 826 b 269 490 322 826 269 783 b 535 146 269 199 322 146 "},"Р":{"ha":935,"x_min":0,"x_max":0,"o":"m 575 472 b 694 638 651 472 694 528 b 579 813 694 756 654 813 l 306 813 l 306 472 m 122 0 l 122 968 l 626 968 b 896 636 831 968 896 825 b 631 319 896 469 817 319 l 306 319 l 306 0 "},"С":{"ha":822,"x_min":0,"x_max":0,"o":"m 74 493 b 528 992 74 889 221 992 b 806 956 617 992 731 976 l 765 794 b 560 825 715 813 625 825 b 269 492 349 825 269 789 b 560 149 269 194 349 149 b 765 179 625 149 715 161 l 806 15 b 528 -19 731 -6 617 -19 b 74 493 221 -19 74 99 "},"Т":{"ha":846,"x_min":0,"x_max":0,"o":"m 331 0 l 331 810 l 4 810 l 4 968 l 842 968 l 842 810 l 515 810 l 515 0 "},"Х":{"ha":936,"x_min":0,"x_max":0,"o":"m 235 968 b 478 649 306 878 389 768 b 700 968 558 761 636 872 l 925 968 b 590 493 826 824 710 658 b 940 0 719 314 850 132 l 713 0 b 476 335 643 100 563 215 b 219 0 386 215 300 101 l -6 0 b 364 489 90 119 229 304 b 0 968 232 667 99 843 l 235 968 "},"Я":{"ha":981,"x_min":0,"x_max":0,"o":"m 675 813 l 397 813 b 289 663 329 813 289 764 b 401 521 289 568 331 521 l 675 521 m 339 424 b 85 686 146 431 85 547 b 354 968 85 842 150 968 l 858 968 l 858 0 l 675 0 l 675 369 l 521 369 b 249 0 410 369 346 321 l 38 0 b 339 424 163 353 225 406 "},"И":{"ha":1075,"x_min":0,"x_max":0,"o":"m 951 0 l 772 0 l 772 700 b 363 0 644 464 504 221 l 122 0 l 122 968 l 303 968 l 303 238 b 731 968 453 479 600 726 l 951 968 "},"о":{"ha":817,"x_min":0,"x_max":0,"o":"m 407 -19 b 71 357 182 -19 71 67 b 407 728 71 646 183 728 b 746 357 633 728 746 646 b 407 -19 746 67 635 -19 m 407 588 b 249 354 286 588 249 557 b 407 121 249 158 286 121 b 568 354 531 121 568 158 b 407 588 568 557 531 588 "},"р":{"ha":817,"x_min":0,"x_max":0,"o":"m 268 194 b 407 126 268 153 331 126 b 568 350 528 126 568 175 b 406 579 568 544 528 579 b 268 558 358 579 304 572 m 96 675 b 406 728 172 707 303 728 b 744 354 639 728 744 643 b 438 -19 744 67 626 -19 b 268 21 357 -19 307 1 l 268 -267 l 96 -267 "},"с":{"ha":653,"x_min":0,"x_max":0,"o":"m 636 17 b 421 -19 581 -6 488 -19 b 71 357 206 -19 71 67 b 421 728 71 646 207 728 b 636 694 489 728 583 714 l 597 547 b 433 578 553 564 490 578 b 249 354 308 578 249 550 b 433 131 249 167 308 131 b 597 164 493 131 553 146 "},"у":{"ha":710,"x_min":0,"x_max":0,"o":"m 250 -35 b 0 707 181 217 88 496 l 179 707 b 354 171 242 551 306 353 b 529 707 421 347 485 532 l 704 707 b 436 -29 633 465 539 213 b 326 -267 403 -108 363 -197 l 135 -267 b 250 -35 172 -200 215 -111 "},"х":{"ha":724,"x_min":0,"x_max":0,"o":"m 522 0 b 374 224 483 65 431 143 b 200 0 311 139 251 63 l 8 0 b 283 353 83 88 186 221 b 10 707 188 486 86 618 l 215 707 b 378 490 263 649 321 571 b 524 707 438 572 486 649 l 715 707 b 472 358 651 611 563 483 b 717 0 561 233 650 103 "},"Ѕ":{"ha":864,"x_min":0,"x_max":0,"o":"m 736 790 b 481 825 682 810 578 825 b 263 699 326 825 263 793 b 475 575 263 625 299 592 b 800 285 700 551 800 468 b 382 -19 800 57 661 -19 b 81 24 275 -19 158 -3 l 121 182 b 379 147 182 163 285 147 b 603 275 533 147 603 175 b 382 410 603 347 568 393 b 68 676 168 431 68 497 b 481 992 68 904 210 992 b 776 949 586 992 700 974 "},"Б":{"ha":988,"x_min":0,"x_max":0,"o":"m 611 154 b 704 290 678 154 704 203 b 606 433 704 382 672 433 l 306 433 l 306 154 m 819 810 l 306 810 l 306 582 l 643 582 b 901 288 825 582 901 476 b 651 0 901 75 807 0 l 122 0 l 122 968 l 819 968 "},"Г":{"ha":756,"x_min":0,"x_max":0,"o":"m 122 0 l 122 968 l 776 968 l 776 810 l 306 810 l 306 0 "},"Ж":{"ha":1326,"x_min":0,"x_max":0,"o":"m -8 0 b 339 533 143 432 232 494 b 13 968 293 574 179 718 l 229 968 b 571 507 357 764 494 589 l 571 968 l 754 968 l 754 507 b 1097 968 829 589 968 764 l 1313 968 b 988 533 1147 718 1032 574 b 1335 0 1093 494 1182 432 l 1122 0 b 754 461 994 368 910 446 l 754 0 l 571 0 l 571 461 b 203 0 414 444 329 367 "},"З":{"ha":892,"x_min":0,"x_max":0,"o":"m 268 586 l 422 586 b 588 710 546 586 588 615 b 365 828 588 797 546 828 b 111 797 292 828 171 815 l 75 956 b 401 992 160 974 290 992 b 782 744 683 992 782 919 b 578 513 782 617 750 528 b 804 261 761 504 804 407 b 401 -19 804 51 676 -19 b 69 15 300 -19 157 -4 l 104 175 b 365 146 168 157 290 146 b 606 286 551 146 606 182 b 426 431 606 396 551 431 l 268 431 "},"П":{"ha":1022,"x_min":0,"x_max":0,"o":"m 306 0 l 122 0 l 122 968 l 900 968 l 900 0 l 719 0 l 719 810 l 306 810 "},"Л":{"ha":1011,"x_min":0,"x_max":0,"o":"m 407 810 b 236 0 388 561 329 267 l 43 0 b 239 968 138 288 224 615 l 889 968 l 889 0 l 708 0 l 708 810 "},"Д":{"ha":1114,"x_min":0,"x_max":0,"o":"m 942 165 l 1114 165 l 1085 -214 l 924 -214 l 924 0 l 197 0 l 197 -214 l 36 -214 l 6 165 l 158 165 b 303 968 240 396 290 661 l 942 968 m 760 810 l 471 810 b 357 165 456 596 424 371 l 760 165 "},"І":{"ha":428,"x_min":0,"x_max":0,"o":"m 306 968 l 306 0 l 122 0 l 122 968 "},"ј":{"ha":364,"x_min":0,"x_max":0,"o":"m 183 1001 b 282 917 258 1001 282 990 b 183 821 282 835 258 821 b 83 917 107 821 83 835 b 183 1001 83 990 107 1001 m -22 -139 b 96 -19 56 -139 96 -114 l 96 707 l 268 707 l 268 -15 b -22 -282 268 -225 171 -282 "},"Й":{"ha":1075,"x_min":0,"x_max":0,"o":"m 951 0 l 772 0 l 772 700 b 363 0 644 464 504 221 l 122 0 l 122 968 l 303 968 l 303 238 b 731 968 453 479 600 726 l 951 968 m 449 1210 b 540 1129 449 1144 479 1129 b 633 1210 600 1129 633 1144 l 744 1210 b 536 1019 744 1078 671 1019 b 331 1210 406 1019 331 1078 "},"У":{"ha":851,"x_min":0,"x_max":0,"o":"m 438 444 b 665 968 524 619 614 819 l 872 968 b 393 0 746 646 550 256 l 163 0 b 324 246 213 67 279 167 b -21 968 258 426 96 776 l 197 968 b 438 444 275 828 372 622 "},"Ф":{"ha":1110,"x_min":0,"x_max":0,"o":"m 635 968 l 635 847 b 1050 486 958 832 1050 725 b 635 124 1050 246 958 139 l 635 0 l 453 0 l 453 124 b 50 486 135 139 50 246 b 453 847 50 725 135 832 l 453 968 m 864 485 b 635 697 864 638 835 692 l 635 274 b 864 485 835 279 864 336 m 233 485 b 453 274 233 338 264 281 l 453 696 b 233 485 263 689 233 635 "},"Ц":{"ha":1074,"x_min":0,"x_max":0,"o":"m 306 165 l 719 165 l 719 968 l 900 968 l 900 165 l 1074 165 l 1043 -214 l 883 -214 l 883 0 l 122 0 l 122 968 l 306 968 "},"Щ":{"ha":1403,"x_min":0,"x_max":0,"o":"m 306 165 l 586 165 l 586 968 l 768 968 l 768 165 l 1049 165 l 1049 968 l 1231 968 l 1231 165 l 1403 165 l 1374 -214 l 1213 -214 l 1213 0 l 122 0 l 122 968 l 306 968 "},"Ш":{"ha":1353,"x_min":0,"x_max":0,"o":"m 1231 0 l 122 0 l 122 968 l 306 968 l 306 165 l 586 165 l 586 968 l 768 968 l 768 165 l 1049 165 l 1049 968 l 1231 968 "},"Ь":{"ha":954,"x_min":0,"x_max":0,"o":"m 600 154 b 704 311 674 154 704 208 b 596 471 704 417 667 471 l 306 471 l 306 154 m 306 968 l 306 624 l 643 624 b 903 311 833 624 903 486 b 651 0 903 115 825 0 l 122 0 l 122 968 "},"Ы":{"ha":1299,"x_min":0,"x_max":0,"o":"m 600 154 b 704 311 674 154 704 208 b 596 471 704 417 667 471 l 306 471 l 306 154 m 306 968 l 306 624 l 643 624 b 903 311 833 624 903 486 b 651 0 903 115 825 0 l 122 0 l 122 968 m 1176 968 l 1176 0 l 993 0 l 993 968 "},"Ъ":{"ha":1001,"x_min":0,"x_max":0,"o":"m 353 968 l 353 624 l 690 624 b 950 311 881 624 950 486 b 699 0 950 135 881 0 l 169 0 l 169 810 l 24 810 l 24 968 m 647 154 b 751 311 721 154 751 208 b 643 471 751 417 714 471 l 353 471 l 353 154 "},"Ю":{"ha":1342,"x_min":0,"x_max":0,"o":"m 893 992 b 1268 497 1135 992 1268 889 b 893 -19 1268 100 1135 -19 b 518 429 668 -19 532 86 l 306 429 l 306 0 l 122 0 l 122 968 l 306 968 l 306 599 l 519 599 b 893 992 540 907 676 992 m 893 146 b 1079 497 1038 146 1079 206 b 893 829 1079 790 1038 829 b 706 497 753 829 706 790 b 893 146 706 206 753 146 "},"Э":{"ha":856,"x_min":0,"x_max":0,"o":"m 168 431 l 168 586 l 581 586 b 289 825 563 796 474 825 b 76 794 224 825 126 813 l 36 956 b 321 992 111 976 232 992 b 782 493 628 992 782 889 b 321 -19 782 99 628 -19 b 36 15 232 -19 111 -6 l 76 179 b 289 149 126 161 224 149 b 582 431 482 149 571 190 "},"Ч":{"ha":926,"x_min":0,"x_max":0,"o":"m 621 968 l 804 968 l 804 0 l 621 0 l 621 311 b 385 267 579 288 485 267 b 35 607 181 267 35 325 l 35 968 l 218 968 l 218 619 b 421 438 218 468 272 438 b 621 526 543 438 621 468 "},"і":{"ha":364,"x_min":0,"x_max":0,"o":"m 268 0 l 96 0 l 96 707 l 268 707 m 183 1001 b 282 917 258 1001 282 990 b 183 821 282 835 258 821 b 83 917 107 821 83 835 b 183 1001 83 990 107 1001 "},"Є":{"ha":856,"x_min":0,"x_max":0,"o":"m 274 431 b 567 149 285 190 374 149 b 779 179 632 149 729 161 l 819 15 b 535 -19 744 -6 624 -19 b 74 493 228 -19 74 99 b 535 992 74 889 228 992 b 819 956 624 992 744 976 l 779 794 b 567 825 729 813 632 825 b 275 586 382 825 293 796 l 688 586 l 688 431 "},"Ѓ":{"ha":765,"x_min":0,"x_max":0,"o":"m 122 0 l 122 968 l 776 968 l 776 810 l 306 810 l 306 0 m 318 1038 l 497 1217 l 688 1217 l 469 1038 "},"Ђ":{"ha":1047,"x_min":0,"x_max":0,"o":"m 515 810 l 515 624 b 710 672 560 647 636 672 b 975 275 883 672 975 610 b 754 -254 975 -68 857 -200 l 633 -136 b 793 269 717 -90 793 -24 b 650 517 793 486 756 517 b 515 458 582 517 518 496 l 515 0 l 331 0 l 331 810 l 4 810 l 4 968 l 842 968 l 842 810 "},"ђ":{"ha":800,"x_min":0,"x_max":0,"o":"m 268 663 b 463 711 314 689 390 711 b 729 307 638 711 729 643 b 508 -254 729 -35 611 -200 l 386 -136 b 546 301 471 -90 546 8 b 404 550 546 519 508 550 b 268 490 336 550 272 529 l 268 0 l 96 0 l 96 807 l 25 807 l 25 928 l 96 928 l 96 1003 l 268 1003 l 268 928 l 411 928 l 411 807 l 268 807 "},"Ј":{"ha":640,"x_min":0,"x_max":0,"o":"m 522 267 b 228 -19 522 36 375 -19 b 8 18 149 -19 69 -4 l 44 182 b 210 153 90 164 151 153 b 336 290 279 153 336 181 l 336 968 l 521 968 "},"є":{"ha":668,"x_min":0,"x_max":0,"o":"m 635 17 b 421 -19 579 -6 488 -19 b 71 357 213 -19 71 67 b 419 728 71 646 213 728 b 635 694 488 728 582 714 l 597 556 b 431 582 553 574 488 582 b 254 440 332 582 269 560 l 533 440 l 533 308 l 251 308 b 431 125 260 160 322 125 b 597 154 490 125 553 136 "},"Ї":{"ha":428,"x_min":0,"x_max":0,"o":"m 306 968 l 306 0 l 122 0 l 122 968 m 65 1200 b 147 1122 128 1200 147 1189 b 65 1038 147 1050 128 1038 b -18 1122 3 1038 -18 1050 b 65 1200 -18 1189 3 1200 m 361 1200 b 443 1122 424 1200 443 1189 b 361 1038 443 1050 424 1038 b 278 1122 297 1038 278 1050 b 361 1200 278 1189 297 1200 "},"ї":{"ha":364,"x_min":0,"x_max":0,"o":"m 268 0 l 96 0 l 96 707 l 268 707 m 33 946 b 117 869 96 946 117 936 b 33 783 117 796 96 783 b -49 869 -29 783 -49 796 b 33 946 -49 936 -29 946 m 331 946 b 413 869 392 946 413 936 b 331 783 413 796 392 783 b 247 869 267 783 247 796 b 331 946 247 936 267 946 "},"Љ":{"ha":1483,"x_min":0,"x_max":0,"o":"m 407 803 b 236 0 388 554 329 267 l 43 0 b 239 968 138 288 224 615 l 863 968 l 863 621 l 1172 621 b 1432 311 1363 621 1432 486 b 1181 0 1432 115 1354 0 l 679 0 l 679 803 m 863 472 l 863 154 l 1129 154 b 1233 311 1203 154 1233 208 b 1125 472 1233 417 1196 472 "},"Њ":{"ha":1494,"x_min":0,"x_max":0,"o":"m 306 0 l 122 0 l 122 968 l 306 968 l 306 617 l 692 617 l 692 968 l 874 968 l 874 615 l 1183 615 b 1443 307 1374 615 1443 482 b 1192 0 1443 111 1365 0 l 692 0 l 692 463 l 306 463 m 874 463 l 874 154 l 1140 154 b 1244 307 1214 154 1244 204 b 1136 463 1244 413 1207 463 "},"ё":{"ha":767,"x_min":0,"x_max":0,"o":"m 661 19 b 414 -19 590 -4 486 -19 b 71 357 210 -19 71 67 b 400 728 71 640 194 728 b 708 308 624 728 721 651 l 251 308 b 435 126 253 157 311 126 b 633 156 485 126 578 139 m 410 592 b 253 440 301 592 264 557 l 550 440 b 410 592 544 565 508 592 m 253 946 b 336 869 315 946 336 936 b 253 783 336 796 315 783 b 171 869 190 783 171 796 b 253 946 171 936 190 946 m 550 946 b 632 869 611 946 632 936 b 550 783 632 796 611 783 b 467 869 486 783 467 796 b 550 946 467 936 486 946 "},"Ё":{"ha":861,"x_min":0,"x_max":0,"o":"m 825 968 l 825 810 l 306 810 l 306 586 l 676 586 l 676 429 l 306 429 l 306 158 l 825 158 l 825 0 l 122 0 l 122 968 m 318 1200 b 400 1122 381 1200 400 1189 b 318 1038 400 1050 381 1038 b 235 1122 256 1038 235 1050 b 318 1200 235 1189 256 1200 m 614 1200 b 696 1122 676 1200 696 1189 b 614 1038 696 1050 676 1038 b 531 1122 550 1038 531 1050 b 614 1200 531 1189 550 1200 "},"к":{"ha":765,"x_min":0,"x_max":0,"o":"m 561 0 b 268 328 442 251 358 308 l 268 0 l 96 0 l 96 707 l 268 707 l 268 367 b 542 707 324 428 428 556 l 746 707 b 478 383 610 524 515 413 b 763 0 549 356 614 311 "},"б":{"ha":799,"x_min":0,"x_max":0,"o":"m 250 340 b 392 122 250 169 296 122 b 550 340 510 122 550 147 b 401 549 550 510 513 549 b 250 340 278 549 250 503 m 249 614 b 440 697 288 667 351 697 b 726 343 622 697 726 624 b 388 -19 726 61 621 -19 b 75 408 189 -19 75 60 b 422 964 75 871 171 944 b 688 1018 524 972 611 986 l 688 865 b 431 817 626 838 540 826 b 249 614 289 804 265 743 "},"в":{"ha":806,"x_min":0,"x_max":0,"o":"m 479 133 b 556 214 533 133 556 156 b 475 306 556 278 529 306 l 268 306 l 268 133 m 268 432 l 472 432 b 540 504 522 432 540 456 b 472 574 540 558 522 574 l 268 574 m 558 375 b 736 193 700 371 736 299 b 528 0 736 54 657 0 l 96 0 l 96 707 l 522 707 b 719 538 682 707 719 642 b 558 375 719 444 693 385 "},"ж":{"ha":1110,"x_min":0,"x_max":0,"o":"m 3 0 b 276 382 139 311 210 354 b 19 707 242 411 143 524 l 218 707 b 468 371 319 560 415 433 l 468 707 l 640 707 l 640 371 b 892 707 693 433 789 560 l 1090 707 b 833 382 965 524 868 411 b 1106 0 900 354 969 311 l 910 0 b 640 328 800 243 717 307 l 640 0 l 468 0 l 468 328 b 200 0 392 307 308 243 "},"з":{"ha":717,"x_min":0,"x_max":0,"o":"m 206 438 l 314 438 b 451 508 415 438 451 453 b 301 581 451 561 421 581 b 85 550 214 581 142 568 l 49 700 b 304 728 121 717 204 728 b 632 546 553 728 632 679 b 463 374 632 449 599 385 b 650 188 606 367 650 294 b 304 -19 650 26 550 -19 b 43 7 204 -19 117 -10 l 79 161 b 301 128 135 142 219 128 b 467 221 435 128 467 151 b 314 308 467 288 421 308 l 206 308 "},"ф":{"ha":1167,"x_min":0,"x_max":0,"o":"m 497 985 l 669 985 l 669 714 b 783 728 708 722 742 728 b 1094 354 1003 728 1094 643 b 815 -19 1094 67 990 -19 b 669 21 749 -19 701 0 l 669 -267 l 497 -267 l 497 21 b 351 -19 464 0 417 -19 b 72 354 175 -19 72 67 b 383 728 72 643 164 728 b 497 714 424 728 457 722 m 382 126 b 497 193 450 126 497 151 l 497 561 b 383 579 461 574 431 579 b 242 350 282 579 242 544 b 382 126 242 175 283 126 m 785 126 b 925 350 882 126 925 175 b 783 579 925 544 885 579 b 669 561 736 579 704 574 l 669 190 b 785 126 671 150 717 126 "},"ь":{"ha":801,"x_min":0,"x_max":0,"o":"m 476 128 b 556 225 529 128 556 157 b 474 318 556 293 528 318 l 268 318 l 268 128 l 476 128 m 517 451 b 736 228 661 451 736 375 b 517 0 736 61 661 0 l 96 0 l 96 707 l 268 707 l 268 451 "},"э":{"ha":668,"x_min":0,"x_max":0,"o":"m 71 154 b 238 125 115 136 178 125 b 417 308 346 125 408 160 l 135 308 l 135 440 l 414 440 b 238 582 399 560 336 582 b 71 556 181 582 115 574 l 33 694 b 249 728 86 714 181 728 b 597 357 456 728 597 646 b 249 -19 597 67 457 -19 b 33 17 182 -19 89 -6 "},"г":{"ha":589,"x_min":0,"x_max":0,"o":"m 268 0 l 96 0 l 96 707 l 588 707 l 588 557 l 268 557 "},"ѓ":{"ha":589,"x_min":0,"x_max":0,"o":"m 268 0 l 96 0 l 96 707 l 588 707 l 588 558 l 268 558 m 224 789 l 392 968 l 576 968 l 375 789 "},"Ў":{"ha":811,"x_min":0,"x_max":0,"o":"m 322 244 b -21 968 247 447 97 771 l 197 968 b 438 444 275 828 372 622 b 665 968 524 619 614 819 l 872 968 b 393 0 746 646 550 256 b 163 -1 315 0 239 0 b 322 244 213 65 278 167 m 353 1210 b 446 1129 353 1144 383 1129 b 538 1210 496 1129 540 1144 l 649 1210 b 442 1019 649 1078 576 1019 b 235 1210 310 1019 235 1078 "},"ў":{"ha":710,"x_min":0,"x_max":0,"o":"m 250 -35 b 0 707 181 217 88 496 l 179 707 b 354 171 242 551 306 353 b 529 707 421 347 485 532 l 704 707 b 436 -29 633 465 539 213 b 326 -267 403 -108 363 -197 l 135 -267 b 250 -35 172 -200 215 -111 m 267 971 b 358 890 267 906 297 890 b 451 971 418 890 451 906 l 563 971 b 354 781 563 839 489 781 b 149 971 224 781 149 839 "},"Ќ":{"ha":922,"x_min":0,"x_max":0,"o":"m 713 0 b 306 460 574 369 476 444 l 306 0 l 122 0 l 122 968 l 306 968 l 306 501 b 685 968 388 581 543 760 l 907 968 b 553 533 729 718 601 574 b 931 0 668 494 765 432 m 385 1038 l 564 1217 l 754 1217 l 535 1038 "},"ќ":{"ha":765,"x_min":0,"x_max":0,"o":"m 561 0 b 268 328 442 251 358 308 l 268 0 l 96 0 l 96 707 l 268 707 l 268 367 b 542 707 324 428 428 556 l 746 707 b 478 383 610 524 515 413 b 763 0 549 356 614 311 m 297 789 l 465 968 l 650 968 l 449 789 "},"ћ":{"ha":810,"x_min":0,"x_max":0,"o":"m 25 928 l 96 928 l 96 1003 l 268 1003 l 268 928 l 411 928 l 411 807 l 268 807 l 268 679 b 463 728 314 703 390 728 b 718 407 628 728 718 671 l 718 0 l 546 0 l 546 393 b 404 572 546 543 497 572 b 268 510 333 572 268 551 l 268 0 l 96 0 l 96 807 l 25 807 "},"т":{"ha":674,"x_min":0,"x_max":0,"o":"m 422 0 l 250 0 l 250 557 l 7 557 l 7 707 l 667 707 l 667 557 l 422 557 "},"ы":{"ha":1078,"x_min":0,"x_max":0,"o":"m 476 128 b 556 225 529 128 556 156 b 474 318 556 293 528 318 l 268 318 l 268 128 l 476 128 m 517 451 b 736 228 661 451 736 375 b 517 0 736 61 661 0 l 96 0 l 96 707 l 268 707 l 268 451 m 982 0 l 810 0 l 810 707 l 982 707 "},"ъ":{"ha":849,"x_min":0,"x_max":0,"o":"m 564 451 b 783 228 708 451 783 375 b 564 0 783 61 708 0 l 143 0 l 143 557 l 7 557 l 7 707 l 315 707 l 315 451 m 524 128 b 603 225 576 128 603 157 b 521 318 603 293 575 318 l 315 318 l 315 128 "},"н":{"ha":815,"x_min":0,"x_max":0,"o":"m 268 300 l 268 0 l 96 0 l 96 707 l 268 707 l 268 447 l 546 447 l 546 707 l 718 707 l 718 0 l 546 0 l 546 300 "},"п":{"ha":815,"x_min":0,"x_max":0,"o":"m 268 0 l 96 0 l 96 707 l 718 707 l 718 0 l 546 0 l 546 557 l 268 557 "},"и":{"ha":824,"x_min":0,"x_max":0,"o":"m 556 432 b 268 0 471 279 367 128 l 96 0 l 96 707 l 268 707 l 268 257 b 556 707 364 378 471 556 l 728 707 l 728 0 l 556 0 "},"й":{"ha":824,"x_min":0,"x_max":0,"o":"m 556 432 b 268 0 471 279 367 128 l 96 0 l 96 707 l 268 707 l 268 257 b 556 707 364 378 471 556 l 728 707 l 728 0 l 556 0 m 322 968 b 415 888 322 903 353 888 b 507 968 465 888 510 903 l 618 968 b 411 778 618 836 546 778 b 204 968 279 778 204 836 "},"л":{"ha":794,"x_min":0,"x_max":0,"o":"m 333 557 b 226 0 318 371 276 160 l 46 0 b 169 707 108 201 156 457 l 697 707 l 697 0 l 525 0 l 525 557 "},"д":{"ha":901,"x_min":0,"x_max":0,"o":"m 758 707 l 758 150 l 894 150 l 854 -196 l 717 -196 l 717 0 l 183 0 l 183 -196 l 44 -196 l 6 150 l 132 150 b 231 707 182 325 219 517 m 388 557 b 313 150 378 436 349 286 l 586 150 l 586 557 "},"ц":{"ha":883,"x_min":0,"x_max":0,"o":"m 876 150 l 836 -196 l 697 -196 l 697 0 l 96 0 l 96 707 l 268 707 l 268 150 l 546 150 l 546 707 l 718 707 l 718 150 "},"м":{"ha":1046,"x_min":0,"x_max":0,"o":"m 531 286 b 710 707 588 436 646 572 l 950 707 l 950 0 l 779 0 l 779 515 b 585 42 714 375 636 181 l 456 42 b 267 515 404 181 329 379 l 267 0 l 96 0 l 96 707 l 347 707 b 531 286 413 571 471 433 "},"Ћ":{"ha":1056,"x_min":0,"x_max":0,"o":"m 965 0 l 793 0 l 793 338 b 650 517 793 488 744 517 b 515 458 582 517 518 496 l 515 0 l 331 0 l 331 810 l 4 810 l 4 968 l 842 968 l 842 810 l 515 810 l 515 624 b 710 672 560 647 636 672 b 965 351 875 672 965 615 "},"Џ":{"ha":1022,"x_min":0,"x_max":0,"o":"m 606 0 l 576 -261 l 454 -261 l 425 0 l 124 0 l 124 968 l 307 968 l 307 165 l 721 165 l 721 968 l 901 968 l 901 0 "},"џ":{"ha":815,"x_min":0,"x_max":0,"o":"m 268 150 l 546 150 l 546 707 l 718 707 l 718 0 l 501 0 l 472 -247 l 350 -247 l 321 0 l 96 0 l 96 707 l 268 707 "},"№":{"ha":1631,"x_min":0,"x_max":0,"o":"m 951 0 l 728 0 b 301 729 597 242 453 489 l 301 0 l 122 0 l 122 968 l 363 968 b 769 269 503 747 643 506 l 769 968 l 951 968 m 1078 307 l 1531 307 l 1531 171 l 1078 171 m 1301 992 b 1560 703 1488 992 1560 931 b 1301 406 1560 474 1488 406 b 1044 703 1117 406 1044 474 b 1301 992 1044 931 1117 992 m 1301 529 b 1408 703 1388 529 1408 556 b 1301 869 1408 849 1388 869 b 1196 703 1215 869 1196 849 b 1301 529 1196 556 1215 529 "},"љ":{"ha":1231,"x_min":0,"x_max":0,"o":"m 333 557 b 226 0 318 371 276 160 l 46 0 b 169 707 108 201 156 457 l 697 707 l 697 451 l 946 451 b 1165 228 1090 451 1165 375 b 946 0 1165 61 1090 0 l 525 0 l 525 557 m 906 128 b 985 225 958 128 985 157 b 903 318 985 293 957 318 l 697 318 l 697 128 "},"њ":{"ha":1251,"x_min":0,"x_max":0,"o":"m 967 451 b 1186 228 1111 451 1186 375 b 967 0 1186 61 1111 0 l 546 0 l 546 318 l 268 318 l 268 0 l 96 0 l 96 707 l 268 707 l 268 451 l 546 451 l 546 707 l 718 707 l 718 451 m 926 128 b 1006 226 979 128 1006 157 b 924 318 1006 294 978 318 l 718 318 l 718 128 "},"ю":{"ha":1178,"x_min":0,"x_max":0,"o":"m 775 -19 b 449 300 572 -19 464 56 l 268 300 l 268 0 l 96 0 l 96 707 l 268 707 l 268 447 l 450 447 b 775 728 474 664 583 728 b 1107 357 994 728 1107 646 b 775 -19 1107 67 996 -19 m 775 589 b 622 354 661 589 622 557 b 775 119 622 158 661 119 b 931 354 892 119 931 158 b 775 589 931 557 892 589 "},"я":{"ha":824,"x_min":0,"x_max":0,"o":"m 556 568 l 354 568 b 271 479 300 568 271 546 b 358 388 271 415 301 388 l 556 388 m 286 306 b 85 500 135 311 85 400 b 308 707 85 614 139 707 l 728 707 l 728 0 l 556 0 l 556 251 l 449 251 b 232 0 357 251 311 214 l 35 0 b 286 306 135 244 188 292 "},"ч":{"ha":772,"x_min":0,"x_max":0,"o":"m 53 707 l 225 707 l 225 549 b 368 369 225 399 274 369 b 503 432 438 369 503 390 l 503 707 l 675 707 l 675 0 l 503 0 l 503 263 b 308 214 458 239 382 214 b 53 535 143 214 53 271 "},"щ":{"ha":1260,"x_min":0,"x_max":0,"o":"m 1074 0 l 96 0 l 96 707 l 268 707 l 268 150 l 510 150 l 510 707 l 682 707 l 682 150 l 922 150 l 922 707 l 1094 707 l 1094 150 l 1253 150 b 1213 -196 1239 35 1226 -81 l 1074 -196 "},"ш":{"ha":1192,"x_min":0,"x_max":0,"o":"m 1094 0 l 96 0 l 96 707 l 268 707 l 268 150 l 510 150 l 510 707 l 682 707 l 682 150 l 922 150 l 922 707 l 1094 707 "},"а":{"ha":778,"x_min":0,"x_max":0,"o":"m 686 36 b 367 -19 597 1 465 -19 b 68 217 143 -19 68 32 b 346 449 68 417 181 449 b 521 429 406 449 461 442 b 344 581 521 553 492 581 b 131 549 267 581 189 569 l 99 690 b 381 728 172 710 279 728 b 686 453 590 728 686 664 m 521 136 l 521 313 b 381 325 482 321 432 325 b 249 224 283 325 249 314 b 379 113 249 128 275 113 b 521 136 429 113 481 122 "},"е":{"ha":767,"x_min":0,"x_max":0,"o":"m 661 19 b 414 -19 590 -4 486 -19 b 71 357 210 -19 71 67 b 400 728 71 640 194 728 b 708 308 624 728 721 651 l 251 308 b 435 126 253 157 311 126 b 633 156 485 126 578 139 m 410 592 b 253 440 301 592 264 557 l 550 440 b 410 592 544 565 508 592 "},"Ґ":{"ha":756,"x_min":0,"x_max":0,"o":"m 122 968 l 608 968 l 654 1215 l 776 1215 l 776 810 l 306 810 l 306 0 l 122 0 "},"ґ":{"ha":589,"x_min":0,"x_max":0,"o":"m 268 557 l 268 0 l 96 0 l 96 707 l 438 707 l 479 935 l 588 935 l 588 557 "},"":{"ha":782,"x_min":0,"x_max":0,"o":"m 593 0 b 528 171 572 47 550 107 l 232 171 b 182 0 213 110 196 51 l 4 0 b 258 707 65 211 172 496 l 526 707 b 774 0 593 481 690 189 l 593 0 m 371 568 b 272 297 338 486 304 393 l 485 297 b 400 568 451 396 424 486 "},"":{"ha":1122,"x_min":0,"x_max":0,"o":"m 981 303 l 689 303 l 689 140 l 1069 140 l 1069 0 l 517 0 l 517 174 l 206 174 b 94 0 164 111 126 51 l -93 0 b 403 707 40 211 243 496 l 1069 707 l 1069 567 l 689 567 l 689 435 l 981 435 m 485 579 b 289 301 424 496 354 397 l 517 301 l 517 579 l 485 579 "},"":{"ha":782,"x_min":0,"x_max":0,"o":"m 593 0 b 528 171 572 47 550 107 l 232 171 b 182 0 213 110 196 51 l 4 0 b 258 707 65 211 172 496 l 526 707 b 774 0 593 481 690 189 l 593 0 m 371 568 b 272 297 338 486 304 393 l 485 297 b 400 568 451 396 424 486 m 253 789 l 421 968 l 606 968 l 404 789 "},"":{"ha":782,"x_min":0,"x_max":0,"o":"m 593 0 b 528 171 572 47 550 107 l 232 171 b 182 0 213 110 196 51 l 4 0 b 258 707 65 211 172 496 l 526 707 b 774 0 593 481 690 189 l 593 0 m 371 568 b 272 297 338 486 304 393 l 485 297 b 400 568 451 396 424 486 m 382 789 l 182 968 l 365 968 l 535 789 "},"":{"ha":782,"x_min":0,"x_max":0,"o":"m 593 0 b 528 171 572 47 550 107 l 232 171 b 182 0 213 110 196 51 l 4 0 b 258 707 65 211 172 496 l 526 707 b 774 0 593 481 690 189 l 593 0 m 371 568 b 272 297 338 486 304 393 l 485 297 b 400 568 451 396 424 486 m 485 789 l 386 894 l 290 789 l 133 789 l 303 968 l 472 968 l 647 789 "},"":{"ha":782,"x_min":0,"x_max":0,"o":"m 593 0 b 528 171 572 47 550 107 l 232 171 b 182 0 213 110 196 51 l 4 0 b 258 707 65 211 172 496 l 526 707 b 774 0 593 481 690 189 l 593 0 m 371 568 b 272 297 338 486 304 393 l 485 297 b 400 568 451 396 424 486 m 239 946 b 322 869 301 946 322 936 b 239 783 322 796 301 783 b 157 869 176 783 157 796 b 239 946 157 936 176 946 m 536 946 b 618 869 597 946 618 936 b 536 783 618 796 597 783 b 453 869 472 783 453 796 b 536 946 453 936 472 946 "},"":{"ha":782,"x_min":0,"x_max":0,"o":"m 593 0 b 528 171 572 47 550 107 l 232 171 b 182 0 213 110 196 51 l 4 0 b 258 707 65 211 172 496 l 526 707 b 774 0 593 481 690 189 l 593 0 m 371 568 b 272 297 338 486 304 393 l 485 297 b 400 568 451 396 424 486 m 642 906 b 479 776 615 831 563 776 b 283 850 396 776 351 850 b 211 779 256 850 233 833 l 133 856 b 285 968 172 924 215 968 b 482 894 379 968 417 894 b 556 975 515 894 533 913 "},"":{"ha":782,"x_min":0,"x_max":0,"o":"m 593 0 b 528 171 572 47 550 107 l 232 171 b 182 0 213 110 196 51 l 4 0 b 258 707 65 211 172 496 l 526 707 b 774 0 593 481 690 189 l 593 0 m 371 568 b 272 297 338 486 304 393 l 485 297 b 400 568 451 396 424 486 m 385 1029 b 550 893 496 1029 550 993 b 385 757 550 792 496 757 b 218 893 274 757 218 792 b 385 1029 218 993 267 1029 m 385 950 b 315 890 328 950 315 932 b 385 831 315 850 328 831 b 454 890 442 831 454 851 b 385 950 454 932 442 950 "},"":{"ha":701,"x_min":0,"x_max":0,"o":"m 649 567 l 268 567 l 268 435 l 560 435 l 560 303 l 268 303 l 268 140 l 649 140 l 649 0 l 96 0 l 96 707 l 649 707 m 382 789 l 182 968 l 365 968 l 535 789 "},"":{"ha":701,"x_min":0,"x_max":0,"o":"m 649 567 l 268 567 l 268 435 l 560 435 l 560 303 l 268 303 l 268 140 l 649 140 l 649 0 l 96 0 l 96 707 l 649 707 m 247 789 l 415 968 l 600 968 l 399 789 "},"":{"ha":701,"x_min":0,"x_max":0,"o":"m 649 567 l 268 567 l 268 435 l 560 435 l 560 303 l 268 303 l 268 140 l 649 140 l 649 0 l 96 0 l 96 707 l 649 707 m 486 789 l 388 894 l 292 789 l 135 789 l 304 968 l 474 968 l 649 789 "},"":{"ha":701,"x_min":0,"x_max":0,"o":"m 649 567 l 268 567 l 268 435 l 560 435 l 560 303 l 268 303 l 268 140 l 649 140 l 649 0 l 96 0 l 96 707 l 649 707 m 242 946 b 325 869 304 946 325 936 b 242 783 325 796 304 783 b 160 869 179 783 160 796 b 242 946 160 936 179 946 m 539 946 b 621 869 600 946 621 936 b 539 783 621 796 600 783 b 456 869 475 783 456 796 b 539 946 456 936 475 946 "},"":{"ha":454,"x_min":0,"x_max":0,"o":"m 325 707 l 288 288 l 163 288 l 126 707 m 226 196 b 336 97 310 196 336 182 b 226 -10 336 6 310 -10 b 118 97 146 -10 118 6 b 226 196 118 182 146 196 "},"":{"ha":658,"x_min":0,"x_max":0,"o":"m 96 707 l 649 707 l 649 567 l 268 567 l 268 400 l 560 400 l 560 265 l 268 265 l 268 0 l 96 0 "},"":{"ha":790,"x_min":0,"x_max":0,"o":"m 701 29 b 421 -19 628 3 515 -19 b 71 357 208 -19 71 67 b 435 728 71 646 221 728 b 671 694 503 728 614 714 l 626 553 b 440 583 579 569 511 583 b 249 354 315 583 249 550 b 433 125 249 167 314 125 b 547 144 471 125 518 132 l 547 278 l 397 278 l 397 413 l 701 413 "},"":{"ha":600,"x_min":0,"x_max":0,"o":"m 268 154 l 601 154 l 601 0 l 96 0 l 96 178 l 38 126 l 38 275 l 96 326 l 96 707 l 268 707 l 268 471 l 399 586 l 399 436 l 268 322 "},"":{"ha":824,"x_min":0,"x_max":0,"o":"m 556 707 l 728 707 l 728 0 l 556 0 b 268 446 471 151 364 326 l 268 0 l 96 0 l 96 707 l 265 707 b 556 275 364 579 471 428 m 675 906 b 513 776 649 831 596 776 b 317 850 429 776 385 850 b 244 779 289 850 267 833 l 167 856 b 318 968 206 924 249 968 b 515 894 413 968 450 894 b 589 975 549 894 567 913 "},"":{"ha":1146,"x_min":0,"x_max":0,"o":"m 1093 567 l 707 567 b 743 435 726 533 739 492 l 1004 435 l 1004 303 l 743 303 b 706 140 742 229 728 178 l 1093 140 l 1093 0 l 560 0 b 407 -19 517 -14 467 -19 b 71 357 182 -19 71 67 b 407 728 71 646 183 728 b 564 707 468 728 519 721 l 1093 707 m 407 589 b 249 354 286 589 249 557 b 407 119 249 158 286 119 b 568 354 531 119 568 158 b 407 589 568 557 531 589 "},"":{"ha":669,"x_min":0,"x_max":0,"o":"m 313 199 b 424 101 397 199 424 186 b 313 -6 424 10 397 -6 b 206 101 232 -6 206 10 b 313 199 206 186 232 199 m 222 281 b 403 518 340 371 403 429 b 281 589 403 568 375 589 b 88 564 218 589 140 579 l 61 707 b 294 733 122 719 221 733 b 597 549 515 733 597 679 b 393 281 597 439 540 369 "},"":{"ha":803,"x_min":0,"x_max":0,"o":"m 401 135 b 539 276 513 135 539 176 l 539 707 l 710 707 l 710 286 b 401 -19 710 56 628 -19 b 92 286 175 -19 92 56 l 92 707 l 264 707 l 264 276 b 401 135 264 176 290 135 m 494 789 l 396 894 l 300 789 l 143 789 l 313 968 l 482 968 l 657 789 "},"":{"ha":803,"x_min":0,"x_max":0,"o":"m 401 135 b 539 276 513 135 539 176 l 539 707 l 710 707 l 710 286 b 401 -19 710 56 628 -19 b 92 286 175 -19 92 56 l 92 707 l 264 707 l 264 276 b 401 135 264 176 290 135 m 257 789 l 425 968 l 610 968 l 408 789 "},"":{"ha":803,"x_min":0,"x_max":0,"o":"m 401 135 b 539 276 513 135 539 176 l 539 707 l 710 707 l 710 286 b 401 -19 710 56 628 -19 b 92 286 175 -19 92 56 l 92 707 l 264 707 l 264 276 b 401 135 264 176 290 135 m 254 946 b 338 869 317 946 338 936 b 254 783 338 796 317 783 b 172 869 192 783 172 796 b 254 946 172 936 192 946 m 551 946 b 633 869 613 946 633 936 b 551 783 633 796 613 783 b 468 869 488 783 468 796 b 551 946 468 936 488 946 "},"":{"ha":803,"x_min":0,"x_max":0,"o":"m 401 135 b 539 276 513 135 539 176 l 539 707 l 710 707 l 710 286 b 401 -19 710 56 628 -19 b 92 286 175 -19 92 56 l 92 707 l 264 707 l 264 276 b 401 135 264 176 290 135 m 389 789 l 189 968 l 372 968 l 542 789 "},"":{"ha":676,"x_min":0,"x_max":0,"o":"m 347 461 b 522 707 406 532 476 635 l 711 707 b 431 321 625 575 524 435 l 431 0 l 258 0 l 258 321 b -35 707 165 451 49 608 l 165 707 b 347 461 222 639 290 544 "},"":{"ha":676,"x_min":0,"x_max":0,"o":"m 347 461 b 522 707 406 532 476 635 l 711 707 b 431 321 625 575 524 435 l 431 0 l 258 0 l 258 321 b -35 707 165 451 49 608 l 165 707 b 347 461 222 639 290 544 m 217 789 l 385 968 l 569 968 l 368 789 "},"":{"ha":676,"x_min":0,"x_max":0,"o":"m 347 461 b 522 707 406 532 476 635 l 711 707 b 431 321 625 575 524 435 l 431 0 l 258 0 l 258 321 b -35 707 165 451 49 608 l 165 707 b 347 461 222 639 290 544 m 201 946 b 285 869 264 946 285 936 b 201 783 285 796 264 783 b 119 869 139 783 119 796 b 201 946 119 936 139 946 m 499 946 b 581 869 560 946 581 936 b 499 783 581 796 560 783 b 415 869 435 783 415 796 b 499 946 415 936 435 946 "},"":{"ha":782,"x_min":0,"x_max":0,"o":"m 268 0 l 96 0 l 96 707 l 268 707 l 268 585 l 507 585 b 729 357 665 585 729 508 b 521 135 729 222 671 135 l 268 135 m 268 451 l 268 261 l 472 261 b 549 354 522 261 549 289 b 472 451 549 422 524 451 "},"":{"ha":806,"x_min":0,"x_max":0,"o":"m 479 133 b 556 214 533 133 556 156 b 475 306 556 278 529 306 l 268 306 l 268 133 m 268 432 l 472 432 b 540 504 522 432 540 456 b 472 574 540 558 522 574 l 268 574 m 558 375 b 736 193 700 371 736 299 b 528 0 736 54 657 0 l 96 0 l 96 707 l 522 707 b 719 538 682 707 719 642 b 558 375 719 444 693 385 "},"":{"ha":653,"x_min":0,"x_max":0,"o":"m 636 17 b 421 -19 581 -6 488 -19 b 71 357 206 -19 71 67 b 421 728 71 646 207 728 b 636 694 489 728 583 714 l 597 547 b 433 578 553 564 490 578 b 249 354 308 578 249 550 b 433 131 249 167 308 131 b 597 164 493 131 553 146 "},"":{"ha":364,"x_min":0,"x_max":0,"o":"m 268 0 l 96 0 l 96 707 l 268 707 "},"":{"ha":817,"x_min":0,"x_max":0,"o":"m 407 -19 b 71 357 182 -19 71 67 b 407 728 71 646 183 728 b 746 357 633 728 746 646 b 407 -19 746 67 635 -19 m 407 588 b 249 354 286 588 249 557 b 407 121 249 158 286 121 b 568 354 531 121 568 158 b 407 588 568 557 531 588 "},"":{"ha":815,"x_min":0,"x_max":0,"o":"m 268 300 l 268 0 l 96 0 l 96 707 l 268 707 l 268 447 l 546 447 l 546 707 l 718 707 l 718 0 l 546 0 l 546 300 "},"":{"ha":674,"x_min":0,"x_max":0,"o":"m 422 0 l 250 0 l 250 557 l 7 557 l 7 707 l 667 707 l 667 557 l 422 557 "},"ѕ":{"ha":682,"x_min":0,"x_max":0,"o":"m 565 554 b 360 588 510 572 431 588 b 232 506 275 588 232 579 b 378 429 232 457 263 440 b 624 217 549 411 624 358 b 321 -19 624 33 501 -19 b 68 18 246 -19 135 -6 l 104 154 b 314 121 156 136 243 121 b 453 207 408 121 453 133 b 301 292 453 257 425 281 b 63 493 146 304 63 347 b 365 728 63 676 186 728 b 603 689 439 728 532 713 "},"":{"ha":682,"x_min":0,"x_max":0,"o":"m 565 554 b 360 588 510 572 431 588 b 232 506 275 588 232 579 b 378 429 232 457 263 440 b 624 217 549 411 624 358 b 321 -19 624 33 501 -19 b 68 18 246 -19 135 -6 l 104 154 b 314 121 156 136 243 121 b 453 207 408 121 453 133 b 301 292 453 257 425 281 b 63 493 146 304 63 347 b 365 728 63 676 186 728 b 603 689 439 728 532 713 "},"":{"ha":765,"x_min":0,"x_max":0,"o":"m 268 0 l 96 0 l 96 707 l 268 707 m 564 0 b 268 374 404 232 307 357 b 542 707 307 406 403 519 l 746 707 b 475 386 610 524 513 415 b 767 0 511 364 617 235 "},"":{"ha":797,"x_min":0,"x_max":0,"o":"m 513 707 b 731 500 682 707 731 614 b 536 306 731 400 688 311 b 790 0 608 288 650 249 l 590 0 b 367 251 478 213 428 251 l 268 251 l 268 0 l 96 0 l 96 707 l 513 707 m 464 388 b 551 479 519 388 551 418 b 467 568 551 540 524 568 l 268 568 l 268 388 "},"":{"ha":824,"x_min":0,"x_max":0,"o":"m 556 707 l 728 707 l 728 0 l 556 0 b 268 446 471 151 364 326 l 268 0 l 96 0 l 96 707 l 265 707 b 556 275 364 579 471 428 "},"":{"ha":724,"x_min":0,"x_max":0,"o":"m 522 0 b 374 224 483 65 431 143 b 200 0 311 139 251 63 l 8 0 b 283 353 83 88 186 221 b 10 707 188 486 86 618 l 215 707 b 378 490 263 649 321 571 b 524 707 438 572 486 649 l 715 707 b 472 358 651 611 563 483 b 717 0 561 233 650 103 "},"":{"ha":725,"x_min":0,"x_max":0,"o":"m 367 174 b 542 707 433 350 496 531 l 717 707 b 463 0 649 478 557 229 l 250 0 b 13 707 181 246 100 494 l 192 707 b 367 174 254 549 317 356 "},"":{"ha":1153,"x_min":0,"x_max":0,"o":"m 576 474 b 440 0 543 326 485 128 l 228 0 b 0 707 160 246 82 490 l 182 707 b 343 176 240 551 299 358 b 496 707 392 318 467 581 l 664 707 b 807 176 710 569 774 328 b 971 707 871 353 929 531 l 1146 707 b 904 0 1082 478 996 224 l 690 0 b 576 474 663 143 610 363 "},"":{"ha":575,"x_min":0,"x_max":0,"o":"m 481 244 b 206 -19 481 32 343 -19 b 0 13 131 -19 58 -8 l 33 160 b 189 132 76 143 133 132 b 308 257 254 132 308 158 l 308 707 l 481 707 "},"":{"ha":600,"x_min":0,"x_max":0,"o":"m 268 154 l 601 154 l 601 0 l 96 0 l 96 707 l 268 707 "},"":{"ha":782,"x_min":0,"x_max":0,"o":"m 268 574 l 268 383 l 472 383 b 549 476 522 383 549 411 b 472 574 549 544 524 574 m 268 257 l 268 0 l 96 0 l 96 707 l 507 707 b 729 479 665 707 729 631 b 521 257 729 344 671 257 "},"":{"ha":1046,"x_min":0,"x_max":0,"o":"m 531 286 b 710 707 588 436 646 572 l 950 707 l 950 0 l 779 0 l 779 515 b 585 42 714 375 636 181 l 456 42 b 267 515 404 181 329 379 l 267 0 l 96 0 l 96 707 l 347 707 b 531 286 413 571 471 433 "},"":{"ha":803,"x_min":0,"x_max":0,"o":"m 401 135 b 539 276 513 135 539 176 l 539 707 l 710 707 l 710 286 b 401 -19 710 56 628 -19 b 92 286 175 -19 92 56 l 92 707 l 264 707 l 264 276 b 401 135 264 176 290 135 "},"":{"ha":701,"x_min":0,"x_max":0,"o":"m 649 567 l 268 567 l 268 435 l 560 435 l 560 303 l 268 303 l 268 140 l 649 140 l 649 0 l 96 0 l 96 707 l 649 707 "},"":{"ha":811,"x_min":0,"x_max":0,"o":"m 396 707 b 739 357 622 707 739 632 b 396 0 739 81 624 0 l 96 0 l 96 707 m 268 574 l 268 133 l 383 133 b 561 354 506 133 561 168 b 383 574 561 546 506 574 "},"":{"ha":690,"x_min":0,"x_max":0,"o":"m 658 707 l 658 672 b 294 150 558 511 388 268 l 649 150 l 649 0 l 25 0 l 25 35 b 394 557 160 206 325 443 l 49 557 l 49 707 "},"":{"ha":817,"x_min":0,"x_max":0,"o":"m 393 -19 b 71 357 189 -19 71 67 b 407 728 71 646 183 728 b 746 357 633 728 746 646 b 579 11 746 154 690 54 b 836 -253 642 -4 714 -76 l 643 -253 b 393 -19 544 -101 457 -19 m 407 589 b 249 354 286 589 249 557 b 407 119 249 158 286 119 b 568 354 531 119 568 158 b 407 589 568 557 531 589 "},"":{"ha":817,"x_min":0,"x_max":0,"o":"m 790 707 l 697 601 b 746 357 729 544 746 465 b 407 -19 746 67 635 -19 b 197 26 319 -19 250 -6 l 174 0 l 28 0 l 119 106 b 71 357 88 164 71 246 b 407 728 71 646 183 728 b 619 682 496 728 567 715 l 642 707 m 407 588 b 246 382 292 588 246 557 b 256 258 246 335 250 289 l 515 564 b 407 588 490 582 456 588 m 407 121 b 568 351 538 121 568 176 b 560 446 568 386 567 415 l 301 144 b 407 121 325 126 360 121 "},"":{"ha":690,"x_min":0,"x_max":0,"o":"m 658 707 l 658 672 b 294 150 558 511 388 268 l 649 150 l 649 0 l 25 0 l 25 35 b 394 557 160 206 325 443 l 49 557 l 49 707 m 256 968 l 354 863 l 450 968 l 607 968 l 438 789 l 268 789 l 93 968 "},"":{"ha":682,"x_min":0,"x_max":0,"o":"m 565 554 b 360 588 510 572 431 588 b 232 506 275 588 232 579 b 378 429 232 457 263 440 b 624 217 549 411 624 358 b 321 -19 624 33 501 -19 b 68 18 246 -19 135 -6 l 104 154 b 314 121 156 136 243 121 b 453 207 408 121 453 133 b 301 292 453 257 425 281 b 63 493 146 304 63 347 b 365 728 63 676 186 728 b 603 689 439 728 532 713 m 254 968 l 353 863 l 449 968 l 606 968 l 436 789 l 267 789 l 92 968 "},"":{"ha":653,"x_min":0,"x_max":0,"o":"m 636 17 b 421 -19 581 -6 488 -19 b 71 357 206 -19 71 67 b 421 728 71 646 207 728 b 636 694 489 728 583 714 l 597 547 b 433 578 553 564 490 578 b 249 354 308 578 249 550 b 433 131 249 167 308 131 b 597 164 493 131 553 146 m 429 0 l 429 -58 b 582 -167 538 -58 582 -85 b 392 -282 582 -254 531 -282 b 256 -260 326 -282 290 -275 l 286 -185 b 385 -201 308 -196 346 -201 b 442 -165 428 -201 442 -193 b 311 -129 442 -131 411 -124 l 361 0 "},"":{"ha":364,"x_min":0,"x_max":0,"o":"m 268 0 l 96 0 l 96 707 l 268 707 m 144 789 l -56 968 l 128 968 l 297 789 "},"":{"ha":364,"x_min":0,"x_max":0,"o":"m 268 0 l 96 0 l 96 707 l 268 707 m 61 789 l 229 968 l 414 968 l 213 789 "},"":{"ha":364,"x_min":0,"x_max":0,"o":"m 268 0 l 96 0 l 96 707 l 268 707 m 278 789 l 179 894 l 83 789 l -74 789 l 96 968 l 265 968 l 440 789 "},"":{"ha":364,"x_min":0,"x_max":0,"o":"m 268 0 l 96 0 l 96 707 l 268 707 m 35 946 b 118 869 97 946 118 936 b 35 783 118 796 97 783 b -47 869 -28 783 -47 796 b 35 946 -47 936 -28 946 m 332 946 b 414 869 393 946 414 936 b 332 783 414 796 393 783 b 249 869 268 783 249 796 b 332 946 249 936 268 946 "},"":{"ha":811,"x_min":0,"x_max":0,"o":"m 31 431 l 96 431 l 96 707 l 396 707 b 739 357 622 707 739 632 b 396 0 739 81 624 0 l 96 0 l 96 306 l 31 306 m 268 574 l 268 431 l 392 431 l 392 306 l 268 306 l 268 133 l 383 133 b 561 354 506 133 561 168 b 383 574 561 546 506 574 "},"":{"ha":817,"x_min":0,"x_max":0,"o":"m 407 -19 b 71 357 182 -19 71 67 b 407 728 71 646 183 728 b 746 357 633 728 746 646 b 407 -19 746 67 635 -19 m 407 589 b 249 354 286 589 249 557 b 407 119 249 158 286 119 b 568 354 531 119 568 158 b 407 589 568 557 531 589 m 399 789 l 199 968 l 382 968 l 551 789 "},"":{"ha":817,"x_min":0,"x_max":0,"o":"m 407 -19 b 71 357 182 -19 71 67 b 407 728 71 646 183 728 b 746 357 633 728 746 646 b 407 -19 746 67 635 -19 m 407 589 b 249 354 286 589 249 557 b 407 119 249 158 286 119 b 568 354 531 119 568 158 b 407 589 568 557 531 589 m 275 789 l 443 968 l 628 968 l 426 789 "},"":{"ha":817,"x_min":0,"x_max":0,"o":"m 407 -19 b 71 357 182 -19 71 67 b 407 728 71 646 183 728 b 746 357 633 728 746 646 b 407 -19 746 67 635 -19 m 407 589 b 249 354 286 589 249 557 b 407 119 249 158 286 119 b 568 354 531 119 568 158 b 407 589 568 557 531 589 m 500 789 l 401 894 l 306 789 l 149 789 l 318 968 l 488 968 l 663 789 "},"":{"ha":817,"x_min":0,"x_max":0,"o":"m 407 -19 b 71 357 182 -19 71 67 b 407 728 71 646 183 728 b 746 357 633 728 746 646 b 407 -19 746 67 635 -19 m 407 589 b 249 354 286 589 249 557 b 407 119 249 158 286 119 b 568 354 531 119 568 158 b 407 589 568 557 531 589 m 660 906 b 497 776 633 831 581 776 b 301 850 414 776 369 850 b 229 779 274 850 251 833 l 151 856 b 303 968 190 924 233 968 b 500 894 397 968 435 894 b 574 975 533 894 551 913 "},"":{"ha":817,"x_min":0,"x_max":0,"o":"m 407 -19 b 71 357 182 -19 71 67 b 407 728 71 646 183 728 b 746 357 633 728 746 646 b 407 -19 746 67 635 -19 m 407 589 b 249 354 286 589 249 557 b 407 119 249 158 286 119 b 568 354 531 119 568 158 b 407 589 568 557 531 589 m 258 946 b 342 869 321 946 342 936 b 258 783 342 796 321 783 b 176 869 196 783 176 796 b 258 946 176 936 196 946 m 556 946 b 638 869 617 946 638 936 b 556 783 638 796 617 783 b 472 869 492 783 472 796 b 556 946 472 936 492 946 "},"":{"ha":669,"x_min":0,"x_max":0,"o":"m 347 522 b 238 619 264 522 238 535 b 347 728 238 711 264 728 b 456 619 428 728 456 711 b 347 522 456 535 428 522 m 439 440 b 257 200 319 349 257 292 b 379 132 257 151 288 132 b 572 157 442 132 519 142 l 600 14 b 367 -10 539 1 450 -10 b 63 168 151 -10 63 40 b 268 440 63 281 118 350 "},"":{"ha":454,"x_min":0,"x_max":0,"o":"m 128 0 l 165 419 l 292 419 l 326 0 m 228 513 b 117 610 144 513 117 525 b 228 718 117 701 144 718 b 336 610 308 718 336 701 b 228 513 336 525 308 513 "},"":{"ha":869,"x_min":0,"x_max":0,"o":"m 267 324 l 401 324 b 563 446 518 324 563 351 b 354 564 563 533 525 564 b 111 533 281 564 171 551 l 75 692 b 390 728 160 710 279 728 b 757 481 668 728 757 656 b 549 251 757 353 722 265 b 776 1 732 243 776 147 b 386 -279 776 -208 661 -279 b 68 -244 286 -279 156 -264 l 104 -86 b 351 -114 167 -104 276 -114 b 578 26 536 -114 578 -78 b 404 168 578 136 531 168 l 267 168 "},"":{"ha":869,"x_min":0,"x_max":0,"o":"m 32 0 l 32 56 b 444 707 133 233 311 529 l 688 707 l 688 143 l 817 143 l 817 0 l 688 0 l 688 -267 l 513 -267 l 513 0 m 513 554 b 254 143 419 435 307 238 l 513 143 "},"":{"ha":869,"x_min":0,"x_max":0,"o":"m 733 707 l 733 549 l 306 549 l 306 336 b 422 342 343 339 382 342 b 776 40 693 342 776 256 b 397 -282 776 -206 672 -282 b 89 -247 303 -282 168 -267 l 125 -89 b 361 -117 185 -107 286 -117 b 578 31 540 -117 578 -82 b 371 186 578 150 547 186 b 133 167 294 186 197 179 l 133 707 "},"":{"ha":869,"x_min":0,"x_max":0,"o":"m 742 793 b 514 825 690 813 601 825 b 272 585 360 825 278 789 b 456 600 328 594 401 600 b 814 299 728 600 814 515 b 450 -19 814 53 715 -19 b 76 492 175 -19 76 96 b 514 992 76 888 200 992 b 782 954 600 992 707 976 m 450 146 b 622 289 592 146 622 183 b 464 444 622 399 593 444 b 269 431 389 444 318 439 b 450 146 274 189 329 146 "},"":{"ha":869,"x_min":0,"x_max":0,"o":"m 829 653 b 401 -267 701 449 492 4 l 194 -267 b 586 549 296 11 467 381 l 86 549 l 86 707 l 829 707 "},"":{"ha":869,"x_min":0,"x_max":0,"o":"m 435 131 b 608 279 568 131 608 168 b 435 436 608 392 564 436 b 263 279 306 436 263 392 b 435 131 263 168 301 131 m 435 579 b 592 715 546 579 592 617 b 435 839 592 811 550 839 b 276 715 318 839 276 811 b 435 579 276 617 324 579 m 435 -19 b 71 261 171 -19 71 54 b 297 513 71 407 113 504 b 92 744 124 528 92 617 b 435 992 92 914 165 992 b 778 744 704 992 778 914 b 572 513 778 617 746 528 b 799 261 757 504 799 407 b 435 -19 799 54 700 -19 "},"":{"ha":869,"x_min":0,"x_max":0,"o":"m 235 -267 b 550 115 364 -144 486 -11 b 429 108 517 111 454 108 b 71 400 157 108 71 183 b 435 728 71 646 168 728 b 804 393 726 728 804 654 b 463 -267 804 117 644 -90 l 235 -267 m 449 264 b 599 274 499 264 553 267 b 611 374 607 306 611 339 b 435 564 611 542 568 564 b 263 408 292 564 263 517 b 449 264 263 289 293 264 "},"":{"ha":869,"x_min":0,"x_max":0,"o":"m 438 -19 b 115 357 232 -19 115 67 b 438 728 115 646 235 728 b 754 357 643 728 754 646 b 438 -19 754 67 644 -19 m 438 589 b 292 354 329 589 292 557 b 438 119 292 158 329 119 b 576 354 549 119 576 158 b 438 589 576 557 546 589 "},"":{"ha":869,"x_min":0,"x_max":0,"o":"m 439 0 l 439 503 l 222 404 l 172 549 l 613 728 l 613 0 "},"":{"ha":869,"x_min":0,"x_max":0,"o":"m 129 696 b 419 728 200 713 329 728 b 739 506 665 728 739 663 b 375 140 739 375 656 264 l 754 140 l 754 0 l 122 0 l 122 126 b 551 472 497 335 551 390 b 390 571 551 543 519 571 b 169 536 329 571 214 556 "},"":{"ha":969,"x_min":0,"x_max":0,"o":"m 760 0 b 697 89 738 33 717 63 b 357 -19 599 24 479 -19 b 44 188 128 -19 44 26 b 243 376 44 294 100 369 b 88 546 107 386 88 449 b 394 728 88 679 146 728 b 699 546 642 728 699 679 b 522 374 699 449 658 385 b 704 278 572 368 635 340 b 772 415 740 322 763 371 l 958 415 b 819 176 943 332 892 249 b 950 0 863 128 906 69 m 363 114 b 607 199 457 114 549 149 b 379 307 538 272 467 307 b 226 211 299 307 226 299 b 363 114 226 136 263 114 m 392 440 b 531 519 486 440 531 457 b 397 597 531 576 504 597 b 261 519 289 597 261 576 b 392 440 261 457 296 440 "},"Þ":{"ha":935,"x_min":0,"x_max":0,"o":"m 306 968 l 306 825 l 626 825 b 896 493 831 825 896 682 b 631 176 896 326 817 176 l 306 176 l 306 0 l 122 0 l 122 968 m 575 329 b 694 494 651 329 694 385 b 579 668 694 613 654 668 l 306 668 l 306 329 "},"ý":{"ha":710,"x_min":0,"x_max":0,"o":"m 250 -35 b 0 707 181 217 88 496 l 179 707 b 354 171 242 551 306 353 b 529 707 421 347 485 532 l 704 707 b 436 -29 633 465 539 213 b 326 -267 403 -108 363 -197 l 135 -267 b 250 -35 172 -200 215 -111 m 249 789 l 417 968 l 601 968 l 400 789 "}}}
